<svg width="25" height="24" viewBox="0 0 25 24" fill="none" xmlns="http://www.w3.org/2000/svg">
<path fill-rule="evenodd" clip-rule="evenodd" d="M6.52051 3.75C6.52051 3.33579 6.18472 3 5.77051 3C5.35629 3 5.02051 3.33579 5.02051 3.75V19.75C5.02051 20.1642 5.35629 20.5 5.77051 20.5C6.18472 20.5 6.52051 20.1642 6.52051 19.75V3.75ZM10.5205 3.75C10.5205 3.33579 10.1847 3 9.77051 3C9.35629 3 9.02051 3.33579 9.02051 3.75V19.75C9.02051 20.1642 9.35629 20.5 9.77051 20.5C10.1847 20.5 10.5205 20.1642 10.5205 19.75V3.75ZM13.7705 3C14.1847 3 14.5205 3.33579 14.5205 3.75V19.75C14.5205 20.1642 14.1847 20.5 13.7705 20.5C13.3563 20.5 13.0205 20.1642 13.0205 19.75V3.75C13.0205 3.33579 13.3563 3 13.7705 3ZM18.5205 3.75C18.5205 3.33579 18.1847 3 17.7705 3C17.3563 3 17.0205 3.33579 17.0205 3.75V19.75C17.0205 20.1642 17.3563 20.5 17.7705 20.5C18.1847 20.5 18.5205 20.1642 18.5205 19.75V3.75Z" fill="#121212"/>
</svg>
