<svg width="25" height="24" viewBox="0 0 25 24" fill="none" xmlns="http://www.w3.org/2000/svg">
<path fill-rule="evenodd" clip-rule="evenodd" d="M3.77051 3C4.18472 3 4.52051 3.33579 4.52051 3.75V19.75C4.52051 20.1642 4.18472 20.5 3.77051 20.5C3.35629 20.5 3.02051 20.1642 3.02051 19.75V3.75C3.02051 3.33579 3.35629 3 3.77051 3ZM7.77051 3C8.18472 3 8.52051 3.33579 8.52051 3.75V19.75C8.52051 20.1642 8.18472 20.5 7.77051 20.5C7.35629 20.5 7.02051 20.1642 7.02051 19.75V3.75C7.02051 3.33579 7.35629 3 7.77051 3ZM12.5205 3.75C12.5205 3.33579 12.1847 3 11.7705 3C11.3563 3 11.0205 3.33579 11.0205 3.75V19.75C11.0205 20.1642 11.3563 20.5 11.7705 20.5C12.1847 20.5 12.5205 20.1642 12.5205 19.75V3.75ZM15.7705 3C16.1847 3 16.5205 3.33579 16.5205 3.75V19.75C16.5205 20.1642 16.1847 20.5 15.7705 20.5C15.3563 20.5 15.0205 20.1642 15.0205 19.75V3.75C15.0205 3.33579 15.3563 3 15.7705 3ZM20.5205 3.75C20.5205 3.33579 20.1847 3 19.7705 3C19.3563 3 19.0205 3.33579 19.0205 3.75V19.75C19.0205 20.1642 19.3563 20.5 19.7705 20.5C20.1847 20.5 20.5205 20.1642 20.5205 19.75V3.75Z" fill="#A7A7A7"/>
</svg>
