<svg width="55" height="47" viewBox="0 0 55 47" fill="none" xmlns="http://www.w3.org/2000/svg">
<path d="M24.8842 32.1074V33.1074V33.6948V33.6951C24.8853 37.3326 24.885 40.9701 24.8835 44.6077C24.8832 45.1028 24.6695 45.3836 24.3214 45.5272L24.321 45.5273C24.0124 45.6548 23.6463 45.61 23.2985 45.265C23.0747 45.043 22.855 44.8221 22.6326 44.5985C22.5061 44.4712 22.3786 44.3431 22.249 44.2133C18.3975 40.3557 14.545 36.4989 10.6916 32.643L10.6911 32.6426C7.93668 29.8901 5.18295 27.1368 2.42998 24.3829L2.42993 24.3829C2.05502 24.0079 1.97613 23.73 1.97597 23.5571C1.97581 23.3845 2.05392 23.1081 2.42609 22.7355L2.42633 22.7353C5.50029 19.6553 8.57514 16.5765 11.6509 13.4988C15.5149 9.63392 19.3787 5.76864 23.2421 1.90301C23.4627 1.68235 23.6475 1.58151 23.7944 1.54172C23.9282 1.50546 24.0976 1.50077 24.3391 1.59402L24.3397 1.59424C24.5388 1.67102 24.6553 1.77769 24.7314 1.90182C24.8131 2.03501 24.884 2.24827 24.884 2.57926V2.60049V2.62173V2.64296V2.66419V2.68543V2.70666V2.72789V2.74913V2.77036V2.79159V2.81283V2.83406V2.85529V2.87652V2.89776V2.91899V2.94022V2.96146V2.98269V3.00392V3.02516V3.04639V3.06762V3.08886V3.11009V3.13132V3.15256V3.17379V3.19502V3.21626V3.23749V3.25872V3.27996V3.30119V3.32242V3.34366V3.36489V3.38612V3.40736V3.42859V3.44982V3.47106V3.49229V3.51352V3.53475V3.55599V3.57722V3.59845V3.61969V3.64092V3.66215V3.68339V3.70462V3.72585V3.74709V3.76832V3.78955V3.81079V3.83202V3.85325V3.87449V3.89572V3.91695V3.93819V3.95942V3.98065V4.00189V4.02312V4.04435V4.06559V4.08682V4.10805V4.12929V4.15052V4.17175V4.19299V4.21422V4.23545V4.25669V4.27792V4.29915V4.32038V4.34162V4.36285V4.38408V4.40532V4.42655V4.44778V4.46902V4.49025V4.51148V4.53272V4.55395V4.57518V4.59642V4.61765V4.63888V4.66012V4.68135V4.70258V4.72382V4.74505V4.76628V4.78752V4.80875V4.82998V4.85122V4.87245V4.89368V4.91492V4.93615V4.95738V4.97862V4.99985V5.02108V5.04232V5.06355V5.08478V5.10602V5.12725V5.14848V5.16972V5.19095V5.21218V5.23342V5.25465V5.27588V5.29712V5.31835V5.33958V5.36082V5.38205V5.40328V5.42452V5.44575V5.46698V5.48822V5.50945V5.53068V5.55192V5.57315V5.59438V5.61562V5.63685V5.65808V5.67932V5.70055V5.72178V5.74302V5.76425V5.78548V5.80672V5.82795V5.84918V5.87042V5.89165V5.91288V5.93412V5.95535V5.97658V5.99782V6.01905V6.04028V6.06152V6.08275V6.10398V6.12522V6.14645V6.16768V6.18892V6.21015V6.23138V6.25262V6.27385V6.29508V6.31632V6.33755V6.35878V6.38002V6.40125V6.42248V6.44372V6.46495V6.48618V6.50742V6.52865V6.54988V6.57112V6.59235V6.61358V6.63482V6.65605V6.67728V6.69852V6.71975V6.74098V6.76222V6.78345V6.80468V6.82592V6.84715V6.86838V6.88962V6.91085V6.93208V6.95332V6.97455V6.99578V7.01702V7.03825V7.05948V7.08072V7.10195V7.12318V7.14442V7.16565V7.18688V7.20812V7.22935V7.25059V7.27182V7.29305V7.31429V7.33552V7.35675V7.37799V7.39922V7.42045V7.44169V7.46292V7.48415V7.50539V7.52662V7.54785V7.56909V7.59032V7.61155V7.63279V7.65402V7.67525V7.69649V7.71772V7.73895V7.76019V7.78142V7.80265V7.82389V7.84512V7.86635V7.88759V7.90882V7.93005V7.95129V7.97252V7.99375V8.01499V8.03622V8.05746V8.07869V8.09992V8.12116V8.14239V8.16362V8.18486V8.20609V8.22732V8.24856V8.26979V8.29102V8.31226V8.33349V8.35472V8.37596V8.39719V8.41842V8.43966V8.46089V8.48212V8.50336V8.52459V8.54583V8.56706V8.58829V8.60953V8.63076V8.65199V8.67323V8.69446V8.71569V8.73693V8.75816V8.77939V8.80063V8.82186V8.84309V8.86433V8.88556V8.90679V8.92803V8.94926V8.97049V8.99173V9.01296V9.03419V9.05543V9.07666V9.0979V9.11913V9.14036V9.1616V9.18283V9.20406V9.2253V9.24653V9.26776V9.289V9.31023V9.33146V9.3527V9.37393V9.39516V9.4164V9.43763V9.45887V9.4801V9.50133V9.52257V9.5438V9.56503V9.58627V9.6075V9.62873V9.64997V9.6712V9.69243V9.71367V9.7349V9.75613V9.77737V9.7986V9.81983V9.84107V9.8623V9.88354V9.90477V9.926V9.94724V9.96847V9.9897V10.0109V10.0322V10.0534V10.0746V10.0959V10.1171V10.1383V10.1596V10.1808V10.202V10.2233V10.2445V10.2657V10.287V10.3082V10.3294V10.3507V10.3719V10.3931V10.4144V10.4356V10.4568V10.4781V10.4993V10.5205V10.5418V10.563V10.5842V10.6055V10.6267V10.6479V10.6692V10.6904V10.7116V10.7329V10.7541V10.7753V10.7966V10.8178V10.839V10.8603V10.8815V10.9027V10.924V10.9452V10.9664V10.9877V11.0089V11.0301V11.0514V11.0726V11.0938V11.1151V11.1363V11.1575V11.1788V11.2V11.2212V11.2425V11.2637V11.285V11.3062V11.3274V11.3487V11.3699V11.3911V11.4124V11.4336V11.4548V11.4761V11.4973V11.5185V11.5398V11.561V11.5822V11.6035V11.6247V11.6459V11.6672V11.6884V11.7096V11.7309V11.7521V11.7733V11.7946V11.8158V11.837V11.8583V11.8795V11.9007V11.922V11.9432V11.9644V11.9857V12.0069V12.0281V12.0494V12.0706V12.0918V12.1131V12.1343V12.1555V12.1768V12.198V12.2192V12.2405V12.2617V12.2829V12.3042V12.3254V12.3466V12.3679V12.3891V12.4103V12.4316V12.4528V12.474V12.4953V12.5165V12.5377V12.559V12.5802V12.6014V12.6227V12.6439V12.6651V12.6864V12.7076V12.7288V12.7501V12.7713V12.7925V12.8138V12.835V12.8562V12.8775V12.8987V12.9199V12.9412V12.9624V12.9836V13.0049V13.0261V13.0473V13.0686V13.0898V13.111V13.1323V13.1535V13.1747V13.196V13.2172V13.2384V13.2597V13.2809V13.3021V13.3234V13.3446V13.3658V13.3871V13.4083V13.4295V13.4508V14.006V15.006H25.884H26.4859H26.486C35.0208 15.0049 43.5555 15.0049 52.0903 15.006H52.0904C52.551 15.006 52.78 15.135 52.8944 15.2496C53.0092 15.3647 53.1386 15.5957 53.1392 16.0589L24.8842 32.1074ZM24.8842 32.1074H25.8842M24.8842 32.1074H25.8842M53.1229 31.1705C53.11 31.3943 53.0378 31.6109 52.9135 31.7981L52.9091 31.8047L52.9091 31.8047C52.7947 31.98 52.5957 32.1118 52.0635 32.1119L53.1229 31.1705ZM53.1229 31.1705C53.1436 28.2398 53.1415 25.3099 53.1393 22.3754C53.1387 21.5183 53.138 20.6608 53.138 19.8028V19.8027C53.138 19.3067 53.1384 18.812 53.1388 18.3177C53.1394 17.5646 53.14 16.8126 53.1392 16.0589L53.1229 31.1705ZM25.8842 32.1074H26.4989M25.8842 32.1074H26.4989M26.4989 32.1074C35.0203 32.1074 43.5417 32.1089 52.0632 32.1119L26.4989 32.1074Z" fill="white" stroke="url(#paint0_linear_845_1031)" stroke-width="2"/>
<defs>
<linearGradient id="paint0_linear_845_1031" x1="54.1433" y1="23.557" x2="0.978068" y2="23.557" gradientUnits="userSpaceOnUse">
<stop stop-color="#656D78"/>
<stop offset="1" stop-color="#2F3640"/>
</linearGradient>
</defs>
</svg>
