<svg width="29" height="28" viewBox="0 0 29 28" fill="none" xmlns="http://www.w3.org/2000/svg">
<path fill-rule="evenodd" clip-rule="evenodd" d="M11.5866 7.00023C11.5866 6.82793 11.6739 6.46229 12.0276 6.13472C12.3694 5.81824 13.0309 5.47476 14.2789 5.47476C15.5269 5.47476 16.1883 5.81824 16.5301 6.13472C16.8839 6.46229 16.9711 6.82793 16.9712 7.00023C16.9712 7.00028 16.9712 7.00034 16.9712 7.0004V8.82016H11.5866V7.0004C11.5866 7.00034 11.5866 7.00028 11.5866 7.00023ZM9.97119 7.00023C9.97124 6.39469 10.2341 5.59389 10.9301 4.94941C11.6383 4.29367 12.7269 3.85938 14.2789 3.85938C15.8309 3.85938 16.9194 4.29367 17.6276 4.94941C18.3237 5.59389 18.5865 6.39469 18.5866 7.00023C18.5866 7.00028 18.5866 7.00034 18.5866 7.0004V8.82016H21.3609C21.807 8.82016 22.1686 9.18178 22.1686 9.62785V20.661C22.1686 21.2953 21.9145 21.9024 21.4643 22.3489C21.0144 22.7952 20.4055 23.0448 19.7719 23.0448H8.64911C8.01558 23.0448 7.40668 22.7952 6.95673 22.3489C6.50655 21.9024 6.25244 21.2953 6.25244 20.661V9.62785C6.25244 9.18178 6.61406 8.82016 7.06013 8.82016H9.97119V7.0004C9.97119 7.00034 9.97119 7.00028 9.97119 7.00023ZM9.97119 12.8336V10.4355H7.86783V20.661C7.86783 20.8627 7.94854 21.0574 8.09434 21.202C8.24037 21.3469 8.4398 21.4294 8.64911 21.4294H19.7719C19.9813 21.4294 20.1807 21.3469 20.3267 21.202C20.4725 21.0574 20.5532 20.8627 20.5532 20.661V10.4355H18.5866V12.8336H16.9712V10.4355H11.5866V12.8336H9.97119Z" fill="#121212"/>
</svg>
