<svg width="19" height="18" viewBox="0 0 19 18" fill="none" xmlns="http://www.w3.org/2000/svg">
<path fill-rule="evenodd" clip-rule="evenodd" d="M4.20426 4.8267C4.3292 4.58627 4.58052 4.42204 4.8702 4.42204H15.3702C15.6599 4.42204 15.9112 4.58627 16.0361 4.8267L10.1202 8.77066L4.20426 4.8267ZM2.62024 5.15767C2.62009 5.16588 2.62008 5.17409 2.6202 5.1823V12.672C2.6202 13.9147 3.62756 14.922 4.8702 14.922H15.3702C16.6128 14.922 17.6202 13.9147 17.6202 12.672V5.18232M16.1202 6.57343V12.672C16.1202 13.0863 15.7844 13.422 15.3702 13.422H4.8702C4.45598 13.422 4.1202 13.0863 4.1202 12.672V6.57343L9.70417 10.2961C9.9561 10.464 10.2843 10.464 10.5362 10.2961L16.1202 6.57343ZM17.6202 5.15765C17.6124 3.92163 16.608 2.92204 15.3702 2.92204H4.8702C3.63235 2.92204 2.62798 3.92164 2.62024 5.15767" fill="#121212"/>
</svg>
