<svg width="50" height="49" viewBox="0 0 50 49" fill="none" xmlns="http://www.w3.org/2000/svg">
<path d="M40.965 6.16699H8.37294C7.24648 6.16699 6.33594 7.07957 6.33594 8.20399V40.796C6.33594 41.9205 7.24648 42.833 8.37294 42.833H25.9217V28.6555H21.1592V23.1047H25.9217V19.0307C25.9217 14.2946 28.8143 11.7137 33.0512 11.7137C34.4751 11.7097 35.901 11.783 37.3187 11.9317V16.8613H34.3956C32.0979 16.8613 31.6498 17.9572 31.6498 19.5603V23.0945H37.1436L36.4306 28.6453H31.6477V42.833H40.965C42.0914 42.833 43.002 41.9205 43.002 40.796V8.20399C43.002 7.07957 42.0914 6.16699 40.965 6.16699Z" fill="#33354D"/>
</svg>
