<svg width="674" height="392" viewBox="0 0 674 392" fill="none" xmlns="http://www.w3.org/2000/svg">
<g clip-path="url(#clip0_454_12050)">
<path d="M432.481 24.8955H179.293C170.603 24.8955 163.559 31.951 163.559 40.6544V375.61C163.559 384.313 170.603 391.369 179.293 391.369H432.481C441.171 391.369 448.216 384.313 448.216 375.61V40.6544C448.216 31.951 441.171 24.8955 432.481 24.8955Z" fill="#1D2238"/>
<path d="M430.484 46.7163H181.289V369.548H430.484V46.7163Z" fill="white"/>
<path d="M325.202 19.1419C325.091 8.55099 316.49 0 305.888 0C295.285 0 286.684 8.55099 286.573 19.1419H268.676V49.7912H343.094V19.1419H325.197H325.202ZM305.888 22.2043C302.124 22.2043 299.074 19.1495 299.074 15.3802C299.074 11.6109 302.124 8.55604 305.888 8.55604C309.651 8.55604 312.701 11.6109 312.701 15.3802C312.701 19.1495 309.651 22.2043 305.888 22.2043Z" fill="#F0C36A"/>
<path d="M420.306 80.4302H251.633V90.7484H420.306V80.4302Z" fill="#F1F2F5"/>
<path d="M420.306 100.582H251.633V110.9H420.306V100.582Z" fill="#F1F2F5"/>
<path d="M333.836 120.731H251.633V131.049H333.836V120.731Z" fill="#F1F2F5"/>
<path d="M244.607 131.807H197.168V79.6729H244.607V131.807ZM198.68 130.292H243.094V81.1876H198.68V130.292Z" fill="#9EA9BD"/>
<path d="M214.542 89.6581L225.659 105.147L256.309 76.2749L261.751 83.3136L224.071 119.373L207.824 95.7829L214.542 89.6581Z" fill="#EDB248"/>
<path d="M420.306 146.915H251.633V157.233H420.306V146.915Z" fill="#F1F2F5"/>
<path d="M420.306 167.064H251.633V177.382H420.306V167.064Z" fill="#F1F2F5"/>
<path d="M333.836 187.215H251.633V197.534H333.836V187.215Z" fill="#F1F2F5"/>
<path d="M244.607 198.291H197.168V146.157H244.607V198.291ZM198.68 196.776H243.094V147.672H198.68V196.776Z" fill="#9EA9BD"/>
<path d="M214.542 156.142L225.659 171.631L256.309 142.759L261.751 149.798L224.071 185.855L207.824 162.264L214.542 156.142Z" fill="#EDB248"/>
<path d="M420.306 213.398H251.633V223.717H420.306V213.398Z" fill="#F1F2F5"/>
<path d="M420.306 233.548H251.633V243.866H420.306V233.548Z" fill="#F1F2F5"/>
<path d="M333.836 253.697H251.633V264.015H333.836V253.697Z" fill="#F1F2F5"/>
<path d="M244.607 264.775H197.168V212.641H244.607V264.775ZM198.68 263.26H243.094V214.156H198.68V263.26Z" fill="#9EA9BD"/>
<path d="M214.542 222.626L225.659 238.115L256.309 209.241L261.751 216.282L224.071 252.339L207.824 228.749L214.542 222.626Z" fill="#EDB248"/>
<path d="M420.306 279.88H251.633V290.199H420.306V279.88Z" fill="#F1F2F5"/>
<path d="M420.306 300.032H251.633V310.35H420.306V300.032Z" fill="#F1F2F5"/>
<path d="M333.836 320.181H251.633V330.499H333.836V320.181Z" fill="#F1F2F5"/>
<path d="M244.607 331.257H197.168V279.123H244.607V331.257ZM198.68 329.742H243.094V280.638H198.68V329.742Z" fill="#9EA9BD"/>
<path d="M214.542 289.11L225.659 304.597L256.309 275.725L261.751 282.763L224.071 318.823L207.824 295.233L214.542 289.11Z" fill="#EDB248"/>
<path d="M573.775 312.562H495.422V391.369H573.775V312.562Z" fill="#9EA9BD"/>
<path d="M539.32 312.562H529.875V325.041H539.32V312.562Z" fill="#1D2238"/>
<path d="M629.877 312.562H573.777V391.369H629.877V312.562Z" fill="#D2D6E1"/>
<path d="M605.42 312.562H598.238V325.041H605.42V312.562Z" fill="#1D2238"/>
<path d="M558.674 161.742H480.32V312.564H558.674V161.742Z" fill="#EDB248"/>
<path d="M524.223 161.742H514.777V185.622H524.223V161.742Z" fill="#1D2238"/>
<path d="M614.776 161.742H558.676V312.564H614.776V161.742Z" fill="#F0C36A"/>
<path d="M590.318 161.742H583.137V185.622H590.318V161.742Z" fill="#1D2238"/>
<path d="M449.352 312.562H348.578V391.369H449.352V312.562Z" fill="#F0C36A"/>
<path d="M405.036 312.562H392.891V325.041H405.036V312.562Z" fill="#1D2238"/>
<path d="M516.034 312.562H449.352V391.369H516.034V312.562Z" fill="#F6DBA6"/>
<path d="M490.723 312.562H478.578V325.041H490.723V312.562Z" fill="#1D2238"/>
<path d="M439.318 233.755H360.965V312.562H439.318V233.755Z" fill="#D2D6E1"/>
<path d="M404.867 233.755H395.422V246.234H404.867V233.755Z" fill="#1D2238"/>
<path d="M495.42 233.755H439.32V312.562H495.42V233.755Z" fill="#F1F2F5"/>
<path d="M470.963 233.755H463.781V246.234H470.963V233.755Z" fill="#1D2238"/>
<path d="M674 390.738H0V392H674V390.738Z" fill="#1D2238"/>
<path d="M125.752 158.947L123.153 160.689L109.299 139.939C108.82 139.219 109.011 138.247 109.73 137.765C110.448 137.285 111.419 137.477 111.9 138.197L125.754 158.947H125.752Z" fill="#1D2238"/>
<path d="M112.023 164.413C112.023 164.413 113.095 155.498 115.321 155.087C117.546 154.675 124.138 154.839 125.457 155.087C126.775 155.334 130.4 157.644 131.144 159.957L117.052 173.658L112.026 164.415L112.023 164.413Z" fill="#EB9481"/>
<path d="M99.0313 89.5317C99.0313 89.5317 101.834 92.9905 102.702 97.8782C103.047 99.8222 102.472 101.799 100.758 102.779L91.1992 89.5317H99.0338H99.0313Z" fill="#1D2238"/>
<path d="M85.4235 87.1914C77.2259 87.1914 70.513 93.5384 69.908 101.595L69.782 101.574L66.4168 122.605C65.6756 127.235 68.8216 131.59 73.4447 132.332C78.0678 133.074 81.6121 134.39 83.1573 125.293L83.3968 123.801C84.0597 123.887 84.7378 123.938 85.4235 123.938C94.0194 123.938 100.989 116.96 100.989 108.348V102.781C100.989 94.1721 94.0219 87.1914 85.4235 87.1914Z" fill="#EB9481"/>
<path d="M94.9206 100.13C95.0467 100.539 95.1374 100.946 95.2156 101.355C95.261 101.559 95.2862 101.764 95.3189 101.968C95.3517 102.173 95.3845 102.377 95.4046 102.582C95.4525 102.991 95.4979 103.397 95.5181 103.806L95.5584 104.419L95.571 105.033L94.8803 104.341C95.14 104.339 95.3996 104.324 95.6592 104.329C95.7928 104.334 95.8937 104.329 96.1205 104.349C96.3172 104.374 96.5087 104.427 96.6902 104.503C97.4313 104.806 97.88 105.611 97.8322 106.363C97.8019 106.74 97.6607 107.098 97.4389 107.381C97.2146 107.664 96.902 107.856 96.5768 107.951C96.4129 107.999 96.2441 108.012 96.0827 108.004C95.9088 107.992 95.7928 107.962 95.6592 107.936C95.3996 107.878 95.14 107.813 94.8803 107.732H94.8702C94.8501 107.722 94.8375 107.701 94.845 107.681C94.8501 107.666 94.8652 107.654 94.8803 107.654L95.6592 107.643C95.7878 107.643 95.9214 107.643 96.0424 107.631C96.1659 107.613 96.2869 107.58 96.4003 107.535C96.8617 107.343 97.1793 106.861 97.1717 106.363C97.1742 105.866 96.8541 105.389 96.3953 105.205C96.2819 105.159 96.1609 105.129 96.0399 105.116C95.9214 105.109 95.7878 105.111 95.6592 105.111H94.8803L94.8047 105.109V105.033C94.8173 103.399 94.8122 101.766 94.8425 100.133C94.8425 100.112 94.8601 100.095 94.8803 100.095C94.898 100.095 94.9106 100.107 94.9156 100.122V100.133L94.9206 100.13Z" fill="#1D2238"/>
<path d="M98.14 101.329C98.7373 101.329 99.2214 100.844 99.2214 100.246C99.2214 99.648 98.7373 99.1631 98.14 99.1631C97.5428 99.1631 97.0586 99.648 97.0586 100.246C97.0586 100.844 97.5428 101.329 98.14 101.329Z" fill="#1D2238"/>
<path d="M97.2433 111.193C97.2433 111.193 95.451 108.58 90.2305 108.648L97.2433 111.193Z" fill="white"/>
<path d="M95.418 95.8811C95.3197 96.2851 96.1566 96.8329 97.2884 97.1081C98.4177 97.3833 99.4135 97.2772 99.5118 96.8733C99.6101 96.4693 98.7732 95.9215 97.6413 95.6463C96.512 95.3711 95.5163 95.4772 95.418 95.8811Z" fill="#1D2238"/>
<path d="M91.8783 101.832C92.4755 101.832 92.9597 101.347 92.9597 100.749C92.9597 100.15 92.4755 99.6655 91.8783 99.6655C91.281 99.6655 90.7969 100.15 90.7969 100.749C90.7969 101.347 91.281 101.832 91.8783 101.832Z" fill="#1D2238"/>
<path d="M89.1611 97.4062C89.2644 97.8076 90.2601 97.8985 91.3869 97.6056C92.5137 97.3153 93.3405 96.7523 93.2372 96.3509C93.1338 95.9495 92.1381 95.8586 91.0113 96.1514C89.8845 96.4418 89.0577 97.0048 89.1611 97.4062Z" fill="#1D2238"/>
<path d="M98.2941 111.925C97.5026 111.865 96.7514 111.703 96.0128 111.509C95.6397 111.421 95.2818 111.294 94.9163 111.186C94.5558 111.065 94.1978 110.933 93.8399 110.807C93.4895 110.661 93.1341 110.524 92.7837 110.373C92.4383 110.211 92.088 110.065 91.7502 109.883C91.067 109.537 90.399 109.158 89.7688 108.676L89.7613 108.671C89.7487 108.661 89.7461 108.641 89.7562 108.628C89.7638 108.618 89.7789 108.613 89.7915 108.618L94.0668 110.214L98.3193 111.867C98.3345 111.872 98.3445 111.893 98.337 111.908C98.3319 111.92 98.3193 111.928 98.3067 111.928H98.2966L98.2941 111.925Z" fill="#1D2238"/>
<path d="M67.6677 103.147C67.6677 103.147 81.2245 91.1827 94.3503 91.1852C94.3503 91.1852 100.083 90.9328 102.2 95.7953C102.2 95.7953 99.6741 75.9364 77.7584 79.284C55.8427 82.6317 64.5848 105.046 64.5848 105.046L67.6652 103.147H67.6677Z" fill="#F0C36A"/>
<path d="M83.1109 93.6318C83.1109 93.6318 80.4414 96.8785 74.8629 102.781C73.4841 104.24 71.0944 106.26 71.0944 106.26C71.0944 106.26 71.6691 103.208 70.6406 100.979C70.6406 100.979 76.872 95.9419 83.1109 93.6318Z" fill="#1D2238"/>
<path d="M91.7265 90.895C91.7265 90.895 93.4431 94.0079 97.8167 94.2225C97.8167 94.2225 90.8265 96.5225 88.1016 91.6549L91.7265 90.895Z" fill="#1D2238"/>
<path d="M68.7906 108.115L67.7596 114.213L64.5859 105.046L69.9073 101.592L68.7906 108.115Z" fill="#1D2238"/>
<path d="M68.6449 107.749C70.3559 107.749 71.743 106.03 71.743 103.909C71.743 101.789 70.3559 100.069 68.6449 100.069C66.9339 100.069 65.5469 101.789 65.5469 103.909C65.5469 106.03 66.9339 107.749 68.6449 107.749Z" fill="#EB9481"/>
<path d="M70.4187 102.859C70.1339 102.627 69.8591 102.453 69.5818 102.379C69.4482 102.337 69.3171 102.316 69.1936 102.321C69.0726 102.326 68.9592 102.332 68.8533 102.374C68.4475 102.516 68.1424 102.864 67.9635 103.324C67.913 103.435 67.8853 103.558 67.8551 103.68C67.845 103.743 67.8299 103.803 67.8223 103.869L67.8122 103.965L67.8021 104.033C67.7971 104.056 67.7996 104.048 67.7946 104.056C67.7921 104.046 67.7845 104.041 67.7668 104.013C67.7391 103.957 67.6206 103.884 67.5727 103.887C67.4795 103.892 67.6232 103.927 67.7517 103.909C68.029 103.877 68.3819 103.801 68.7348 103.748C69.0903 103.71 69.4885 103.654 69.8591 103.793L69.8717 103.798C69.8919 103.806 69.9019 103.829 69.8944 103.849C69.8893 103.864 69.8742 103.874 69.8591 103.874C69.5264 103.889 69.2012 104.018 68.8861 104.144C68.5684 104.268 68.2534 104.412 67.9156 104.513C67.7467 104.558 67.5677 104.606 67.3711 104.553C67.2728 104.528 67.182 104.455 67.1341 104.364C67.0837 104.275 67.0686 104.177 67.061 104.086C67.0459 103.728 67.1014 103.374 67.2299 103.043C67.3585 102.713 67.5601 102.407 67.8299 102.172C68.0945 101.938 68.4399 101.776 68.7978 101.753C69.1558 101.721 69.5188 101.829 69.8137 102.026C70.1061 102.228 70.333 102.513 70.4868 102.826C70.4969 102.844 70.4868 102.867 70.4691 102.877C70.4565 102.884 70.4389 102.882 70.4288 102.872L70.4162 102.862L70.4187 102.859Z" fill="#1D2238"/>
<path d="M85.9961 92.5862C85.9961 92.5862 95.2953 80.1043 106.535 83.1213C117.776 86.1382 102.202 95.795 102.202 95.795C102.202 95.795 97.8715 88.4862 85.9961 92.5862Z" fill="#F1F2F5"/>
<path d="M76.7781 79.8826C76.8839 80.4304 75.7143 81.1197 74.164 81.4201C72.6137 81.7205 71.2727 81.5186 71.1668 80.9707C71.0609 80.4229 72.2306 79.7336 73.7809 79.4332C75.3311 79.1328 76.6722 79.3347 76.7781 79.8826Z" fill="#1D2238"/>
<path d="M83.3984 123.798C83.3984 123.798 80.0407 121.973 76.4688 118.33C76.4688 118.33 77.9661 123.533 83.1614 125.291L83.4009 123.798H83.3984Z" fill="#1D2238"/>
<path d="M109.62 372.204L133.176 382.492C136.69 384.027 138.936 387.531 138.866 391.371L87.6484 391.26L90.3734 372.164L109.62 372.207V372.204Z" fill="#4A4E60"/>
<path d="M87.6562 387.854C91.876 388.099 96.0933 388.23 100.313 388.324C102.423 388.382 104.533 388.397 106.643 388.432L112.972 388.478L119.302 388.463C121.412 388.435 123.522 388.43 125.632 388.382C129.852 388.309 134.071 388.193 138.291 387.965C134.071 387.72 129.854 387.587 125.634 387.496C123.525 387.438 121.415 387.423 119.305 387.387L112.975 387.344L106.645 387.362C104.535 387.387 102.426 387.395 100.316 387.443C96.0958 387.516 91.876 387.632 87.6562 387.857V387.854Z" fill="#1D2238"/>
<path d="M101.76 383.574C103.577 381.755 103.577 378.806 101.76 376.987C99.9442 375.168 96.9994 375.168 95.1832 376.987C93.3669 378.806 93.3669 381.755 95.1832 383.574C96.9995 385.393 99.9442 385.393 101.76 383.574Z" fill="#1D2238"/>
<path d="M129.998 380.631C129.393 380.381 128.811 380.379 128.259 380.467C127.707 380.563 127.183 380.775 126.711 381.083C126.24 381.388 125.829 381.813 125.524 382.307C125.224 382.807 125.04 383.408 125.121 384.047L125.219 384.102C125.368 383.9 125.491 383.686 125.663 383.504C125.743 383.411 125.816 383.307 125.902 383.219L126.162 382.951C126.522 382.61 126.91 382.297 127.334 382.032C127.747 381.757 128.183 381.51 128.635 381.298C128.861 381.191 129.091 381.093 129.323 381.002C129.552 380.906 129.789 380.818 130.026 380.742L129.998 380.631Z" fill="#1D2238"/>
<path d="M123.987 378.061C123.382 377.811 122.799 377.809 122.247 377.897C121.695 377.993 121.171 378.205 120.699 378.513C120.228 378.819 119.817 379.243 119.512 379.738C119.212 380.237 119.028 380.838 119.109 381.477L119.207 381.533C119.356 381.331 119.479 381.116 119.651 380.934C119.731 380.841 119.805 380.737 119.89 380.649L120.15 380.381C120.51 380.041 120.899 379.727 121.322 379.462C121.736 379.187 122.172 378.94 122.623 378.728C122.85 378.622 123.079 378.523 123.311 378.432C123.54 378.336 123.777 378.248 124.014 378.172L123.987 378.061Z" fill="#1D2238"/>
<path d="M118.424 375.728C117.819 375.478 117.237 375.476 116.685 375.564C116.133 375.66 115.608 375.872 115.137 376.18C114.666 376.486 114.255 376.91 113.95 377.405C113.65 377.904 113.466 378.505 113.546 379.144L113.645 379.2C113.793 378.998 113.917 378.783 114.088 378.601C114.169 378.508 114.242 378.404 114.328 378.316L114.587 378.048C114.948 377.708 115.336 377.394 115.76 377.129C116.173 376.854 116.609 376.607 117.06 376.395C117.287 376.289 117.517 376.19 117.748 376.099C117.978 376.003 118.215 375.915 118.452 375.839L118.424 375.728Z" fill="#1D2238"/>
<path d="M78.9243 372.204L102.481 382.492C105.995 384.027 108.241 387.531 108.17 391.371L56.9531 391.26L59.6781 372.164L78.9243 372.207V372.204Z" fill="#9EA9BD"/>
<path d="M56.9609 387.854C61.1807 388.099 65.398 388.23 69.6178 388.324C71.7277 388.382 73.8376 388.397 75.9475 388.432L82.2772 388.478L88.6069 388.463C90.7168 388.435 92.8267 388.43 94.9366 388.382C99.1564 388.309 103.376 388.193 107.596 387.965C103.376 387.72 99.1589 387.587 94.9391 387.496C92.8292 387.438 90.7193 387.423 88.6094 387.387L82.2797 387.344L75.95 387.362C73.8401 387.387 71.7302 387.395 69.6203 387.443C65.4005 387.516 61.1807 387.632 56.9609 387.857V387.854Z" fill="#1D2238"/>
<path d="M71.0652 383.573C72.8814 381.754 72.8814 378.805 71.0652 376.986C69.2489 375.167 66.3041 375.167 64.4879 376.986C62.6716 378.805 62.6716 381.754 64.4879 383.573C66.3041 385.393 69.2489 385.393 71.0652 383.573Z" fill="#1D2238"/>
<path d="M99.303 380.631C98.698 380.381 98.1157 380.379 97.5636 380.467C97.0116 380.563 96.4873 380.775 96.0159 381.083C95.5445 381.388 95.1336 381.813 94.8286 382.307C94.5286 382.807 94.3446 383.408 94.4253 384.047L94.5236 384.102C94.6723 383.9 94.7958 383.686 94.9672 383.504C95.0479 383.411 95.121 383.307 95.2067 383.219L95.4663 382.951C95.8268 382.61 96.215 382.297 96.6385 382.032C97.0519 381.757 97.488 381.51 97.9392 381.298C98.1661 381.191 98.3955 381.093 98.6274 381.002C98.8568 380.906 99.0938 380.818 99.3307 380.742L99.303 380.631Z" fill="#1D2238"/>
<path d="M93.2912 378.061C92.6863 377.811 92.104 377.809 91.5519 377.897C90.9999 377.993 90.4755 378.205 90.0041 378.513C89.5328 378.819 89.1219 379.243 88.8169 379.738C88.5169 380.237 88.3329 380.838 88.4135 381.477L88.5118 381.533C88.6606 381.331 88.7841 381.116 88.9555 380.934C89.0362 380.841 89.1093 380.737 89.195 380.649L89.4546 380.381C89.8151 380.041 90.2033 379.727 90.6268 379.462C91.0402 379.187 91.4763 378.94 91.9275 378.728C92.1544 378.622 92.3838 378.523 92.6157 378.432C92.8451 378.336 93.082 378.248 93.319 378.172L93.2912 378.061Z" fill="#1D2238"/>
<path d="M87.7288 375.728C87.1238 375.478 86.5415 375.476 85.9894 375.564C85.4374 375.66 84.913 375.872 84.4416 376.18C83.9703 376.486 83.5594 376.91 83.2544 377.405C82.9544 377.904 82.7704 378.505 82.851 379.144L82.9493 379.2C83.0981 378.998 83.2216 378.783 83.393 378.601C83.4737 378.508 83.5468 378.404 83.6325 378.316L83.8921 378.048C84.2526 377.708 84.6408 377.394 85.0643 377.129C85.4777 376.854 85.9138 376.607 86.365 376.395C86.5919 376.289 86.8213 376.19 87.0532 376.099C87.2826 376.003 87.5195 375.915 87.7565 375.839L87.7288 375.728Z" fill="#1D2238"/>
<path d="M117.763 372.01L113.163 277.409C113.034 274.75 112.719 272.104 112.223 269.491L102.45 218.077L43.2086 213.437C43.2086 213.437 37.3906 237.138 49.3114 259.953L55.4495 372.762L87.0652 372.56L87.0602 372.207L117.763 372.012V372.01Z" fill="#1D2238"/>
<path d="M82.3137 221.174L82.717 225.893L83.0926 230.614L83.8438 240.059L85.2226 258.958L85.5655 263.685L85.878 268.411L86.5007 277.866L87.7434 296.773L87.814 297.954C87.8342 298.348 87.8165 298.744 87.8216 299.138L87.814 301.506L87.7989 306.243L87.7661 315.718L87.7333 325.193L87.7132 329.929L87.6628 334.665L87.4611 353.613L87.2998 363.085L87.2191 367.821L87.1107 372.558H87.025L87.0048 334.675L86.9948 315.735L86.9897 306.265V301.529L86.9847 299.161C86.9796 298.767 86.9948 298.371 86.9721 297.977L86.899 296.795L82.2305 221.174L82.3162 221.169L82.3137 221.174Z" fill="#4A4E60"/>
<path d="M128.977 189.346L120.857 176.69L102.105 181.775L97.1973 148.114C97.1494 147.753 97.104 147.447 97.0637 147.205C95.8361 139.8 82.7557 126.919 82.7557 126.919L79.8669 129.898L66.421 122.604C66.421 122.604 55.2439 127.103 48.3772 135.831C41.5106 144.559 43.2096 213.436 43.2096 213.436C43.2096 213.436 57.0916 224.701 67.1344 226.552C77.1772 228.402 103.53 221.172 103.53 221.172C103.53 221.172 103.076 215.39 102.4 207.049L128.972 189.344L128.977 189.346Z" fill="#F0C36A"/>
<path d="M79.8634 129.898L73.5312 135.341C72.4977 136.228 70.9726 136.24 69.9366 135.359C67.0124 132.877 61.8221 127.777 63.4556 123.998L66.4201 122.604L79.8659 129.898H79.8634Z" fill="white"/>
<path d="M79.8633 129.898L82.9916 133.276C83.8411 134.192 85.3334 134.013 85.9434 132.923L86.861 131.279L82.7521 126.919L79.8633 129.898Z" fill="white"/>
<path d="M63.1448 144.488L74.8336 177.955L111.191 159.517L116.943 173.648L84.5866 200.465C81.5112 203.012 77.7326 204.557 73.7573 204.89C67.0091 205.456 60.4501 202.487 56.4193 197.039C50.9417 189.634 44.0045 179.487 43.3012 174.733C42.1239 166.773 36.1245 151.605 48.3755 135.833L63.1423 144.491L63.1448 144.488Z" fill="#F0C36A"/>
<path d="M98.9372 165.743C96.9684 166.841 94.9921 167.919 93.0083 168.984C91.0269 170.057 89.0355 171.108 87.0466 172.163C85.0502 173.206 83.0638 174.264 81.0597 175.294C79.0582 176.326 77.0643 177.369 75.0552 178.389L74.4855 178.677L74.3545 178.048C74.0545 176.604 73.7243 175.155 73.384 173.713C73.0436 172.269 72.7008 170.827 72.3378 169.391C71.6043 166.518 70.8405 163.652 69.9834 160.815C69.1364 157.974 68.2113 155.159 67.1425 152.398C66.603 151.019 66.0333 149.653 65.3805 148.323C64.7326 146.992 64.0192 145.69 63.1445 144.488C64.1176 145.614 64.9292 146.879 65.6653 148.174C66.3888 149.479 67.0543 150.82 67.6517 152.185C68.8591 154.917 69.8725 157.725 70.8027 160.557C71.7152 163.395 72.5521 166.258 73.2907 169.144C74.0444 172.029 74.72 174.925 75.3124 177.854L74.6116 177.513C76.6206 176.495 78.6423 175.503 80.6589 174.503C82.6731 173.499 84.7023 172.522 86.724 171.529C88.7507 170.55 90.7774 169.565 92.8142 168.603C94.8484 167.634 96.8878 166.679 98.9372 165.74V165.743Z" fill="#1D2238"/>
<path d="M43.3047 174.731L44.5172 176.927L45.7146 179.131C46.5162 180.598 47.3203 182.065 48.1345 183.522C48.9437 184.984 49.7554 186.443 50.5872 187.892L51.8375 190.061C52.256 190.788 52.6694 191.517 53.0752 192.247C54.7112 195.153 56.3145 198.094 58.5151 200.518C59.0747 201.109 59.6444 201.692 60.2771 202.192C60.5822 202.457 60.9174 202.681 61.2426 202.919C61.5829 203.131 61.9182 203.355 62.2761 203.54C63.6878 204.317 65.2481 204.812 66.8438 205.077C70.0477 205.615 73.3852 205.226 76.5059 204.257C78.0714 203.772 79.5889 203.133 81.0308 202.348C81.7492 201.952 82.4474 201.523 83.1205 201.058C83.7935 200.591 84.4263 200.078 85.0791 199.548C87.673 197.443 90.2795 195.352 92.8911 193.264L96.8235 190.154L98.7897 188.599L100.769 187.059L98.888 188.718L96.9949 190.361L93.2087 193.646C90.6728 195.824 88.1343 197.996 85.5833 200.154C84.9531 200.692 84.3002 201.247 83.612 201.75C82.9188 202.245 82.2004 202.702 81.4618 203.123C79.9796 203.959 78.4142 204.643 76.7984 205.171C75.18 205.693 73.5037 206.047 71.8047 206.218C70.1057 206.383 68.3815 206.357 66.6824 206.077C64.991 205.787 63.3222 205.251 61.8073 204.411C61.4241 204.211 61.0636 203.969 60.6981 203.737C60.3477 203.482 59.9898 203.237 59.6646 202.952C58.989 202.411 58.3865 201.795 57.8118 201.162C56.6825 199.874 55.707 198.475 54.8373 197.031C53.9575 195.59 53.171 194.105 52.3896 192.628C51.9989 191.888 51.6082 191.154 51.2074 190.424C50.804 189.69 50.4032 188.955 50.0125 188.215C49.2285 186.736 48.4572 185.251 47.7035 183.759C46.9548 182.265 46.2162 180.762 45.4826 179.26L44.3861 177.003L43.3097 174.739L43.3047 174.731Z" fill="#1D2238"/>
<path d="M70.5927 190.03C70.5019 189.727 70.4313 189.419 70.3658 189.109C70.3028 188.798 70.2246 188.485 70.207 188.17C70.1591 187.538 70.0986 186.897 70.1566 186.261C70.1994 184.981 70.5044 183.714 70.9405 182.507C71.3791 181.295 72.032 180.169 72.821 179.162C73.6151 178.164 74.5629 177.266 75.6998 176.688C74.9889 177.733 74.3713 178.763 73.8117 179.818C73.2571 180.871 72.7555 181.936 72.3547 183.04C71.9564 184.143 71.5808 185.261 71.3287 186.428C71.1624 187.006 71.0842 187.599 70.9431 188.195C70.817 188.793 70.7489 189.402 70.5901 190.028L70.5927 190.03Z" fill="#1D2238"/>
<path d="M120.536 186.725L105.527 180.444C104.592 180.053 104.375 178.823 105.119 178.134L143.836 142.218C144.516 141.587 145.608 141.787 146.024 142.615L154.219 158.896C154.531 159.517 154.373 160.27 153.836 160.711L122.467 186.443C121.925 186.887 121.184 186.996 120.539 186.725H120.536Z" fill="#4A4E60"/>
<path d="M102.205 207.183C101.96 205.638 101.761 204.093 101.582 202.543C101.489 201.768 101.406 200.995 101.328 200.217C101.247 199.442 101.166 198.667 101.101 197.892C100.952 196.342 100.836 194.789 100.718 193.237C100.652 192.462 100.614 191.682 100.561 190.906C100.514 190.129 100.458 189.354 100.423 188.574L100.41 188.268L100.657 188.134C101.418 187.72 102.175 187.296 102.941 186.89C103.707 186.486 104.469 186.069 105.242 185.675C106.014 185.276 106.785 184.88 107.564 184.494C108.341 184.105 109.125 183.726 109.914 183.363C109.2 183.86 108.479 184.347 107.751 184.822C107.025 185.302 106.294 185.766 105.56 186.231C104.829 186.7 104.085 187.147 103.349 187.604C102.611 188.061 101.865 188.5 101.121 188.95L101.355 188.511C101.431 189.286 101.484 190.063 101.545 190.838C101.6 191.616 101.671 192.391 101.716 193.169C101.817 194.724 101.918 196.276 101.991 197.834C102.034 198.612 102.066 199.389 102.094 200.169C102.127 200.947 102.152 201.727 102.17 202.507C102.213 204.065 102.233 205.625 102.205 207.188V207.183Z" fill="#1D2238"/>
<path d="M139.967 174.539C139.909 174.153 139.8 173.764 139.707 173.39C139.513 172.613 139.329 171.833 139.14 171.052C138.878 169.969 138.613 168.884 138.351 167.801C138.084 166.697 136.972 166.021 135.871 166.288C134.769 166.556 134.093 167.669 134.361 168.773L134.436 169.083C133.952 168.672 133.287 168.49 132.624 168.652C131.522 168.919 130.847 170.032 131.114 171.136C131.197 171.477 131.28 171.82 131.363 172.161C131.318 172.052 131.225 171.971 131.126 171.903C130.463 171.451 129.362 171.56 128.923 172.282C128.659 172.714 128.744 173.214 128.78 173.693C128.938 175.877 129.256 178.058 129.493 180.237L125.5 183.956L126.413 185.382C127.237 185.097 128.001 184.936 128.825 184.65C129.921 184.272 131.046 183.966 132.107 183.491C132.954 183.115 133.68 182.577 134.381 181.979C135.729 180.828 136.939 179.513 138.086 178.164C138.613 177.546 139.132 176.917 139.624 176.268C140.025 175.738 140.055 175.142 139.964 174.544L139.967 174.539Z" fill="#EB9481"/>
<path d="M129.492 180.234C129.492 180.234 129.043 181.956 129.887 183.224C129.887 183.224 128.405 182.878 128.922 180.765L129.492 180.234Z" fill="#1D2238"/>
<path d="M134.438 169.083C135.005 169.53 135.451 170.156 135.665 170.863C135.887 171.555 136.061 172.254 136.24 172.953C136.411 173.655 136.578 174.357 136.724 175.064L136.941 176.124C137.004 176.48 137.074 176.834 137.13 177.192C137.019 176.849 136.926 176.501 136.822 176.155L136.537 175.11C136.348 174.413 136.174 173.713 135.998 173.014L135.484 170.916C135.4 170.57 135.264 170.245 135.085 169.936C134.909 169.626 134.692 169.338 134.443 169.078L134.438 169.083Z" fill="#1D2238"/>
<path d="M131.363 172.163C131.898 172.504 132.389 173.001 132.571 173.655C132.755 174.276 132.886 174.902 133.019 175.528C133.145 176.157 133.269 176.786 133.37 177.417L133.521 178.366C133.561 178.684 133.609 179 133.642 179.32C133.554 179.012 133.481 178.699 133.4 178.389L133.181 177.455C133.035 176.831 132.906 176.205 132.772 175.579C132.644 174.953 132.52 174.324 132.384 173.706C132.321 173.4 132.185 173.122 132.001 172.867C131.825 172.607 131.603 172.375 131.363 172.163Z" fill="#1D2238"/>
<path d="M107.355 177.955C108.843 176.498 110.358 175.067 111.863 173.63C113.365 172.189 114.888 170.767 116.403 169.343L120.975 165.092L125.573 160.868C128.654 158.068 131.731 155.266 134.835 152.491L137.159 150.406L139.495 148.333C141.051 146.95 142.609 145.571 144.177 144.203L144.555 143.872L144.774 144.309L146.549 147.836L148.306 151.373L150.04 154.922C150.622 156.104 151.192 157.291 151.757 158.48C151.101 157.339 150.451 156.192 149.813 155.041L147.887 151.592L145.984 148.131L144.098 144.662L144.696 144.768C143.173 146.187 141.643 147.598 140.108 149.005L137.809 151.115L135.498 153.213C132.422 156.018 129.319 158.793 126.219 161.57L121.547 165.713L116.851 169.828C115.278 171.191 113.71 172.56 112.122 173.908C110.539 175.259 108.961 176.617 107.358 177.95L107.355 177.955Z" fill="#1D2238"/>
</g>
<defs>
<clipPath id="clip0_454_12050">
<rect width="674" height="392" fill="white"/>
</clipPath>
</defs>
</svg>
