<svg width="650" height="401" viewBox="0 0 650 401" fill="none" xmlns="http://www.w3.org/2000/svg">
<g clip-path="url(#clip0_454_12793)">
<path fill-rule="evenodd" clip-rule="evenodd" d="M308.22 336.827C306.613 371.744 302.357 380.574 272.871 400.47H403.582C374.096 380.574 369.84 371.744 368.233 336.827L338.225 333.989L308.218 336.827H308.22Z" fill="#B1D2FC"/>
<path fill-rule="evenodd" clip-rule="evenodd" d="M163.643 60.7275H515.072C527.669 60.7275 537.977 72.21 537.977 86.2419V312.01V315.259C537.977 329.29 527.669 340.773 515.072 340.773H163.643C151.045 340.773 140.738 329.29 140.738 315.259V86.2445C140.738 72.2127 151.045 60.7302 163.643 60.7302" fill="#B1D2FC"/>
<path d="M152.05 74.0359H526.217C526.37 74.0359 526.495 74.1763 526.495 74.3486V298.492H151.77V74.3459C151.77 74.1737 151.894 74.0332 152.048 74.0332" fill="#2A4589"/>
<path fill-rule="evenodd" clip-rule="evenodd" d="M486.772 213.512H597.208C598.879 213.512 600.245 212.144 600.245 210.472V128.049C600.245 126.377 598.879 125.009 597.208 125.009H486.772C485.101 125.009 483.734 126.377 483.734 128.049V210.475C483.734 212.147 485.101 213.514 486.772 213.514" fill="#1B326B"/>
<path d="M369.23 340.773H307.184V351.837H369.23V340.773Z" fill="#7BA9E3"/>
<path d="M369.23 340.773H307.184V351.837H369.23V340.773Z" stroke="#7BA9E3" stroke-width="0.22" stroke-miterlimit="22.93"/>
<path fill-rule="evenodd" clip-rule="evenodd" d="M339.359 311.39C343.011 311.39 345.972 314.352 345.972 318.007C345.972 321.661 343.011 324.624 339.359 324.624C335.707 324.624 332.746 321.661 332.746 318.007C332.746 314.352 335.707 311.39 339.359 311.39Z" fill="#DDEAF8"/>
<path fill-rule="evenodd" clip-rule="evenodd" d="M162.748 151.904H61.1518C51.8378 151.904 44.2188 159.664 44.2188 169.145V383.229C44.2188 392.711 51.8378 400.47 61.1518 400.47H162.748C172.061 400.47 179.681 392.711 179.681 383.229V169.145C179.681 159.664 172.061 151.904 162.748 151.904Z" fill="#7BA9E3"/>
<path fill-rule="evenodd" clip-rule="evenodd" d="M170.126 151.904H68.5307C59.2167 151.904 51.5977 159.664 51.5977 169.145V383.229C51.5977 392.711 59.2167 400.47 68.5307 400.47H170.126C179.44 400.47 187.059 392.711 187.059 383.229V169.145C187.059 159.664 179.44 151.904 170.126 151.904Z" fill="#B1D2FC"/>
<path fill-rule="evenodd" clip-rule="evenodd" d="M170.923 159.756C175.854 159.756 179.919 163.824 179.919 168.758V382.137C179.919 387.074 175.854 391.139 170.923 391.139H67.7306C62.7968 391.139 58.7344 387.071 58.7344 382.137V168.758C58.7344 163.821 62.7995 159.756 67.7306 159.756H89.5073C89.5073 162.74 91.949 165.183 94.931 165.183H145.759C148.741 165.183 151.183 162.74 151.183 159.756H170.926H170.923Z" fill="#2A4589"/>
<path fill-rule="evenodd" clip-rule="evenodd" d="M475.221 308.361H478.854L467.633 398.684C467.512 399.67 466.606 400.372 465.623 400.245L465.419 400.218C464.548 400.104 463.923 399.299 464.032 398.427L475.221 308.361Z" fill="#7BABEA"/>
<path fill-rule="evenodd" clip-rule="evenodd" d="M494.669 308.361H491.035L502.256 398.684C502.378 399.67 503.283 400.372 504.266 400.245L504.47 400.218C505.341 400.104 505.966 399.299 505.858 398.427L494.669 308.361Z" fill="#7BABEA"/>
<path d="M566.841 346.492H560.848V386.809H566.841V346.492Z" fill="#B2D2FF"/>
<path fill-rule="evenodd" clip-rule="evenodd" d="M567.818 391.759L584.455 398.395V400.171H563.722H542.988V398.395L559.625 391.759H559.868V373.509H567.818V391.759Z" fill="#9CC1F4"/>
<path fill-rule="evenodd" clip-rule="evenodd" d="M539.303 236.514C542.108 236.514 544.38 238.787 544.38 241.594C544.38 244.4 542.108 246.674 539.303 246.674C536.499 246.674 534.227 244.4 534.227 241.594C534.227 238.787 536.499 236.514 539.303 236.514Z" fill="#1F3E7A"/>
<path fill-rule="evenodd" clip-rule="evenodd" d="M534.879 288.046C532.935 292.492 530.737 296.444 526.261 299.035C518.134 301.124 499.538 300.559 500.025 298.556C500.475 296.709 503.296 295.243 504.837 296.2C506.513 297.241 522.964 289.872 523.166 289.824C523.306 289.792 524.315 286.392 524.514 285.958L534.879 288.048V288.046Z" fill="#F3ADBE"/>
<path fill-rule="evenodd" clip-rule="evenodd" d="M540.71 275.919C539.463 279.886 537.967 283.803 535.893 287.402L535.986 287.025L524.098 284.42C526.222 278.124 530.356 263.639 536.743 260.939C537.667 260.178 543.017 271.401 540.708 275.919" fill="#FBB44A"/>
<path fill-rule="evenodd" clip-rule="evenodd" d="M536.319 286.986C536.208 287.184 536.022 287.508 535.763 287.926L535.985 287.025L533.348 286.366C534.942 280.589 536.515 273.831 536.515 273.831L536.316 286.986H536.319Z" fill="#EF8200"/>
<path fill-rule="evenodd" clip-rule="evenodd" d="M535.989 286.906L523.805 284.103L523.262 286.477L535.449 289.283L535.989 286.906Z" fill="white"/>
<path fill-rule="evenodd" clip-rule="evenodd" d="M548.694 338.409H511.605C509.383 338.409 507.566 340.227 507.566 342.45C507.566 344.674 509.383 346.492 511.605 346.492H548.694C550.916 346.492 552.733 344.674 552.733 342.45C552.733 340.227 550.916 338.409 548.694 338.409Z" fill="#B2D2FF"/>
<path fill-rule="evenodd" clip-rule="evenodd" d="M561.179 275.575H598.957L589.455 338.558L551.677 338.592C551.531 338.592 551.383 338.581 551.235 338.558C549.678 338.558 548.639 336.859 548.883 335.319L557.945 277.928C558.189 276.391 559.624 275.575 561.182 275.575H561.179Z" fill="#B2D2FF"/>
<path fill-rule="evenodd" clip-rule="evenodd" d="M596.165 277.928L586.565 338.407H544.648C542.426 338.407 540.609 340.225 540.609 342.448C540.609 344.671 542.426 346.489 544.648 346.489H586.88C590.911 346.489 591.61 342.71 591.973 340.423L601.753 278.811C601.996 277.274 600.956 275.572 599.401 275.572C597.844 275.572 596.408 276.388 596.165 277.925" fill="#9CC1F4"/>
<path fill-rule="evenodd" clip-rule="evenodd" d="M482.84 393.156L491.256 374.373L498.92 376.172L490.74 393.901L482.84 393.156Z" fill="#F3ADBE"/>
<path fill-rule="evenodd" clip-rule="evenodd" d="M483.879 390.477C483.879 390.477 474.83 394.195 471.814 395.673C469.47 396.821 468.143 399.237 470.069 400.47H493.506C493.527 400.414 493.546 400.353 493.567 400.287C493.914 399.129 494.825 390.848 492.388 391.033C490.876 391.147 487.266 392.223 483.879 390.477Z" fill="#031542"/>
<path fill-rule="evenodd" clip-rule="evenodd" d="M477.466 393.161C477.209 393.27 476.952 393.381 476.695 393.49L477.876 395.374C477.998 395.568 478.255 395.626 478.446 395.504C478.639 395.382 478.697 395.125 478.576 394.934L477.463 393.161H477.466ZM479.54 392.284C479.285 392.39 479.028 392.499 478.766 392.61L479.987 394.558C480.109 394.751 480.366 394.81 480.556 394.688C480.75 394.566 480.808 394.309 480.686 394.118L479.537 392.284H479.54ZM481.618 391.415C481.375 391.518 481.115 391.624 480.845 391.738L482.103 393.742C482.225 393.935 482.482 393.994 482.672 393.872C482.866 393.75 482.924 393.493 482.802 393.302L481.618 391.415Z" fill="#577BC1"/>
<path fill-rule="evenodd" clip-rule="evenodd" d="M469.133 398.17V398.175L469.154 399.111C469.188 399.845 469.448 400.075 470.073 400.473H493.619C493.64 400.417 493.661 400.356 493.68 400.29C493.749 400.065 493.915 398.885 493.997 398.234L469.135 398.173L469.133 398.17Z" fill="#577BC1"/>
<path fill-rule="evenodd" clip-rule="evenodd" d="M557.717 316.83L542.608 313.963C542.608 313.963 512.911 319.936 504.253 333.069C495.593 346.2 485.133 385.731 485.133 385.731C488.131 388.338 490.827 388.624 493.462 389.025C496.356 385.829 517.01 349.009 517.045 349.001L555.863 324.979L557.717 316.83Z" fill="#1F3E7A"/>
<path fill-rule="evenodd" clip-rule="evenodd" d="M557.718 316.83L557.122 317.763C552.757 317.845 534.201 323.119 531.105 324.081C518.793 327.907 514.416 332.913 518.531 348.082L523.29 345.138L555.864 324.982L557.718 316.833V316.83Z" fill="#000446"/>
<path fill-rule="evenodd" clip-rule="evenodd" d="M533.189 391.844L532.543 385.002L539.407 385.166L539.341 393.002L533.189 391.844Z" fill="#F3ADBE"/>
<path fill-rule="evenodd" clip-rule="evenodd" d="M532.948 390.686C531.063 394.173 527.985 397.507 530.387 400.47H542.609C542.63 400.414 542.649 400.351 542.667 400.287C542.787 399.882 543.356 399.712 542.975 398.225C542.265 395.467 540.183 391.229 539.468 391.012C538.049 390.58 536.036 391.799 532.946 390.686" fill="#031542"/>
<path fill-rule="evenodd" clip-rule="evenodd" d="M529.473 398.165V398.17C529.444 399.097 529.539 399.914 530.384 400.47H542.606C543.236 400.094 543.403 399.834 542.971 398.225L529.471 398.165H529.473Z" fill="#577BC1"/>
<path fill-rule="evenodd" clip-rule="evenodd" d="M575.005 315.174C581.543 341.579 561.141 341.006 539.637 345.262C542.505 360.826 539.573 371.733 539.764 387.787C538.082 388.558 535.474 389.939 532.187 388.168C532.187 388.168 524.137 360.783 521.676 343.789C520.434 335.216 520.998 330.82 531.027 326.057C533.832 324.727 557.711 316.833 557.711 316.833L575.002 315.174H575.005Z" fill="#1F3E7A"/>
<path fill-rule="evenodd" clip-rule="evenodd" d="M571.835 259.932C571.676 276.876 573.541 287.932 575.749 316.096C565.519 319.361 538.777 319.873 537.474 315.198C536.843 297.353 534.383 279.836 535.103 262.002C545.119 255.056 561.131 252.947 571.835 259.932Z" fill="#FBB44A"/>
<path fill-rule="evenodd" clip-rule="evenodd" d="M543.913 257.645C548.028 256.174 551.802 255.612 556.228 255.626C556.792 258.035 557.366 265.081 548.314 265.513C543.797 265.781 541.824 261.336 543.91 257.645" fill="white"/>
<path fill-rule="evenodd" clip-rule="evenodd" d="M548.145 297.438L566.439 287.702L566.982 279.486L569.429 276.203C569.429 276.203 574.418 283.84 574.439 284.357C574.458 284.874 572.236 292.636 572.434 292.646C572.636 292.654 559.267 297.104 558.168 297.361C557.069 297.621 548.145 297.435 548.145 297.435" fill="#EF8200"/>
<path fill-rule="evenodd" clip-rule="evenodd" d="M505.171 299.033H540.689V299.87C540.689 300.331 540.313 300.708 539.852 300.708H506.005C505.544 300.708 505.168 300.331 505.168 299.87V299.033H505.171Z" fill="#7BA9E3"/>
<path fill-rule="evenodd" clip-rule="evenodd" d="M490.774 276.9H518.742C519.844 276.9 520.543 277.833 520.747 278.93L524.589 299.467H492.887L489.044 278.649C488.87 277.703 489.82 276.9 490.771 276.9" fill="#7BA9E3"/>
<path fill-rule="evenodd" clip-rule="evenodd" d="M489.818 276.9H517.786C518.888 276.9 519.584 277.833 519.791 278.93L523.366 297.917H523.414L523.644 299.311C523.769 300.067 523.017 300.705 522.251 300.705H493.277C492.511 300.705 491.997 300.069 491.884 299.311L491.711 298.166L488.091 278.646C487.916 277.7 488.867 276.897 489.818 276.897" fill="#C3DCFA"/>
<path fill-rule="evenodd" clip-rule="evenodd" d="M504.553 287.587C505.22 287.428 505.911 287.934 506.099 288.719C506.287 289.503 505.898 290.269 505.231 290.428C504.563 290.587 503.872 290.081 503.684 289.297C503.496 288.512 503.885 287.746 504.553 287.587Z" fill="#F4FAFD"/>
<path fill-rule="evenodd" clip-rule="evenodd" d="M580.307 287.569C580.468 290.895 579.92 292.848 579.452 294.47C579.113 299.377 560.005 300.157 545.736 302.035C544.9 301.421 544.492 301.111 544.439 300.75L537.797 300.824C538.184 299.417 538.912 297.393 540.781 296.77C542.01 296.362 544.333 296.796 548.861 297.114C557.537 293.934 568.938 289.779 568.914 289.36L568.909 288.571L580.304 287.566L580.307 287.569Z" fill="#F3ADBE"/>
<path fill-rule="evenodd" clip-rule="evenodd" d="M569.88 258.784C576.088 260.928 579.74 275.055 580.667 285.613L567.812 286.673C566.628 277.697 565.177 266.671 565.783 261.053C565.863 260.316 569.088 258.511 569.88 258.784Z" fill="#FBB44A"/>
<path fill-rule="evenodd" clip-rule="evenodd" d="M459.539 300.708H554.707V308.363H459.539C457.436 308.363 455.715 306.641 455.715 304.537C455.715 302.433 457.436 300.71 459.539 300.71" fill="#7BABEA"/>
<path fill-rule="evenodd" clip-rule="evenodd" d="M550.484 300.708H604.819C606.922 300.708 608.643 302.43 608.643 304.534C608.643 306.638 606.922 308.361 604.819 308.361H550.484C548.382 308.361 546.66 306.638 546.66 304.534C546.66 302.43 548.382 300.708 550.484 300.708Z" fill="#6699DD"/>
<path fill-rule="evenodd" clip-rule="evenodd" d="M543.866 255.008L544.767 258.758C544.131 261.413 545.164 263.544 548.567 263.343C557.637 261.665 554.632 255.769 554.483 255.493L552.977 250.053C553.535 249.894 555.667 246.836 555.874 245.601C558.326 230.938 537.651 227.7 536.141 241.231C535.532 246.693 537.836 253.691 543.869 255.008" fill="#F3ADBE"/>
<path fill-rule="evenodd" clip-rule="evenodd" d="M550.28 251.754C549.923 254.47 547.33 256.929 544.247 256.609L543.863 255.008C545.518 254.889 547.785 254.457 550.28 251.754Z" fill="#E06B6C"/>
<path fill-rule="evenodd" clip-rule="evenodd" d="M550.392 246.552C550.363 247.543 550.858 248.245 552.031 247.018C552.897 246.112 554.42 246.332 554.171 247.819C553.965 249.048 552.516 250.243 553.175 249.936C556.759 248.261 559.831 237.325 554.733 234.738C551.973 228.336 544.844 228.479 539.696 231.608C539.312 231.526 538.917 231.484 538.509 231.484C535.35 231.484 532.789 234.047 532.789 237.208C532.789 239.328 533.941 241.18 535.655 242.169C536.147 242.54 536.777 242.81 537.559 242.935C539.81 243.295 542.116 242.436 543.65 241.936C547.662 240.627 550.533 241.877 550.392 246.549" fill="#1F3E7A"/>
<path fill-rule="evenodd" clip-rule="evenodd" d="M534.153 392.483H538.155C538.356 392.483 538.523 392.647 538.523 392.851C538.523 393.053 538.359 393.22 538.155 393.22H534.153C533.952 393.22 533.785 393.055 533.785 392.851C533.785 392.65 533.949 392.483 534.153 392.483Z" fill="#577BC1"/>
<path fill-rule="evenodd" clip-rule="evenodd" d="M534.138 393.956H538.139C538.34 393.956 538.507 394.12 538.507 394.324C538.507 394.526 538.343 394.693 538.139 394.693H534.138C533.936 394.693 533.77 394.528 533.77 394.324C533.77 394.123 533.934 393.956 534.138 393.956Z" fill="#577BC1"/>
<path fill-rule="evenodd" clip-rule="evenodd" d="M534.138 395.257H538.139C538.34 395.257 538.507 395.422 538.507 395.626C538.507 395.83 538.343 395.994 538.139 395.994H534.138C533.936 395.994 533.77 395.83 533.77 395.626C533.77 395.422 533.934 395.257 534.138 395.257Z" fill="#577BC1"/>
<path fill-rule="evenodd" clip-rule="evenodd" d="M580.806 285.603L567.742 286.678L567.954 289.225L581.021 288.149L580.806 285.603Z" fill="white"/>
<path fill-rule="evenodd" clip-rule="evenodd" d="M567.404 308.361H571.038L559.817 398.684C559.695 399.67 558.79 400.372 557.807 400.245L557.603 400.218C556.732 400.104 556.107 399.299 556.215 398.427L567.404 308.361Z" fill="#7BABEA"/>
<path fill-rule="evenodd" clip-rule="evenodd" d="M586.852 308.361H583.219L594.439 398.684C594.561 399.67 595.467 400.372 596.452 400.245L596.656 400.218C597.527 400.104 598.152 399.299 598.044 398.427L586.855 308.361H586.852Z" fill="#7BABEA"/>
<path d="M650.001 400.47H9.37891" stroke="#1F3E7A" stroke-width="4" stroke-miterlimit="22.93"/>
<path fill-rule="evenodd" clip-rule="evenodd" d="M488.186 211.646H598.622C600.293 211.646 601.659 210.279 601.659 208.606V126.183C601.659 124.511 600.293 123.144 598.622 123.144H488.186C486.515 123.144 485.148 124.511 485.148 126.183V208.609C485.148 210.281 486.515 211.649 488.186 211.649" fill="#C3DCFA"/>
<path d="M499.879 131.931V203.062H588.299V203.836H499.105V131.931H499.879Z" fill="#000446"/>
<path fill-rule="evenodd" clip-rule="evenodd" d="M246.932 93.0024H434.654C443.706 93.0024 451.114 100.415 451.114 109.472V163.694C451.114 172.752 443.706 180.164 434.654 180.164H246.932C237.88 180.164 230.473 172.752 230.473 163.694V109.472C230.473 100.415 237.88 93.0024 246.932 93.0024Z" fill="#C3DCFA"/>
<path fill-rule="evenodd" clip-rule="evenodd" d="M272.673 105.168C289.911 105.168 303.886 119.153 303.886 136.402C303.886 153.65 289.911 167.635 272.673 167.635C255.436 167.635 241.461 153.65 241.461 136.402C241.461 119.153 255.436 105.168 272.673 105.168Z" fill="#98C0F1"/>
<path fill-rule="evenodd" clip-rule="evenodd" d="M263.295 149.516C261.37 153.743 261.531 160.182 259.961 164.929C255.398 162.888 251.415 159.785 248.324 155.934C251.77 147.629 256.552 138.762 261.629 137.62C262.397 137.125 265.543 146.129 263.295 149.516Z" fill="#156FCD"/>
<path fill-rule="evenodd" clip-rule="evenodd" d="M252.816 160.498C254.201 150.714 256.76 141.367 261.627 137.623C271.042 134.984 283.669 135.818 288.883 140.965L288.928 141.007C291.86 143.758 295.117 149.691 297.111 155.829C291.394 163.021 282.572 167.634 272.673 167.634C265.131 167.634 258.214 164.958 252.816 160.501" fill="#3D7DDA"/>
<path d="M265.328 136.791C270.034 135.972 275.148 135.938 279.584 136.773C279.946 140.027 274.933 144.725 268.739 144.421C266.122 144.577 263.567 139.555 265.328 136.791Z" fill="#156FCD"/>
<path fill-rule="evenodd" clip-rule="evenodd" d="M284.281 165.398C284.591 163.183 284.967 161.01 285.375 158.914C285.889 160.639 286.503 162.388 287.208 164.041C286.26 164.542 285.285 164.995 284.281 165.396" fill="#156FCD"/>
<path fill-rule="evenodd" clip-rule="evenodd" d="M264.243 129.644C265.245 131.637 266.645 133.174 268.208 133.924L268.155 136.82L267.734 137.178C266.084 138.946 267.872 142.576 269.749 142.465C274.498 142.698 278.144 138.803 276.717 136.685L276.097 135.993L275.959 131.894C276.206 131.881 277.988 130.866 278.52 130.701C279.05 130.537 279.831 129.514 279.882 128.433C279.934 127.352 278.266 127.702 278.266 127.702C280.287 124.932 282.577 122.672 279.609 120.178C276.64 117.685 269.821 116.23 269.821 116.23L265.716 114.807C266.238 116.224 265.541 120.952 264.487 123.901C263.542 126.549 262.901 126.96 264.243 129.636" fill="#F4B1B1"/>
<path fill-rule="evenodd" clip-rule="evenodd" d="M274.029 132.463C274.029 132.463 271.706 136.446 269.802 136.807C267.895 137.167 268.87 136.902 268.16 136.817L268.213 133.921C269.527 134.133 270.814 134.03 274.031 132.463" fill="#E98385"/>
<path fill-rule="evenodd" clip-rule="evenodd" d="M283.006 119.956C283.747 117.536 282.958 114.99 280.575 113.127C275.633 109.265 271.39 111.399 269.558 111.849C268.292 112.159 267.437 112.127 266.189 112.387C263.075 113.039 262.81 119.521 265.056 121.652C265.278 121.864 265.625 118.893 265.874 119.084C266.136 119.314 266.428 119.526 266.748 119.712C270.408 121.588 274.619 119.362 276.751 121.874C277.805 123.117 277.699 124.911 276.517 127.68C276.171 128.497 275.704 129.098 277.082 128.46C277.714 128.168 278.755 127.757 279.11 128.043C279.902 128.682 279.502 130.028 278.872 130.463C278.591 130.656 278.056 130.945 278.056 130.945C283.872 129.843 285.233 121.686 283.006 119.961" fill="#1B326B"/>
<path fill-rule="evenodd" clip-rule="evenodd" d="M319.253 107.585L322.039 113.423L328.448 114.271L323.763 118.726L324.937 125.089L319.253 122.007L313.57 125.089L314.743 118.726L310.059 114.271L316.467 113.423L319.253 107.585Z" fill="#EB6E03"/>
<path fill-rule="evenodd" clip-rule="evenodd" d="M342.457 107.585L345.245 113.423L351.654 114.271L346.967 118.726L348.14 125.089L342.457 122.007L336.773 125.089L337.949 118.726L333.262 114.271L339.671 113.423L342.457 107.585Z" fill="#EB6E03"/>
<path fill-rule="evenodd" clip-rule="evenodd" d="M365.662 107.585L368.448 113.423L374.857 114.271L370.172 118.726L371.345 125.089L365.662 122.007L359.979 125.089L361.152 118.726L356.465 114.271L362.874 113.423L365.662 107.585Z" fill="#EB6E03"/>
<path fill-rule="evenodd" clip-rule="evenodd" d="M388.867 107.585L391.653 113.423L398.061 114.271L393.377 118.726L394.55 125.089L388.867 122.007L383.183 125.089L384.357 118.726L379.672 114.271L386.081 113.423L388.867 107.585Z" fill="#EB6E03"/>
<path fill-rule="evenodd" clip-rule="evenodd" d="M412.07 107.585L414.858 113.423L421.267 114.271L416.58 118.726L417.753 125.089L412.07 122.007L406.387 125.089L407.56 118.726L402.875 114.271L409.284 113.423L412.07 107.585Z" fill="#EB6E03"/>
<path fill-rule="evenodd" clip-rule="evenodd" d="M315.443 134.817H346.867C347.765 134.817 348.501 135.554 348.501 136.452C348.501 137.35 347.765 138.087 346.867 138.087H315.443C314.545 138.087 313.809 137.35 313.809 136.452C313.809 135.554 314.545 134.817 315.443 134.817Z" fill="#7BA9E3"/>
<path fill-rule="evenodd" clip-rule="evenodd" d="M315.443 145.637H392.92C393.818 145.637 394.554 146.373 394.554 147.272C394.554 148.17 393.818 148.907 392.92 148.907H315.443C314.545 148.907 313.809 148.17 313.809 147.272C313.809 146.373 314.545 145.637 315.443 145.637Z" fill="#7BA9E3"/>
<path fill-rule="evenodd" clip-rule="evenodd" d="M315.443 155.781H392.92C393.818 155.781 394.554 156.518 394.554 157.416C394.554 158.315 393.818 159.051 392.92 159.051H315.443C314.545 159.051 313.809 158.315 313.809 157.416C313.809 156.518 314.545 155.781 315.443 155.781Z" fill="#7BA9E3"/>
<path fill-rule="evenodd" clip-rule="evenodd" d="M416.616 142.327C421.899 144.707 424.253 150.923 421.872 156.21C419.492 161.497 413.281 163.853 407.998 161.471C402.715 159.091 400.36 152.874 402.741 147.587C405.119 142.3 411.332 139.944 416.616 142.327Z" fill="#3D7DDA"/>
<path d="M409.382 149.749L407.055 149.762L407.089 155.902L409.417 155.889L409.382 149.749Z" fill="white"/>
<path d="M418.679 150.497C418.526 150.089 418.134 149.821 417.697 149.824L413.213 149.675C413.833 149 413.878 147.235 413.862 146.389C413.857 146.132 413.647 145.928 413.391 145.928C413.205 145.928 413.038 146.037 412.964 146.206C412.805 146.575 412.45 147.248 411.799 147.863C411.041 148.578 410.348 149.755 410.348 149.755L410.382 155.895L416.007 155.863C416.685 155.86 417.225 155.296 417.207 154.618C417.201 154.459 417.199 154.292 417.199 154.125C417.193 153.226 418.986 152.445 418.981 151.74C418.981 151.382 418.827 150.892 418.679 150.494" fill="white"/>
<path fill-rule="evenodd" clip-rule="evenodd" d="M246.932 194.699H434.654C443.706 194.699 451.114 202.111 451.114 211.169V265.391C451.114 274.449 443.706 281.861 434.654 281.861H246.932C237.88 281.861 230.473 274.449 230.473 265.391V211.169C230.473 202.111 237.88 194.699 246.932 194.699Z" fill="#C3DCFA"/>
<path fill-rule="evenodd" clip-rule="evenodd" d="M272.673 206.865C289.911 206.865 303.886 220.849 303.886 238.098C303.886 255.347 289.911 269.331 272.673 269.331C255.436 269.331 241.461 255.347 241.461 238.098C241.461 220.849 255.436 206.865 272.673 206.865Z" fill="#98C0F1"/>
<path fill-rule="evenodd" clip-rule="evenodd" d="M262.12 218.57C262.218 230.273 253.788 229.457 260.562 244.321C260.562 244.321 264.548 239.741 266.577 239.638C268.605 239.532 269.673 233.326 269.712 233.005C269.755 232.684 269.585 220.017 269.585 220.017L262.117 218.57H262.12Z" fill="#1B326B"/>
<path fill-rule="evenodd" clip-rule="evenodd" d="M260.809 251.216C258.934 255.337 259.893 261.551 259.151 266.255C255.158 264.331 250.785 260.525 247.957 257.173C250.256 248.232 254.909 240.857 259.143 239.32C259.911 238.824 263.057 247.829 260.809 251.216Z" fill="#EF3961"/>
<path fill-rule="evenodd" clip-rule="evenodd" d="M250.528 260.104C250.441 259.05 250.523 257.915 250.875 256.635C252.393 251.089 256.066 241.689 259.146 239.32C268.56 236.681 281.187 237.516 286.402 242.662L286.447 242.704C289 245.119 291.672 253.416 293.82 261.069C288.258 266.197 280.833 269.329 272.676 269.329C264.019 269.329 256.182 265.799 250.528 260.102" fill="#F6597B"/>
<path fill-rule="evenodd" clip-rule="evenodd" d="M281.672 268.009C282.003 265.478 282.427 262.993 282.89 260.613C283.507 262.688 284.272 264.792 285.157 266.729C284.029 267.222 282.866 267.651 281.672 268.009Z" fill="#EF3961"/>
<path fill-rule="evenodd" clip-rule="evenodd" d="M261.762 231.341C262.763 233.334 264.164 234.871 265.726 235.621L265.673 238.517L265.252 238.875C263.602 240.642 265.39 244.273 267.268 244.162C272.016 244.397 275.663 240.499 274.235 238.382L273.615 237.69L273.478 233.591C273.724 233.577 275.506 232.562 276.039 232.398C276.568 232.234 277.349 231.211 277.4 230.13C277.453 229.049 275.782 229.398 275.782 229.398C277.802 226.629 280.093 224.369 277.124 221.875C274.156 219.381 267.336 217.926 267.336 217.926L263.232 216.503C263.753 217.921 263.057 222.649 262.003 225.601C261.057 228.248 260.416 228.659 261.759 231.336" fill="#F4B1B1"/>
<path fill-rule="evenodd" clip-rule="evenodd" d="M271.544 234.163C271.544 234.163 269.222 238.146 267.318 238.506C265.411 238.867 266.386 238.602 265.676 238.517L265.729 235.621C267.042 235.833 268.329 235.729 271.547 234.163" fill="#E98385"/>
<path fill-rule="evenodd" clip-rule="evenodd" d="M271.955 223.163C271.955 223.163 265.433 224.056 261.974 221.3C259.734 219.275 258.6 215.499 262.533 213.413C267.599 210.726 276.209 212.897 278.955 218.57C279.913 220.55 281.092 223.955 282.093 227.371C284.418 235.318 293.888 236.037 293.359 245.677C293.327 246.276 292.278 245.179 290.483 244.464C292.286 247.508 291.396 250.749 290.861 251.264C288.875 246.258 286.942 243.809 284.159 242.041C282.673 241.098 280.798 240.245 278.221 239.789C273.769 239.005 272.813 238.663 273.431 233.591C273.431 233.591 275.92 232.589 276.028 231.004C276.137 229.419 275.687 229.404 275.501 229.417C275.316 229.433 274.212 229.899 274.212 229.899C274.108 227.808 274.715 223.746 271.958 223.163" fill="#1B326B"/>
<path fill-rule="evenodd" clip-rule="evenodd" d="M319.253 209.282L322.039 215.12L328.448 215.968L323.763 220.426L324.937 226.786L319.253 223.704L313.57 226.786L314.743 220.426L310.059 215.968L316.467 215.12L319.253 209.282Z" fill="#EB6E03"/>
<path fill-rule="evenodd" clip-rule="evenodd" d="M342.457 209.282L345.245 215.12L351.654 215.968L346.967 220.426L348.14 226.786L342.457 223.704L336.773 226.786L337.946 220.426L333.262 215.968L339.671 215.12L342.457 209.282Z" fill="#EB6E03"/>
<path fill-rule="evenodd" clip-rule="evenodd" d="M365.662 209.282L368.448 215.12L374.857 215.968L370.172 220.426L371.345 226.786L365.662 223.704L359.979 226.786L361.152 220.426L356.465 215.968L362.874 215.12L365.662 209.282Z" fill="#EB6E03"/>
<path fill-rule="evenodd" clip-rule="evenodd" d="M388.867 209.282L391.653 215.12L398.061 215.968L393.377 220.426L394.55 226.786L388.867 223.704L383.183 226.786L384.357 220.426L379.672 215.968L386.081 215.12L388.867 209.282Z" fill="#EB6E03"/>
<path fill-rule="evenodd" clip-rule="evenodd" d="M412.07 209.282L414.858 215.12L421.267 215.968L416.58 220.426L417.753 226.786L412.07 223.704L406.387 226.786L407.56 220.426L402.875 215.968L409.284 215.12L412.07 209.282Z" fill="#7BA9E3"/>
<path fill-rule="evenodd" clip-rule="evenodd" d="M315.443 236.514H346.867C347.765 236.514 348.501 237.25 348.501 238.149C348.501 239.047 347.765 239.784 346.867 239.784H315.443C314.545 239.784 313.809 239.047 313.809 238.149C313.809 237.25 314.545 236.514 315.443 236.514Z" fill="#7BA9E3"/>
<path fill-rule="evenodd" clip-rule="evenodd" d="M315.443 247.333H392.92C393.818 247.333 394.554 248.07 394.554 248.969C394.554 249.867 393.818 250.604 392.92 250.604H315.443C314.545 250.604 313.809 249.867 313.809 248.969C313.809 248.07 314.545 247.333 315.443 247.333Z" fill="#7BA9E3"/>
<path fill-rule="evenodd" clip-rule="evenodd" d="M315.443 257.478H392.92C393.818 257.478 394.554 258.215 394.554 259.113C394.554 260.011 393.818 260.748 392.92 260.748H315.443C314.545 260.748 313.809 260.011 313.809 259.113C313.809 258.215 314.545 257.478 315.443 257.478Z" fill="#7BA9E3"/>
<path fill-rule="evenodd" clip-rule="evenodd" d="M417.088 243.316C422.372 245.696 424.726 251.913 422.345 257.2C419.964 262.486 413.754 264.842 408.471 262.46C403.187 260.08 400.833 253.863 403.214 248.576C405.592 243.29 411.805 240.934 417.088 243.316Z" fill="#3D7DDA"/>
<path d="M409.859 250.742L407.531 250.755L407.566 256.895L409.893 256.882L409.859 250.742Z" fill="white"/>
<path d="M419.152 251.489C418.998 251.081 418.606 250.813 418.169 250.816L413.686 250.668C414.305 249.989 414.35 248.227 414.335 247.382C414.329 247.124 414.12 246.92 413.863 246.92C413.678 246.92 413.511 247.029 413.437 247.199C413.278 247.567 412.923 248.24 412.272 248.855C411.514 249.57 410.82 250.747 410.82 250.747L410.855 256.887L416.48 256.855C417.158 256.853 417.698 256.288 417.679 255.61C417.674 255.451 417.671 255.284 417.671 255.117C417.666 254.219 419.459 253.437 419.454 252.732C419.454 252.374 419.3 251.884 419.152 251.486" fill="white"/>
<path fill-rule="evenodd" clip-rule="evenodd" d="M166.736 201.197C171.268 201.197 175.002 204.973 175.002 209.552V376.755C175.002 381.337 171.268 385.11 166.736 385.11H71.9203C67.3891 385.11 63.6523 381.337 63.6523 376.755V209.552C63.6523 204.97 67.3864 201.197 71.9203 201.197H166.736Z" fill="#C3DCFA"/>
<path fill-rule="evenodd" clip-rule="evenodd" d="M164.616 368.028H90.8537C87.9035 368.028 85.4883 370.445 85.4883 373.397C85.4883 376.349 87.9035 378.766 90.8537 378.766H164.616C167.566 378.766 169.981 376.349 169.981 373.397C169.981 370.445 167.566 368.028 164.616 368.028Z" fill="white"/>
<path fill-rule="evenodd" clip-rule="evenodd" d="M150.955 371.916H92.3359C91.5228 371.916 90.8555 372.584 90.8555 373.397C90.8555 374.211 91.5228 374.879 92.3359 374.879H150.955C151.768 374.879 152.436 374.211 152.436 373.397C152.436 372.584 151.768 371.916 150.955 371.916Z" fill="#B1D2FC"/>
<path fill-rule="evenodd" clip-rule="evenodd" d="M76.6149 367.509C73.3655 367.509 70.7305 370.146 70.7305 373.398C70.7305 376.649 73.3655 379.286 76.6149 379.286C79.8644 379.286 82.4994 376.649 82.4994 373.398C82.4994 370.146 79.8644 367.509 76.6149 367.509Z" fill="#072E8F"/>
<path fill-rule="evenodd" clip-rule="evenodd" d="M76.6141 371.392C75.5071 371.392 74.6094 372.29 74.6094 373.398C74.6094 374.505 75.5071 375.404 76.6141 375.404C77.7211 375.404 78.6189 374.505 78.6189 373.398C78.6189 372.29 77.7211 371.392 76.6141 371.392Z" fill="white"/>
<path fill-rule="evenodd" clip-rule="evenodd" d="M84.7991 210.482C92.7307 210.482 99.1607 216.917 99.1607 224.853C99.1607 232.79 92.7307 239.224 84.7991 239.224C76.8675 239.224 70.4375 232.79 70.4375 224.853C70.4375 216.917 76.8675 210.482 84.7991 210.482Z" fill="white"/>
<path fill-rule="evenodd" clip-rule="evenodd" d="M84.7698 216.326C87.0712 216.32 88.9435 218.183 88.9488 220.489C88.9541 222.794 87.0924 224.665 84.7884 224.671C82.487 224.676 80.6147 222.813 80.6094 220.507C80.6041 218.202 82.4658 216.331 84.7698 216.326Z" fill="#3D7DDA"/>
<path fill-rule="evenodd" clip-rule="evenodd" d="M80.0123 226.256L89.5699 226.234C91.527 226.229 93.1345 227.83 93.1371 229.788C93.1424 231.746 91.5429 233.355 89.5858 233.358L80.0282 233.379C78.0711 233.384 76.4636 231.784 76.461 229.825C76.4557 227.867 78.0552 226.258 80.0123 226.256Z" fill="#3D7DDA"/>
<path fill-rule="evenodd" clip-rule="evenodd" d="M84.7991 246.181C92.7307 246.181 99.1607 252.615 99.1607 260.552C99.1607 268.489 92.7307 274.923 84.7991 274.923C76.8675 274.923 70.4375 268.489 70.4375 260.552C70.4375 252.615 76.8675 246.181 84.7991 246.181Z" fill="white"/>
<path fill-rule="evenodd" clip-rule="evenodd" d="M84.7991 281.882C92.7307 281.882 99.1607 288.316 99.1607 296.253C99.1607 304.19 92.7307 310.624 84.7991 310.624C76.8675 310.624 70.4375 304.19 70.4375 296.253C70.4375 288.316 76.8675 281.882 84.7991 281.882Z" fill="white"/>
<path fill-rule="evenodd" clip-rule="evenodd" d="M84.7991 317.58C92.7307 317.58 99.1607 324.014 99.1607 331.951C99.1607 339.888 92.7307 346.322 84.7991 346.322C76.8675 346.322 70.4375 339.888 70.4375 331.951C70.4375 324.014 76.8675 317.58 84.7991 317.58Z" fill="white"/>
<path fill-rule="evenodd" clip-rule="evenodd" d="M84.7698 252.027C87.0712 252.022 88.9435 253.885 88.9488 256.19C88.9541 258.493 87.0924 260.366 84.7884 260.372C82.487 260.377 80.6147 258.514 80.6094 256.209C80.6041 253.903 82.4658 252.032 84.7698 252.027Z" fill="#3D7DDA"/>
<path fill-rule="evenodd" clip-rule="evenodd" d="M80.0123 261.954L89.5699 261.933C91.527 261.927 93.1345 263.528 93.1371 265.486C93.1424 267.445 91.5429 269.053 89.5858 269.056L80.0282 269.077C78.0711 269.082 76.4636 267.482 76.461 265.523C76.4557 263.565 78.0552 261.956 80.0123 261.954Z" fill="#3D7DDA"/>
<path fill-rule="evenodd" clip-rule="evenodd" d="M84.7698 287.725C87.0712 287.72 88.9435 289.583 88.9488 291.888C88.9541 294.191 87.0924 296.065 84.7884 296.07C82.4844 296.075 80.6147 294.212 80.6094 291.907C80.6041 289.604 82.4658 287.73 84.7698 287.725Z" fill="#3D7DDA"/>
<path fill-rule="evenodd" clip-rule="evenodd" d="M80.0123 297.655L89.5699 297.634C91.527 297.629 93.1345 299.229 93.1371 301.187C93.1424 303.146 91.5429 304.754 89.5858 304.757L80.0282 304.778C78.0711 304.784 76.4636 303.183 76.461 301.225C76.4557 299.266 78.0552 297.658 80.0123 297.655Z" fill="#3D7DDA"/>
<path fill-rule="evenodd" clip-rule="evenodd" d="M84.7698 323.426C87.0712 323.421 88.9435 325.284 88.9488 327.589C88.9541 329.892 87.0924 331.766 84.7884 331.771C82.487 331.776 80.6147 329.914 80.6094 327.608C80.6041 325.302 82.4658 323.432 84.7698 323.426Z" fill="#3D7DDA"/>
<path fill-rule="evenodd" clip-rule="evenodd" d="M80.0123 333.353L89.5699 333.332C91.527 333.327 93.1345 334.927 93.1371 336.886C93.1424 338.844 91.5429 340.453 89.5858 340.455L80.0282 340.477C78.0711 340.482 76.4636 338.881 76.461 336.923C76.4557 334.964 78.0552 333.356 80.0123 333.353Z" fill="#3D7DDA"/>
<path fill-rule="evenodd" clip-rule="evenodd" d="M107.42 211.879L108.649 214.455L111.478 214.829L109.409 216.795L109.928 219.602L107.42 218.242L104.913 219.602L105.429 216.795L103.363 214.829L106.189 214.455L107.42 211.879Z" fill="#EB6E03"/>
<path fill-rule="evenodd" clip-rule="evenodd" d="M117.659 211.879L118.89 214.455L121.716 214.829L119.65 216.795L120.167 219.602L117.659 218.242L115.151 219.602L115.67 216.795L113.602 214.829L116.43 214.455L117.659 211.879Z" fill="#EB6E03"/>
<path fill-rule="evenodd" clip-rule="evenodd" d="M127.9 211.879L129.128 214.455L131.957 214.829L129.888 216.795L130.408 219.602L127.9 218.242L125.392 219.602L125.908 216.795L123.84 214.829L126.668 214.455L127.9 211.879Z" fill="#EB6E03"/>
<path fill-rule="evenodd" clip-rule="evenodd" d="M138.135 211.879L139.364 214.455L142.192 214.829L140.124 216.795L140.643 219.602L138.135 218.242L135.627 219.602L136.146 216.795L134.078 214.829L136.906 214.455L138.135 211.879Z" fill="#EB6E03"/>
<path fill-rule="evenodd" clip-rule="evenodd" d="M148.376 211.879L149.605 214.455L152.433 214.829L150.365 216.795L150.881 219.602L148.376 218.242L145.868 219.602L146.385 216.795L144.316 214.829L147.145 214.455L148.376 211.879Z" fill="#EB6E03"/>
<path fill-rule="evenodd" clip-rule="evenodd" d="M105.004 223.274H119.059C119.461 223.274 119.79 223.603 119.79 224.006C119.79 224.409 119.461 224.737 119.059 224.737H105.004C104.602 224.737 104.273 224.409 104.273 224.006C104.273 223.603 104.602 223.274 105.004 223.274Z" fill="#7BA9E3"/>
<path fill-rule="evenodd" clip-rule="evenodd" d="M105.004 228.113H151.704C152.107 228.113 152.435 228.442 152.435 228.845C152.435 229.247 152.107 229.576 151.704 229.576H105.004C104.602 229.576 104.273 229.247 104.273 228.845C104.273 228.442 104.602 228.113 105.004 228.113Z" fill="#7BA9E3"/>
<path fill-rule="evenodd" clip-rule="evenodd" d="M105.004 232.65H151.704C152.107 232.65 152.435 232.979 152.435 233.381C152.435 233.784 152.107 234.113 151.704 234.113H105.004C104.602 234.113 104.273 233.784 104.273 233.381C104.273 232.979 104.602 232.65 105.004 232.65Z" fill="#7BA9E3"/>
<path fill-rule="evenodd" clip-rule="evenodd" d="M107.42 248.874L108.649 251.449L111.478 251.823L109.409 253.789L109.928 256.596L107.42 255.236L104.913 256.596L105.429 253.789L103.363 251.823L106.189 251.449L107.42 248.874Z" fill="#EB6E03"/>
<path fill-rule="evenodd" clip-rule="evenodd" d="M107.42 284.641L108.649 287.214L111.478 287.59L109.409 289.556L109.928 292.363L107.42 291.003L104.913 292.363L105.429 289.556L103.363 287.59L106.189 287.214L107.42 284.641Z" fill="#EB6E03"/>
<path fill-rule="evenodd" clip-rule="evenodd" d="M117.659 248.874L118.89 251.449L121.716 251.823L119.65 253.789L120.167 256.596L117.659 255.236L115.151 256.596L115.67 253.789L113.602 251.823L116.43 251.449L117.659 248.874Z" fill="#EB6E03"/>
<path fill-rule="evenodd" clip-rule="evenodd" d="M117.659 284.641L118.89 287.214L121.716 287.59L119.65 289.556L120.167 292.363L117.659 291.003L115.151 292.363L115.67 289.556L113.602 287.59L116.43 287.214L117.659 284.641Z" fill="#EB6E03"/>
<path fill-rule="evenodd" clip-rule="evenodd" d="M127.9 248.874L129.128 251.449L131.957 251.823L129.888 253.789L130.408 256.596L127.9 255.236L125.392 256.596L125.908 253.789L123.84 251.823L126.668 251.449L127.9 248.874Z" fill="#EB6E03"/>
<path fill-rule="evenodd" clip-rule="evenodd" d="M127.9 284.641L129.128 287.214L131.957 287.59L129.888 289.556L130.408 292.363L127.9 291.003L125.392 292.363L125.908 289.556L123.84 287.59L126.668 287.214L127.9 284.641Z" fill="#7BA9E3"/>
<path fill-rule="evenodd" clip-rule="evenodd" d="M138.135 248.874L139.364 251.449L142.192 251.823L140.124 253.789L140.643 256.596L138.135 255.236L135.627 256.596L136.146 253.789L134.078 251.823L136.906 251.449L138.135 248.874Z" fill="#EB6E03"/>
<path fill-rule="evenodd" clip-rule="evenodd" d="M138.135 284.641L139.364 287.214L142.192 287.59L140.124 289.556L140.643 292.363L138.135 291.003L135.627 292.363L136.146 289.556L134.078 287.59L136.906 287.214L138.135 284.641Z" fill="#7BA9E3"/>
<path fill-rule="evenodd" clip-rule="evenodd" d="M148.376 248.874L149.605 251.449L152.433 251.823L150.365 253.789L150.881 256.596L148.376 255.236L145.868 256.596L146.385 253.789L144.316 251.823L147.145 251.449L148.376 248.874Z" fill="#7BA9E3"/>
<path fill-rule="evenodd" clip-rule="evenodd" d="M148.376 284.641L149.605 287.214L152.433 287.59L150.365 289.556L150.881 292.363L148.376 291.003L145.868 292.363L146.385 289.556L144.316 287.59L147.145 287.214L148.376 284.641Z" fill="#7BA9E3"/>
<path fill-rule="evenodd" clip-rule="evenodd" d="M105.004 260.269H119.059C119.461 260.269 119.79 260.597 119.79 261C119.79 261.403 119.461 261.731 119.059 261.731H105.004C104.602 261.731 104.273 261.403 104.273 261C104.273 260.597 104.602 260.269 105.004 260.269Z" fill="#7BA9E3"/>
<path fill-rule="evenodd" clip-rule="evenodd" d="M105.004 296.036H119.059C119.461 296.036 119.79 296.364 119.79 296.767C119.79 297.17 119.461 297.498 119.059 297.498H105.004C104.602 297.498 104.273 297.17 104.273 296.767C104.273 296.364 104.602 296.036 105.004 296.036Z" fill="#7BA9E3"/>
<path fill-rule="evenodd" clip-rule="evenodd" d="M105.004 265.107H151.704C152.107 265.107 152.435 265.436 152.435 265.839C152.435 266.242 152.107 266.57 151.704 266.57H105.004C104.602 266.57 104.273 266.242 104.273 265.839C104.273 265.436 104.602 265.107 105.004 265.107Z" fill="#7BA9E3"/>
<path fill-rule="evenodd" clip-rule="evenodd" d="M105.004 300.875H151.704C152.107 300.875 152.435 301.203 152.435 301.606C152.435 302.009 152.107 302.337 151.704 302.337H105.004C104.602 302.337 104.273 302.009 104.273 301.606C104.273 301.203 104.602 300.875 105.004 300.875Z" fill="#7BA9E3"/>
<path fill-rule="evenodd" clip-rule="evenodd" d="M105.004 269.644H151.704C152.107 269.644 152.435 269.973 152.435 270.375C152.435 270.778 152.107 271.107 151.704 271.107H105.004C104.602 271.107 104.273 270.778 104.273 270.375C104.273 269.973 104.602 269.644 105.004 269.644Z" fill="#7BA9E3"/>
<path fill-rule="evenodd" clip-rule="evenodd" d="M105.004 305.412H151.704C152.107 305.412 152.435 305.74 152.435 306.143C152.435 306.546 152.107 306.874 151.704 306.874H105.004C104.602 306.874 104.273 306.546 104.273 306.143C104.273 305.74 104.602 305.412 105.004 305.412Z" fill="#7BA9E3"/>
<path fill-rule="evenodd" clip-rule="evenodd" d="M107.36 319.443L108.57 321.979L111.356 322.348L109.319 324.285L109.83 327.049L107.36 325.711L104.889 327.049L105.4 324.285L103.363 322.348L106.147 321.979L107.36 319.443Z" fill="#EB6E03"/>
<path fill-rule="evenodd" clip-rule="evenodd" d="M117.444 319.443L118.654 321.979L121.44 322.348L119.404 324.285L119.915 327.049L117.444 325.711L114.973 327.049L115.484 324.285L113.445 322.348L116.231 321.979L117.444 319.443Z" fill="#EB6E03"/>
<path fill-rule="evenodd" clip-rule="evenodd" d="M127.534 319.443L128.744 321.979L131.53 322.348L129.494 324.285L130.005 327.049L127.534 325.711L125.063 327.049L125.572 324.285L123.535 322.348L126.321 321.979L127.534 319.443Z" fill="#EB6E03"/>
<path fill-rule="evenodd" clip-rule="evenodd" d="M137.62 319.443L138.83 321.979L141.616 322.348L139.58 324.285L140.088 327.049L137.62 325.711L135.149 327.049L135.658 324.285L133.621 322.348L136.407 321.979L137.62 319.443Z" fill="#EB6E03"/>
<path fill-rule="evenodd" clip-rule="evenodd" d="M147.706 319.443L148.916 321.979L151.702 322.348L149.666 324.285L150.174 327.049L147.706 325.711L145.235 327.049L145.744 324.285L143.707 322.348L146.493 321.979L147.706 319.443Z" fill="#7BA9E3"/>
<path fill-rule="evenodd" clip-rule="evenodd" d="M105.004 330.722H119.059C119.461 330.722 119.79 331.05 119.79 331.453C119.79 331.856 119.461 332.184 119.059 332.184H105.004C104.602 332.184 104.273 331.856 104.273 331.453C104.273 331.05 104.602 330.722 105.004 330.722Z" fill="#7BA9E3"/>
<path fill-rule="evenodd" clip-rule="evenodd" d="M105.004 335.561H151.704C152.107 335.561 152.435 335.889 152.435 336.292C152.435 336.695 152.107 337.023 151.704 337.023H105.004C104.602 337.023 104.273 336.695 104.273 336.292C104.273 335.889 104.602 335.561 105.004 335.561Z" fill="#7BA9E3"/>
<path fill-rule="evenodd" clip-rule="evenodd" d="M105.004 340.098H151.704C152.107 340.098 152.435 340.426 152.435 340.829C152.435 341.232 152.107 341.56 151.704 341.56H105.004C104.602 341.56 104.273 341.232 104.273 340.829C104.273 340.426 104.602 340.098 105.004 340.098Z" fill="#7BA9E3"/>
<path fill-rule="evenodd" clip-rule="evenodd" d="M166.125 224.644C169.446 226.142 170.923 230.048 169.43 233.368C167.934 236.691 164.03 238.17 160.712 236.675C157.391 235.178 155.913 231.272 157.407 227.952C158.903 224.628 162.806 223.15 166.125 224.644Z" fill="#3D7DDA"/>
<path d="M161.593 229.311L160.129 229.319L160.15 233.177L161.615 233.169L161.593 229.311Z" fill="white"/>
<path d="M167.423 229.78C167.328 229.523 167.079 229.356 166.806 229.356L163.988 229.263C164.378 228.837 164.407 227.729 164.396 227.199C164.394 227.037 164.261 226.91 164.1 226.91C163.983 226.91 163.88 226.979 163.832 227.085C163.731 227.316 163.509 227.74 163.099 228.127C162.622 228.577 162.188 229.316 162.188 229.316L162.209 233.175L165.744 233.156C166.171 233.156 166.509 232.798 166.499 232.372C166.496 232.271 166.494 232.168 166.494 232.062C166.491 231.497 167.616 231.007 167.614 230.562C167.614 230.337 167.518 230.029 167.423 229.78Z" fill="white"/>
<path fill-rule="evenodd" clip-rule="evenodd" d="M166.125 296.041C169.446 297.538 170.923 301.444 169.43 304.765C167.934 308.088 164.03 309.567 160.712 308.072C157.391 306.575 155.913 302.669 157.407 299.348C158.903 296.025 162.806 294.546 166.125 296.041Z" fill="#F6597B"/>
<path fill-rule="evenodd" clip-rule="evenodd" d="M166.125 331.739C169.446 333.236 170.923 337.142 169.43 340.463C167.934 343.786 164.03 345.265 160.712 343.77C157.391 342.273 155.913 338.367 157.407 335.046C158.903 331.723 162.806 330.244 166.125 331.739Z" fill="#3D7DDA"/>
<path d="M160.147 299.674L160.125 303.533L161.589 303.541L161.611 299.683L160.147 299.674Z" fill="white"/>
<path d="M167.423 303.066C167.328 303.323 167.079 303.49 166.806 303.49L163.988 303.583C164.378 304.009 164.407 305.117 164.396 305.647C164.394 305.809 164.261 305.939 164.1 305.936C163.983 305.936 163.88 305.867 163.832 305.761C163.731 305.531 163.509 305.107 163.099 304.72C162.622 304.269 162.188 303.53 162.188 303.53L162.209 299.671L165.744 299.69C166.171 299.69 166.509 300.048 166.499 300.474C166.496 300.575 166.494 300.678 166.494 300.784C166.491 301.349 167.616 301.839 167.614 302.284C167.614 302.51 167.518 302.817 167.423 303.066Z" fill="white"/>
<path d="M161.593 336.406L160.129 336.415L160.15 340.273L161.615 340.265L161.593 336.406Z" fill="white"/>
<path d="M167.423 336.875C167.328 336.618 167.079 336.451 166.806 336.451L163.988 336.358C164.378 335.931 164.407 334.824 164.396 334.294C164.394 334.132 164.261 334.002 164.1 334.005C163.983 334.005 163.88 334.074 163.832 334.18C163.731 334.41 163.509 334.834 163.099 335.221C162.622 335.672 162.188 336.411 162.188 336.411L162.209 340.27L165.744 340.251C166.171 340.251 166.509 339.893 166.499 339.467C166.496 339.366 166.494 339.263 166.494 339.157C166.491 338.592 167.616 338.102 167.614 337.657C167.614 337.431 167.518 337.124 167.423 336.875Z" fill="white"/>
<path fill-rule="evenodd" clip-rule="evenodd" d="M146.162 178.918L142.06 188.898H139.446L139.002 182.914L138.302 184.759L136.637 188.898H134.184L133.083 178.918H135.85L136.208 183.439L136.274 183.996L136.287 184.295C136.306 184.571 136.324 184.767 136.34 184.889C136.464 184.473 136.602 184.088 136.745 183.731L138.697 178.918H141.128L141.573 184.889C141.753 184.327 141.954 183.776 142.179 183.235L143.874 178.918H146.165H146.162ZM131.446 186.609L131.059 188.898H123.716L125.376 178.918H132.537L132.172 181.102H127.908L127.646 182.673H131.237L130.874 184.844H127.286L126.992 186.609H131.446ZM123.65 178.918L121.986 188.898H119.153L120.813 178.918H123.65ZM119.95 178.918L115.472 188.898H112.572L110.649 178.918H113.689L114.783 185.358C114.852 185.17 115.167 184.409 115.734 183.076L117.519 178.916H119.95V178.918ZM109.187 186.609L108.801 188.898H101.457L103.117 178.918H110.278L109.913 181.102H105.649L105.387 182.673H108.978L108.615 184.844H105.027L104.733 186.609H109.187ZM95.3474 183.034H96.4703C97.5508 183.034 98.0937 182.668 98.0937 181.937C98.0937 181.322 97.6408 181.014 96.7298 181.014H95.6837L95.3474 183.034ZM98.9332 184.724L100.008 188.898H97.0608L96.1843 185.114H95.0031L94.3728 188.898H91.5312L93.1917 178.918H97.5428C98.7266 178.918 99.6032 179.178 100.173 179.697C100.742 180.217 101.028 180.922 101.028 181.815C101.028 183.246 100.331 184.213 98.9385 184.722L98.9332 184.724Z" fill="white"/>
<path fill-rule="evenodd" clip-rule="evenodd" d="M166.125 260.343C169.446 261.84 170.923 265.746 169.43 269.066C167.934 272.39 164.03 273.868 160.712 272.374C157.391 270.876 155.913 266.97 157.407 263.65C158.903 260.327 162.806 258.848 166.125 260.343Z" fill="#98C0EA"/>
<path fill-rule="evenodd" clip-rule="evenodd" d="M166.125 260.343C169.446 261.84 170.923 265.746 169.43 269.066C167.934 272.39 164.03 273.868 160.712 272.374C157.391 270.876 155.913 266.97 157.407 263.65C158.903 260.327 162.806 258.848 166.125 260.343Z" fill="#3D7DDA"/>
<path d="M161.589 265.011L160.125 265.019L160.147 268.877L161.611 268.869L161.589 265.011Z" fill="white"/>
<path d="M167.423 265.478C167.328 265.221 167.079 265.054 166.806 265.054L163.988 264.962C164.378 264.535 164.407 263.427 164.396 262.897C164.394 262.736 164.261 262.608 164.1 262.608C163.983 262.608 163.88 262.677 163.832 262.783C163.731 263.014 163.509 263.438 163.099 263.825C162.622 264.275 162.188 265.015 162.188 265.015L162.209 268.873L165.744 268.854C166.171 268.854 166.509 268.497 166.499 268.07C166.496 267.969 166.494 267.866 166.494 267.76C166.491 267.196 167.616 266.705 167.614 266.26C167.614 266.035 167.518 265.727 167.423 265.478Z" fill="white"/>
<path fill-rule="evenodd" clip-rule="evenodd" d="M204.432 4.18432C212.102 7.63994 215.52 16.6659 212.064 24.3403C208.608 32.0148 199.591 35.4359 191.922 31.9777C184.252 28.522 180.833 19.4961 184.289 11.8217C187.743 4.14722 196.763 0.726053 204.432 4.18432Z" fill="#FFBF42"/>
<path fill-rule="evenodd" clip-rule="evenodd" d="M195.592 8.65231C196.879 9.23266 197.451 10.7458 196.874 12.0337C196.294 13.3216 194.782 13.894 193.495 13.3163C192.208 12.736 191.636 11.2228 192.213 9.93492C192.793 8.64701 194.305 8.07461 195.592 8.65231Z" fill="#231916"/>
<path fill-rule="evenodd" clip-rule="evenodd" d="M206.948 13.7695C208.235 14.3499 208.807 15.863 208.23 17.1509C207.65 18.4388 206.137 19.0112 204.85 18.4335C203.563 17.8532 202.991 16.34 203.569 15.0521C204.149 13.7642 205.661 13.1918 206.948 13.7695Z" fill="#231916"/>
<path fill-rule="evenodd" clip-rule="evenodd" d="M203.898 29.5929C203.466 29.6592 202.671 29.6512 202.24 29.6857C201.898 26.1426 199.663 23.7443 196.533 22.3319C193.426 20.9327 190.172 20.8399 187.309 22.8857C187.076 22.5704 186.496 21.9476 186.281 21.619C189.438 18.9796 193.58 19.3427 197.221 20.9857C200.863 22.626 203.778 25.4801 203.895 29.5929" fill="#231916"/>
<path fill-rule="evenodd" clip-rule="evenodd" d="M94.4764 81.3954C106.931 78.067 119.722 85.4711 123.049 97.9341C126.375 110.397 118.976 123.197 106.521 126.525C94.066 129.854 81.2748 122.449 77.9486 109.986C74.6223 97.5234 82.0216 84.7238 94.4764 81.3954Z" fill="#FFBF42"/>
<path fill-rule="evenodd" clip-rule="evenodd" d="M88.305 95.2682C90.3945 94.7091 92.5396 95.9519 93.0984 98.0428C93.6572 100.134 92.4151 102.28 90.3257 102.839C88.2362 103.398 86.0911 102.156 85.5323 100.065C84.9735 97.9739 86.2155 95.8274 88.305 95.2682Z" fill="#231916"/>
<path fill-rule="evenodd" clip-rule="evenodd" d="M106.743 90.3414C108.832 89.7823 110.977 91.0252 111.536 93.116C112.095 95.2069 110.853 97.3534 108.763 97.9125C106.674 98.4717 104.529 97.2288 103.97 95.138C103.411 93.0471 104.653 90.9006 106.743 90.3414Z" fill="#231916"/>
<path fill-rule="evenodd" clip-rule="evenodd" d="M116.949 104.522C116.47 112.085 111.857 118.604 104.905 120.462C97.956 122.319 90.7077 118.972 86.5234 112.655L116.947 104.525L116.949 104.522Z" fill="#231916"/>
<path fill-rule="evenodd" clip-rule="evenodd" d="M112.322 115.89C110.357 118.063 107.838 119.677 104.907 120.461C101.975 121.246 98.9878 121.103 96.1992 120.199C96.901 116.561 99.5784 114.446 103.053 113.518C106.527 112.591 109.901 113.086 112.322 115.89Z" fill="#E50013"/>
<path fill-rule="evenodd" clip-rule="evenodd" d="M91.0383 30.3558C92.3677 30.0696 94.8624 29.2428 96.0938 29.6217C96.6208 29.7834 97.2193 30.1067 97.3835 30.74C97.696 31.9431 97.2114 32.4837 97.6378 33.0932C98.0006 33.61 99.2135 34.6117 99.0228 35.3351C98.8904 35.8386 98.4084 36.3448 98.4905 36.9834C98.5541 37.4763 98.607 37.4525 98.9751 38.0063C99.2611 38.433 99.4518 39.0187 99.4068 39.448C99.3009 40.4338 98.5223 41.1811 98.4322 41.9337C98.3422 42.6863 99.036 43.0069 99.0493 43.4309C99.0625 43.8549 99.1923 44.7559 98.2707 45.2515C97.3491 45.7444 96.8247 45.7497 96.8247 45.7497L94.3354 46.3406C94.2294 46.3777 94.1209 46.4095 94.0096 46.4334L93.2999 46.5871L85.4001 48.2884C83.9992 48.5905 82.6035 47.6895 82.3016 46.285L79.9632 35.412C79.5739 33.602 81.7852 30.9944 83.0034 29.9212C85.7603 27.4911 86.086 26.1502 86.3031 25.3393C86.523 24.5257 85.8927 22.8244 86.1893 22.1699C86.4859 21.5153 87.6167 21.3828 87.6167 21.3828C87.6167 21.3828 89.6373 21.5286 90.747 24.5496C91.8566 27.5706 90.3974 29.1315 90.4768 29.7489C90.5245 30.1358 90.8211 30.2948 91.0356 30.3611M75.6703 34.6302C77.0607 34.3308 78.4431 35.2238 78.7423 36.6177L80.8742 46.5288C81.0251 47.2337 80.8715 47.9359 80.5008 48.4977L80.4928 48.511L80.4769 48.5375L80.4558 48.5693L80.4346 48.6011L80.3949 48.6541L80.3869 48.6647L80.3657 48.6912L80.3419 48.7204L80.3233 48.7415L80.3048 48.7654L80.2916 48.7813L80.2651 48.8104L80.2439 48.8369L80.2174 48.8661L80.1962 48.8873L80.183 48.9005L80.1645 48.9191L80.138 48.9483L80.1141 48.9694L80.0982 48.9827L80.0638 49.0145L80.0426 49.0331L80.0241 49.049H80.0188L79.9897 49.0781L79.9711 49.094L79.9446 49.1152L79.9367 49.1231L79.9314 49.1285L79.8996 49.1523H79.8943L79.8784 49.1682L79.8361 49.1973L79.8308 49.2027L79.7963 49.2265L79.7778 49.2397L79.7354 49.2663L79.7275 49.2715L79.6798 49.3007L79.6374 49.3272L79.6189 49.3378L79.5765 49.3617H79.5712L79.5633 49.3696L79.5262 49.3882L79.513 49.3935H79.505L79.4627 49.4173L79.4468 49.4253L79.3964 49.4491L79.3435 49.473L79.3329 49.4783L79.2879 49.4968H79.2773L79.2693 49.5048L79.227 49.5207H79.219L79.2137 49.526L79.1581 49.5445H79.1528L79.0998 49.5631H79.0945L79.0919 49.5657L79.0442 49.579L79.023 49.5843L78.9833 49.5949H78.978L78.9595 49.6002L78.9039 49.6134L78.8853 49.6187H78.8668L78.8615 49.624C77.2355 49.9579 76.1629 49.1815 75.9219 48.0578L75.5247 46.2028L73.7 37.7175L73.6894 37.6618V37.6459L73.6788 37.5982V37.5903L73.6762 37.577L73.6709 37.5346V37.524L73.6682 37.5161L73.6629 37.4604V37.4525L73.6576 37.3995V37.3915V37.3756L73.655 37.3359V37.3226L73.6523 37.267V37.2537V37.206V37.1981V37.1928V37.1424V37.1265V37.0735V37.0709V37.0152L73.6576 36.9993V36.994L73.6603 36.9543V36.9437V36.9357L73.6656 36.888V36.8801V36.8748L73.6735 36.8218V36.8112L73.6841 36.7582V36.7529L73.6921 36.7052V36.6866L73.6974 36.6813L73.7053 36.6442L73.7106 36.6177L73.7186 36.5859L73.7265 36.5541L73.7344 36.5197L73.7397 36.5011L73.753 36.4534V36.4481V36.4455L73.7689 36.3951V36.3845L73.7901 36.3315V36.3209L73.8086 36.2812L73.8139 36.2653L73.8271 36.2282V36.2202L73.8404 36.1964V36.1911L73.8563 36.1566L73.8669 36.1301L73.8748 36.1116L73.888 36.0851L73.9039 36.0506V36.0453L73.9172 36.0241L73.9225 36.0162L73.9384 35.9817L73.9569 35.9473V35.942L73.9728 35.9155L73.9913 35.8784L74.0046 35.8572L74.0178 35.8333L74.0311 35.8121L74.0522 35.7803L74.0655 35.7591L74.092 35.7194L74.1184 35.6796L74.1317 35.6611V35.6558L74.1582 35.624L74.1635 35.616L74.1714 35.6081L74.1926 35.5789L74.2085 35.5604L74.2376 35.5233L74.2456 35.5127L74.28 35.4703L74.2853 35.465L74.3118 35.4332L74.3277 35.4146L74.3541 35.3855C74.7011 35.0224 75.1539 34.7548 75.6783 34.6408L75.6703 34.6302Z" fill="#71BDF8"/>
<path fill-rule="evenodd" clip-rule="evenodd" d="M340.027 9.58516C341.267 10.1443 343.767 10.9605 344.532 11.9967C344.861 12.4392 345.152 13.054 344.908 13.6635C344.447 14.8163 343.738 14.9647 343.719 15.7067C343.703 16.3374 344.087 17.8638 343.505 18.3355C343.099 18.6615 342.414 18.7834 342.098 19.3478C341.857 19.7824 341.916 19.793 341.884 20.4582C341.86 20.9723 341.667 21.5579 341.375 21.8759C340.705 22.6073 339.636 22.7451 339.116 23.299C338.597 23.8502 338.966 24.5206 338.725 24.8704C338.486 25.2202 338.055 26.0232 337.019 25.8721C335.984 25.7237 335.56 25.4137 335.56 25.4137L333.206 24.412C333.1 24.3802 332.994 24.3404 332.888 24.2927L332.226 23.9933L324.858 20.6728C323.55 20.0845 322.962 18.5316 323.553 17.2225L328.118 7.0809C328.878 5.39284 332.205 4.60844 333.82 4.46534C337.48 4.14469 338.537 3.25958 339.193 2.73488C339.853 2.21018 340.356 0.466467 340.981 0.116665C341.609 -0.233137 342.596 0.328666 342.596 0.328666C342.596 0.328666 344.138 1.64572 343.237 4.73564C342.339 7.82555 340.239 8.21776 339.937 8.76101C339.747 9.10286 339.89 9.40496 340.025 9.58516M325.126 3.90353C326.423 4.48919 327.006 6.02884 326.421 7.32735L322.26 16.5732C321.964 17.2304 321.423 17.7048 320.793 17.9354L320.78 17.9407L320.751 17.9513L320.714 17.9645L320.677 17.9751L320.613 17.9937H320.6L320.565 18.0069L320.528 18.0175L320.502 18.0228L320.473 18.0308L320.451 18.0361L320.414 18.044H320.412L320.38 18.052H320.377L320.34 18.0599L320.311 18.0652H320.293L320.266 18.0732H320.263L320.226 18.0785H320.195L320.173 18.0838L320.126 18.0891H320.099L320.075 18.0944H320.07L320.03 18.097H320.007H319.972H319.962H319.954H319.914H319.909H319.837H319.829H319.787H319.763L319.713 18.0944H319.705L319.646 18.0891H319.644L319.593 18.0838H319.572L319.525 18.0758H319.517H319.509L319.469 18.0705H319.456L319.448 18.0679L319.4 18.0599H319.384L319.331 18.0467L319.276 18.0334H319.262L319.215 18.0175H319.204L319.196 18.0122L319.151 17.999H319.141L319.138 17.9937L319.082 17.9751H319.077L319.024 17.9539H319.019L319.016 17.9513L318.971 17.9354L318.95 17.9274L318.913 17.9115H318.908L318.889 17.9009L318.836 17.8771L318.817 17.8691L318.799 17.8612H318.796C317.289 17.1616 316.887 15.9001 317.358 14.8534L318.14 13.1229L321.701 5.20999L321.725 5.15699L321.733 5.14109L321.754 5.09604V5.08809L321.765 5.07749L321.786 5.04039L321.791 5.02979V5.02449L321.823 4.97679V4.97149L321.855 4.92644V4.92114H321.86L321.868 4.90789L321.889 4.87344L321.897 4.86284L321.929 4.81514L321.937 4.80454L321.966 4.76479L321.972 4.75949V4.75419L322.006 4.71444L322.017 4.70119L322.051 4.65879L322.085 4.61374L322.096 4.60049V4.59519L322.125 4.56604L322.133 4.55809L322.138 4.55279L322.17 4.51834L322.176 4.51304H322.178L322.215 4.47064L322.223 4.46269L322.263 4.42559V4.42029L322.297 4.38584L322.311 4.37259H322.313L322.342 4.34344H322.345L322.361 4.32754L322.385 4.30634L322.411 4.28514L322.44 4.26129L322.456 4.24804L322.493 4.21889H322.499L322.501 4.21359L322.544 4.18179L322.552 4.17649L322.597 4.14469L322.605 4.13938L322.639 4.11553L322.652 4.10758L322.684 4.08638L322.692 4.08108L322.713 4.06783H322.718L322.753 4.04398L322.777 4.03073L322.793 4.02013L322.819 4.00423L322.853 3.98568H322.859L322.88 3.97243L322.888 3.96713L322.922 3.95123L322.957 3.93533H322.962L322.989 3.91943H322.991L323.026 3.90088L323.047 3.89028L323.073 3.87968L323.097 3.86908L323.134 3.85583H323.137L323.158 3.84523L323.203 3.82933H323.208L323.251 3.81343L323.272 3.80813H323.277L323.314 3.79488H323.322L323.333 3.78958L323.367 3.77898L323.391 3.77368L323.436 3.76043H323.447L323.5 3.74453H323.508L323.547 3.73393L323.571 3.72863H323.574L323.611 3.72068C324.106 3.63323 324.63 3.68623 325.118 3.90618L325.126 3.90353Z" fill="#71BDF8"/>
<path fill-rule="evenodd" clip-rule="evenodd" d="M428.092 4.17647C435.767 -1.64826 446.704 -0.145699 452.525 7.53404C458.346 15.2138 456.844 26.1583 449.17 31.9831C441.495 37.8078 430.558 36.3026 424.737 28.6255C418.916 20.9458 420.42 10.0012 428.092 4.17647Z" fill="#FFBF42"/>
<path fill-rule="evenodd" clip-rule="evenodd" d="M429.515 11.5858C431.078 11.1697 432.68 12.0972 433.098 13.6581C433.514 15.2216 432.587 16.8248 431.027 17.2409C429.465 17.6569 427.863 16.7294 427.447 15.1686C427.031 13.6051 427.958 12.0018 429.518 11.5831" fill="#231916"/>
<path fill-rule="evenodd" clip-rule="evenodd" d="M443.29 7.9051C444.853 7.48905 446.455 8.41656 446.871 9.97741C447.286 11.5409 446.359 13.1442 444.8 13.5629C443.237 13.9789 441.635 13.0514 441.217 11.4906C440.801 9.92706 441.728 8.32381 443.287 7.90775" fill="#231916"/>
<path fill-rule="evenodd" clip-rule="evenodd" d="M450.92 18.5024C450.563 24.1549 447.115 29.023 441.921 30.4116C436.728 31.8002 431.315 29.2986 428.188 24.5789L450.92 18.5024Z" fill="#231916"/>
<path fill-rule="evenodd" clip-rule="evenodd" d="M447.458 26.9956C445.989 28.6201 444.108 29.8258 441.918 30.4115C439.728 30.9971 437.496 30.8911 435.414 30.2154C435.938 27.4965 437.938 25.9171 440.536 25.2228C443.131 24.5285 445.652 24.8995 447.461 26.9956" fill="#E50013"/>
<path fill-rule="evenodd" clip-rule="evenodd" d="M555.37 28.7501C556.7 28.4639 559.194 27.6371 560.426 28.016C560.953 28.1777 561.551 28.501 561.716 29.1343C562.028 30.3374 561.543 30.878 561.97 31.4875C562.333 32.0043 563.546 33.006 563.355 33.7321C563.222 34.2356 562.74 34.7418 562.823 35.3804C562.886 35.8733 562.939 35.8495 563.307 36.4033C563.593 36.83 563.784 37.4156 563.739 37.8449C563.633 38.8307 562.854 39.578 562.764 40.3306C562.674 41.0832 563.368 41.4039 563.381 41.8279C563.395 42.2519 563.524 43.1529 562.603 43.6485C561.681 44.1414 561.157 44.1467 561.157 44.1467L558.667 44.7376C558.561 44.7747 558.453 44.8065 558.342 44.8304L557.632 44.9841L549.732 46.6854C548.331 46.9875 546.936 46.0865 546.634 44.682L544.295 33.809C543.906 31.999 546.117 29.3914 547.335 28.3181C550.092 25.8881 550.418 24.5472 550.635 23.7363C550.855 22.9227 550.225 21.2214 550.521 20.5668C550.818 19.9123 551.949 19.7798 551.949 19.7798C551.949 19.7798 553.969 19.9255 555.079 22.9466C556.189 25.9676 554.729 27.5284 554.809 28.1459C554.857 28.5328 555.153 28.6918 555.368 28.758M540.002 33.0272C541.393 32.7277 542.775 33.6208 543.074 35.0147L545.206 44.9258C545.357 45.6307 545.204 46.3329 544.833 46.8947L544.825 46.908L544.809 46.9318L544.788 46.9636L544.767 46.9954L544.727 47.0484L544.719 47.059L544.698 47.0855L544.674 47.1147L544.655 47.1359L544.637 47.1597L544.624 47.1756L544.597 47.2048L544.576 47.2313L544.549 47.2604L544.528 47.2816L544.515 47.2949L544.497 47.3134L544.47 47.3426L544.446 47.3638L544.43 47.377L544.396 47.4088L544.375 47.4274L544.356 47.4433H544.351L544.322 47.4724L544.303 47.4883L544.277 47.5095L544.269 47.5175L544.263 47.5228L544.232 47.5466H544.226L544.21 47.5625L544.168 47.5917L544.163 47.597L544.128 47.6208L544.11 47.6341L544.067 47.6606L544.059 47.6659L544.012 47.695L543.969 47.7215L543.951 47.7321L543.909 47.756H543.903L543.895 47.7639L543.858 47.7825L543.845 47.7878H543.837L543.795 47.8116L543.779 47.8196L543.728 47.8434L543.676 47.8673L543.665 47.8726L543.62 47.8911H543.609L543.601 47.8991L543.559 47.915H543.551L543.546 47.9203L543.49 47.9388H543.485L543.432 47.9574H543.427L543.424 47.96L543.376 47.9733L543.355 47.9786L543.315 47.9892H543.31L543.292 47.9945L543.236 48.0077L543.217 48.013H543.199L543.194 48.0183C541.568 48.3496 540.495 47.5758 540.254 46.4522L539.857 44.5972L538.032 36.1118L538.021 36.0562V36.0403L538.011 35.9926V35.9846L538.008 35.9714L538.003 35.929V35.9184L538 35.9104L537.995 35.8574V35.8495L537.99 35.7965V35.7885V35.7726L537.987 35.7329V35.7196L537.984 35.664V35.6507V35.603V35.5951V35.5898V35.5394V35.5235V35.4705V35.4679V35.4122L537.987 35.3963V35.391L537.99 35.3513V35.3407V35.3327L537.995 35.285V35.2771V35.2718L538.003 35.2188V35.2082L538.014 35.1552V35.1499L538.021 35.1022V35.0836L538.027 35.081L538.035 35.0439L538.04 35.0174L538.048 34.9856L538.056 34.9538L538.064 34.9193L538.069 34.9008L538.082 34.8531V34.8478L538.085 34.8451L538.101 34.7948V34.7842L538.122 34.7312V34.7206L538.141 34.6808L538.146 34.6649L538.159 34.6278V34.6199L538.172 34.596V34.5907L538.188 34.5563L538.199 34.5298L538.207 34.5112L538.22 34.4847L538.236 34.4503V34.445L538.249 34.4238L538.255 34.4158L538.27 34.3814L538.289 34.3469V34.3416L538.305 34.3151L538.323 34.278L538.337 34.2568L538.35 34.233L538.363 34.2118L538.384 34.18L538.398 34.1588L538.424 34.1164L538.45 34.0766L538.464 34.0581V34.0528L538.49 34.021L538.496 34.013L538.503 34.0051L538.525 33.9759L538.541 33.9574L538.57 33.9203L538.578 33.9097L538.612 33.8673L538.617 33.862L538.644 33.8302L538.66 33.8116L538.686 33.7798C539.033 33.4168 539.486 33.1491 540.01 33.0352L540.002 33.0272Z" fill="#71BDF8"/>
<path fill-rule="evenodd" clip-rule="evenodd" d="M605.841 71.113C613.511 74.5686 616.929 83.5946 613.473 91.269C610.02 98.9435 601 102.365 593.331 98.9064C585.661 95.4508 582.245 86.4248 585.698 78.7504C589.152 71.0759 598.172 67.6548 605.841 71.113Z" fill="#FFBF42"/>
<path fill-rule="evenodd" clip-rule="evenodd" d="M596.999 75.581C598.286 76.1614 598.858 77.6745 598.28 78.9624C597.7 80.2503 596.188 80.8227 594.901 80.245C593.614 79.6647 593.042 78.1515 593.619 76.8636C594.199 75.5757 595.712 75.0033 596.999 75.581Z" fill="#231916"/>
<path fill-rule="evenodd" clip-rule="evenodd" d="M608.354 80.7007C609.641 81.281 610.213 82.7942 609.636 84.0821C609.056 85.37 607.544 85.9424 606.257 85.3647C604.97 84.7843 604.398 83.2712 604.975 81.9833C605.555 80.6953 607.067 80.1229 608.354 80.7007Z" fill="#231916"/>
<path fill-rule="evenodd" clip-rule="evenodd" d="M605.304 96.5216C604.872 96.5879 604.078 96.5799 603.646 96.6144C603.304 93.0713 601.069 90.673 597.939 89.2606C594.833 87.8614 591.578 87.7686 588.715 89.8144C588.482 89.4991 587.902 88.8763 587.688 88.5477C590.844 85.9083 594.986 86.2714 598.628 87.9144C602.269 89.5547 605.185 92.4088 605.301 96.5216" fill="#231916"/>
<path fill-rule="evenodd" clip-rule="evenodd" d="M511.894 185.543L513.648 189.214L517.676 189.746L514.731 192.55L515.467 196.549L511.894 194.612L508.322 196.549L509.058 192.55L506.113 189.746L510.141 189.214L511.894 185.543Z" fill="#EB6E03"/>
<path fill-rule="evenodd" clip-rule="evenodd" d="M526.496 185.543L528.249 189.214L532.277 189.746L529.332 192.55L530.069 196.549L526.496 194.612L522.923 196.549L523.66 192.55L520.715 189.746L524.743 189.214L526.496 185.543Z" fill="#EB6E03"/>
<path fill-rule="evenodd" clip-rule="evenodd" d="M541.094 185.543L542.847 189.214L546.875 189.746L543.93 192.55L544.666 196.549L541.094 194.612L537.521 196.549L538.257 192.55L535.312 189.746L539.341 189.214L541.094 185.543Z" fill="#EB6E03"/>
<path fill-rule="evenodd" clip-rule="evenodd" d="M555.695 185.543L557.448 189.214L561.476 189.746L558.532 192.55L559.268 196.549L555.695 194.612L552.123 196.549L552.859 192.55L549.914 189.746L553.942 189.214L555.695 185.543Z" fill="#EB6E03"/>
<path fill-rule="evenodd" clip-rule="evenodd" d="M570.297 185.543L572.05 189.214L576.078 189.746L573.133 192.55L573.872 196.549L570.297 194.612L566.724 196.549L567.463 192.55L564.516 189.746L568.546 189.214L570.297 185.543Z" fill="#EB6E03"/>
<path fill-rule="evenodd" clip-rule="evenodd" d="M511.894 172.14L513.648 175.81L517.676 176.345L514.731 179.146L515.467 183.145L511.894 181.208L508.322 183.145L509.058 179.146L506.113 176.345L510.141 175.81L511.894 172.14Z" fill="#EB6E03"/>
<path fill-rule="evenodd" clip-rule="evenodd" d="M511.894 158.738L513.648 162.406L517.676 162.941L514.731 165.742L515.467 169.741L511.894 167.804L508.322 169.741L509.058 165.742L506.113 162.941L510.141 162.406L511.894 158.738Z" fill="#EB6E03"/>
<path fill-rule="evenodd" clip-rule="evenodd" d="M511.894 145.334L513.648 149.002L517.676 149.537L514.731 152.338L515.467 156.337L511.894 154.4L508.322 156.337L509.058 152.338L506.113 149.537L510.141 149.002L511.894 145.334Z" fill="#EB6E03"/>
<path fill-rule="evenodd" clip-rule="evenodd" d="M511.894 131.931L513.648 135.601L517.676 136.134L514.731 138.935L515.467 142.934L511.894 140.996L508.322 142.934L509.058 138.935L506.113 136.134L510.141 135.601L511.894 131.931Z" fill="#EB6E03"/>
<path fill-rule="evenodd" clip-rule="evenodd" d="M526.496 172.14L528.249 175.81L532.277 176.345L529.332 179.146L530.069 183.145L526.496 181.208L522.923 183.145L523.66 179.146L520.715 176.345L524.743 175.81L526.496 172.14Z" fill="#EB6E03"/>
<path fill-rule="evenodd" clip-rule="evenodd" d="M526.496 158.738L528.249 162.406L532.277 162.941L529.332 165.742L530.069 169.741L526.496 167.804L522.923 169.741L523.66 165.742L520.715 162.941L524.743 162.406L526.496 158.738Z" fill="#EB6E03"/>
<path fill-rule="evenodd" clip-rule="evenodd" d="M526.496 145.334L528.249 149.002L532.277 149.537L529.332 152.338L530.069 156.337L526.496 154.4L522.923 156.337L523.66 152.338L520.715 149.537L524.743 149.002L526.496 145.334Z" fill="#EB6E03"/>
<path fill-rule="evenodd" clip-rule="evenodd" d="M541.094 172.14L542.847 175.81L546.875 176.345L543.93 179.146L544.666 183.145L541.094 181.208L537.521 183.145L538.257 179.146L535.312 176.345L539.341 175.81L541.094 172.14Z" fill="#EB6E03"/>
<path fill-rule="evenodd" clip-rule="evenodd" d="M541.094 158.738L542.847 162.406L546.875 162.941L543.93 165.742L544.666 169.741L541.094 167.804L537.521 169.741L538.257 165.742L535.312 162.941L539.341 162.406L541.094 158.738Z" fill="#EB6E03"/>
<path fill-rule="evenodd" clip-rule="evenodd" d="M555.695 172.14L557.448 175.81L561.476 176.345L558.532 179.146L559.268 183.145L555.695 181.208L552.123 183.145L552.859 179.146L549.914 176.345L553.942 175.81L555.695 172.14Z" fill="#EB6E03"/>
</g>
<defs>
<clipPath id="clip0_454_12793">
<rect width="650" height="401" fill="white"/>
</clipPath>
</defs>
</svg>
