<svg width="509" height="417" viewBox="0 0 509 417" fill="none" xmlns="http://www.w3.org/2000/svg">
<g clip-path="url(#clip0_454_12176)">
<path fill-rule="evenodd" clip-rule="evenodd" d="M186.812 44.5803L150.129 0.56953C149.496 -0.188541 148.331 -0.188541 147.699 0.56953L111.015 44.5803C110.155 45.6124 110.888 47.1803 112.232 47.1803H128.68V257.41H169.153V47.1803H185.602C186.943 47.1803 187.676 45.6124 186.818 44.5803H186.812Z" fill="url(#paint0_linear_454_12176)"/>
<path fill-rule="evenodd" clip-rule="evenodd" d="M508.812 203.933L490.314 181.742C489.994 181.359 489.407 181.359 489.088 181.742L470.59 203.933C470.155 204.454 470.526 205.246 471.204 205.246H479.498V311.248H499.903V205.246H508.197C508.876 205.246 509.244 204.454 508.812 203.933Z" fill="url(#paint1_linear_454_12176)"/>
<path fill-rule="evenodd" clip-rule="evenodd" d="M338.52 0.648438C313.416 0.648438 293.062 21.0189 293.062 46.151C293.062 71.283 313.413 91.6535 338.52 91.6535C363.628 91.6535 383.978 71.283 383.978 46.151C383.978 41.5782 383.303 37.1668 382.05 33.0019C381.901 32.5087 381.536 32.1586 381.037 32.0338C380.538 31.909 380.049 32.0429 379.687 32.4083L375.021 37.0785C374.671 37.4286 374.531 37.8944 374.638 38.3815C375.173 40.8871 375.456 43.4871 375.456 46.151C375.456 66.5702 358.92 83.1199 338.523 83.1199C318.127 83.1199 301.591 66.5671 301.591 46.151C301.591 25.7348 318.127 9.18207 338.523 9.18207C347.073 9.18207 354.944 12.0926 361.204 16.9759C361.772 17.4204 362.572 17.3717 363.08 16.8602L367.125 12.8111C367.421 12.5158 367.56 12.1474 367.539 11.7303C367.518 11.3132 367.338 10.9631 367.013 10.6982C359.218 4.41444 349.309 0.651482 338.52 0.651482V0.648438Z" fill="url(#paint2_linear_454_12176)"/>
<path fill-rule="evenodd" clip-rule="evenodd" d="M314.616 41.5204C312.399 39.2979 312.399 35.6994 314.616 33.4769C316.836 31.2575 320.431 31.2575 322.652 33.4769L338.522 49.3629L374.281 13.5692C376.498 11.3467 380.096 11.3467 382.316 13.5692C384.537 15.7886 384.537 19.3902 382.316 21.6127L342.54 61.4281C340.323 63.6506 336.725 63.6506 334.504 61.4281L314.616 41.5204Z" fill="url(#paint3_linear_454_12176)"/>
<path d="M262.353 417C372.158 417 461.172 412.765 461.172 407.541C461.172 402.317 372.158 398.082 262.353 398.082C152.549 398.082 63.5352 402.317 63.5352 407.541C63.5352 412.765 152.549 417 262.353 417Z" fill="#E7EDFF"/>
<path d="M185.005 335.131C185.27 332.784 185.412 330.4 185.412 327.983C185.412 325.566 185.273 323.182 185.005 320.835L175.859 318.137C174.989 313.373 173.499 308.824 171.473 304.58L177.283 297.027C174.919 292.853 172.097 288.977 168.879 285.467L159.919 288.658C156.476 285.376 152.604 282.544 148.392 280.255L148.653 270.744C144.365 268.783 139.818 267.289 135.076 266.33L129.705 274.178C127.369 273.871 124.987 273.709 122.57 273.709C120.152 273.709 117.77 273.871 115.434 274.178L110.063 266.33C105.321 267.289 100.774 268.78 96.4858 270.744L96.7474 280.255C92.538 282.544 88.6632 285.379 85.2202 288.658L76.26 285.467C73.0421 288.977 70.2197 292.853 67.8564 297.027L73.6656 304.58C71.64 308.824 70.1497 313.37 69.2798 318.137L60.1341 320.835C59.8695 323.182 59.7266 325.566 59.7266 327.983C59.7266 330.4 59.8665 332.784 60.1341 335.131L69.2981 337.835C70.174 342.584 71.6644 347.117 73.693 351.349L67.8564 358.939C70.2197 363.113 73.0421 366.989 76.26 370.499L85.2932 367.281C88.7179 370.532 92.5654 373.342 96.7474 375.617L96.4828 385.222C100.771 387.183 105.318 388.677 110.06 389.636L115.492 381.699C117.807 382.001 120.17 382.159 122.566 382.159C124.963 382.159 127.326 382.001 129.641 381.699L135.073 389.636C139.815 388.677 144.362 387.186 148.65 385.222L148.386 375.617C152.568 373.342 156.415 370.532 159.84 367.281L168.873 370.499C172.091 366.989 174.913 363.113 177.277 358.939L171.44 351.349C173.466 347.121 174.959 342.587 175.835 337.835L184.999 335.131H185.005ZM123.433 354.33C108.208 354.817 95.765 342.359 96.2486 327.118C96.6896 313.315 107.919 302.075 121.709 301.633C136.934 301.146 149.377 313.601 148.893 328.845C148.452 342.648 137.223 353.888 123.433 354.33Z" fill="url(#paint4_linear_454_12176)"/>
<path d="M122.573 370.95C98.904 370.95 79.6484 351.675 79.6484 327.983C79.6484 304.291 98.904 285.017 122.573 285.017C146.242 285.017 165.497 304.291 165.497 327.983C165.497 351.675 146.242 370.95 122.573 370.95ZM122.573 288.095C100.598 288.095 82.7203 305.99 82.7203 327.986C82.7203 349.982 100.598 367.875 122.573 367.875C144.547 367.875 162.422 349.979 162.422 327.986C162.422 305.993 144.544 288.095 122.573 288.095Z" fill="white"/>
<path d="M21.7243 286.484C27.8823 286.484 32.8743 281.487 32.8743 275.323C32.8743 269.159 27.8823 264.162 21.7243 264.162C15.5663 264.162 10.5742 269.159 10.5742 275.323C10.5742 281.487 15.5663 286.484 21.7243 286.484Z" fill="#BAC8FF"/>
<path d="M80.2478 370.252C81.6853 364.259 77.9966 358.233 72.0088 356.794C66.0209 355.355 60.0014 359.048 58.5639 365.041C57.1263 371.035 60.8151 377.061 66.8029 378.5C72.7908 379.938 78.8102 376.246 80.2478 370.252Z" fill="#BAC8FF"/>
<path d="M122.822 331.886C128.98 331.886 133.972 326.889 133.972 320.725C133.972 314.561 128.98 309.564 122.822 309.564C116.664 309.564 111.672 314.561 111.672 320.725C111.672 326.889 116.664 331.886 122.822 331.886Z" fill="#BAC8FF"/>
<path d="M392.235 82.7954C396.589 78.4367 396.589 71.37 392.235 67.0113C387.88 62.6527 380.821 62.6527 376.466 67.0113C372.112 71.37 372.112 78.4367 376.466 82.7953C380.821 87.154 387.88 87.154 392.235 82.7954Z" fill="#BAC8FF"/>
<path d="M458.589 57.7475C460.004 51.7482 456.292 45.7371 450.299 44.3211C444.305 42.9052 438.3 46.6207 436.885 52.6199C435.471 58.6191 439.183 64.6303 445.176 66.0462C451.169 67.4622 457.175 63.7467 458.589 57.7475Z" fill="#BAC8FF"/>
<path d="M224.236 411.587C230.394 411.587 235.386 406.59 235.386 400.426C235.386 394.262 230.394 389.265 224.236 389.265C218.078 389.265 213.086 394.262 213.086 400.426C213.086 406.59 218.078 411.587 224.236 411.587Z" fill="#BAC8FF"/>
<path d="M441.829 55.1017L384.184 71.6818C383.53 71.8706 382.986 72.3272 382.685 72.9392L223.512 397.512L124.077 317.881C123.15 317.139 121.817 317.184 120.938 317.988L70.0759 364.766L23.8667 275.499C23.2554 274.315 21.7985 273.852 20.6154 274.467C19.4323 275.079 18.97 276.538 19.5843 277.722L67.2473 369.79C67.594 370.456 68.2297 370.925 68.9688 371.056C69.7079 371.187 70.4652 370.965 71.0187 370.456L122.678 322.944L222.843 403.163C223.275 403.507 223.807 403.693 224.349 403.693C224.525 403.693 224.701 403.674 224.875 403.635C225.59 403.477 226.192 402.999 226.514 402.344L386.544 76.0232L441.829 60.122V55.0986V55.1017Z" fill="#BAC8FF"/>
<path fill-rule="evenodd" clip-rule="evenodd" d="M418.371 110.246H385.38C383.929 110.246 382.746 111.433 382.746 112.883V132.614C382.746 134.066 383.932 135.25 385.38 135.25H418.371C419.822 135.25 421.005 134.063 421.005 132.614V112.883C421.005 111.43 419.819 110.246 418.371 110.246ZM418.015 114.237L404.155 123.529C402.929 124.351 400.815 124.351 399.59 123.529L385.73 114.237C385.66 114.189 385.639 114.097 385.678 114.024C385.718 113.951 385.812 113.921 385.888 113.96L399.824 120.679C400.928 121.212 402.811 121.212 403.915 120.679L417.851 113.96C417.927 113.924 418.018 113.951 418.061 114.024C418.103 114.097 418.082 114.192 418.009 114.237H418.015Z" fill="#E7EDFF"/>
<path fill-rule="evenodd" clip-rule="evenodd" d="M481.309 302.711C475.15 302.711 469.572 305.21 465.536 309.25C461.5 313.29 459.003 318.874 459.003 325.039C459.003 329.91 460.56 334.416 463.206 338.087C467.936 333.63 474.301 330.9 481.309 330.9C488.316 330.9 494.682 333.63 499.412 338.087C502.055 334.416 503.615 329.91 503.615 325.039C503.615 318.874 501.118 313.29 497.082 309.25C493.046 305.21 487.468 302.711 481.309 302.711ZM474.228 314.971C472.808 307.274 489.81 307.274 488.389 314.971C487.659 318.926 485.947 323.045 482.699 325.575C481.872 326.22 480.749 326.22 479.919 325.575C476.671 323.045 474.958 318.926 474.228 314.971ZM481.309 298.595C495.899 298.595 507.727 310.435 507.727 325.039C507.727 339.643 495.899 351.483 481.309 351.483C466.719 351.483 454.891 339.643 454.891 325.039C454.891 310.435 466.719 298.595 481.309 298.595Z" fill="#E7EDFF"/>
<path d="M349.703 69.8916H147.61C144.378 69.8916 141.758 72.5141 141.758 75.7491V372.502C141.758 375.737 144.378 378.36 147.61 378.36H349.703C352.935 378.36 355.555 375.737 355.555 372.502V75.7491C355.555 72.5141 352.935 69.8916 349.703 69.8916Z" fill="#393F44"/>
<path d="M338.64 76.3491H158.773V355.398H338.64V76.3491Z" fill="white"/>
<path d="M283.928 67.4925H214.145V64.7099C214.145 64.4145 214.339 64.1588 214.622 64.0797L249.036 54.377L283.451 64.0797C283.733 64.1588 283.928 64.4176 283.928 64.7099V67.4925Z" fill="#FAB005"/>
<path d="M249.038 31.7476C241.009 31.7476 234.5 38.2627 234.5 46.3001C234.5 54.3375 241.009 60.8526 249.038 60.8526C257.068 60.8526 263.576 54.3375 263.576 46.3001C263.576 38.2627 257.068 31.7476 249.038 31.7476ZM249.038 50.6872C246.617 50.6872 244.655 48.7235 244.655 46.3001C244.655 43.8767 246.617 41.913 249.038 41.913C251.459 41.913 253.421 43.8767 253.421 46.3001C253.421 48.7235 251.459 50.6872 249.038 50.6872Z" fill="#FAB005"/>
<path fill-rule="evenodd" clip-rule="evenodd" d="M201.532 308.096L203.497 312.081L207.892 312.724C208.053 312.748 208.178 312.855 208.23 313.01C208.282 313.165 208.242 313.327 208.123 313.439L204.942 316.539L205.693 320.923C205.721 321.084 205.66 321.236 205.526 321.334C205.392 321.431 205.228 321.443 205.085 321.367L201.155 319.297L197.226 321.367C197.083 321.443 196.916 321.431 196.785 321.334C196.651 321.239 196.59 321.084 196.617 320.923L197.369 316.539L194.187 313.439C194.069 313.327 194.029 313.165 194.081 313.01C194.133 312.855 194.257 312.748 194.418 312.724L198.813 312.081L200.778 308.096C200.851 307.95 200.991 307.862 201.155 307.862C201.32 307.862 201.459 307.95 201.532 308.096Z" fill="#BAC8FF"/>
<path fill-rule="evenodd" clip-rule="evenodd" d="M225.262 308.096L227.227 312.081L231.622 312.724C231.783 312.748 231.911 312.855 231.96 313.01C232.011 313.165 231.972 313.327 231.853 313.439L228.675 316.539L229.426 320.923C229.454 321.084 229.393 321.236 229.259 321.334C229.128 321.431 228.961 321.443 228.818 321.367L224.888 319.297L220.959 321.367C220.813 321.443 220.649 321.431 220.518 321.334C220.384 321.239 220.323 321.084 220.35 320.923L221.102 316.539L217.92 313.439C217.802 313.327 217.765 313.165 217.814 313.01C217.863 312.855 217.99 312.748 218.151 312.724L222.546 312.081L224.511 308.096C224.584 307.95 224.724 307.862 224.888 307.862C225.053 307.862 225.193 307.95 225.262 308.096Z" fill="#BAC8FF"/>
<path fill-rule="evenodd" clip-rule="evenodd" d="M248.99 308.096L250.955 312.081L255.35 312.724C255.511 312.748 255.639 312.855 255.688 313.01C255.739 313.165 255.697 313.327 255.581 313.439L252.403 316.539L253.154 320.923C253.182 321.084 253.121 321.236 252.987 321.334C252.853 321.431 252.689 321.443 252.546 321.367L248.616 319.297L244.687 321.367C244.544 321.443 244.376 321.431 244.246 321.334C244.112 321.239 244.051 321.084 244.078 320.923L244.83 316.539L241.648 313.439C241.53 313.327 241.49 313.165 241.542 313.01C241.593 312.855 241.718 312.748 241.879 312.724L246.274 312.081L248.239 308.096C248.312 307.95 248.452 307.862 248.616 307.862C248.781 307.862 248.92 307.95 248.993 308.096H248.99Z" fill="#BAC8FF"/>
<path fill-rule="evenodd" clip-rule="evenodd" d="M272.717 308.096L274.682 312.081L279.077 312.724C279.238 312.748 279.366 312.855 279.414 313.01C279.466 313.165 279.423 313.327 279.308 313.439L276.129 316.539L276.881 320.923C276.908 321.084 276.847 321.236 276.713 321.334C276.58 321.431 276.415 321.443 276.272 321.367L272.343 319.297L268.413 321.367C268.27 321.443 268.103 321.431 267.972 321.334C267.838 321.239 267.778 321.084 267.805 320.923L268.556 316.539L265.375 313.439C265.256 313.327 265.217 313.165 265.268 313.01C265.32 312.855 265.445 312.748 265.606 312.724L270.001 312.081L271.966 308.096C272.039 307.95 272.179 307.862 272.343 307.862C272.507 307.862 272.647 307.95 272.72 308.096H272.717Z" fill="#BAC8FF"/>
<path fill-rule="evenodd" clip-rule="evenodd" d="M296.443 308.096L298.408 312.081L302.803 312.724C302.964 312.748 303.092 312.855 303.141 313.01C303.193 313.165 303.153 313.327 303.034 313.439L299.856 316.539L300.607 320.923C300.635 321.084 300.574 321.236 300.44 321.334C300.309 321.431 300.142 321.443 299.999 321.367L296.069 319.297L292.14 321.367C291.994 321.443 291.83 321.431 291.699 321.334C291.565 321.239 291.504 321.084 291.532 320.923L292.283 316.539L289.101 313.439C288.983 313.327 288.943 313.165 288.995 313.01C289.047 312.855 289.171 312.748 289.333 312.724L293.727 312.081L295.692 308.096C295.765 307.95 295.905 307.862 296.066 307.862C296.231 307.862 296.37 307.95 296.443 308.096Z" fill="#BAC8FF"/>
<path d="M193.208 67.4927H304.377C304.937 67.4927 305.39 67.9463 305.39 68.5065V68.8809C305.39 78.7937 297.351 86.8402 287.448 86.8402H210.137C200.234 86.8402 192.195 78.7937 192.195 68.8809V68.5065C192.195 67.9463 192.648 67.4927 193.208 67.4927Z" fill="#FFD43B"/>
<path fill-rule="evenodd" clip-rule="evenodd" d="M292.195 152.44C292.195 163.43 288.089 173.486 281.334 181.158C273.363 190.215 261.689 195.948 248.727 195.948C235.764 195.948 223.628 189.987 215.641 180.61C209.172 173.011 205.258 163.168 205.258 152.44C205.258 128.477 224.784 108.931 248.724 108.931C272.663 108.931 292.189 128.477 292.189 152.44H292.195Z" fill="#4C6EF4"/>
<path d="M248.731 202.959C220.902 202.959 198.258 180.296 198.258 152.436C198.258 124.576 220.899 101.917 248.731 101.917C276.564 101.917 299.201 124.579 299.201 152.436C299.201 180.293 276.561 202.959 248.731 202.959ZM248.731 103.865C221.972 103.865 200.204 125.654 200.204 152.439C200.204 179.225 221.972 201.014 248.731 201.014C275.49 201.014 297.258 179.225 297.258 152.439C297.258 125.654 275.49 103.865 248.731 103.865Z" fill="#C0C6FF"/>
<path d="M281.337 181.158C273.366 190.215 261.692 195.948 248.73 195.948C235.767 195.948 223.631 189.987 215.645 180.61C221.761 177.526 231.491 173.449 242.212 172.103H242.224C243.906 171.893 245.615 171.75 247.334 171.689C248.088 171.662 248.842 171.65 249.597 171.656C251.409 171.668 253.225 171.799 255.022 172.021C265.011 173.266 274.537 177.459 281.334 181.158H281.337Z" fill="#E64980"/>
<path d="M248.575 155.201C248.575 155.201 239.189 172.664 241.938 182.677C248.377 180.451 255.637 172.128 255.965 170.268C256.592 166.703 256.653 161.981 256.653 161.981L248.575 155.201Z" fill="#FFA8A8"/>
<path d="M250.751 162.389C248.552 162.678 246.478 163.132 244.799 163.649C243.169 167.924 241.618 173.16 241.469 177.818C247.013 173.212 250.067 168.816 250.751 162.389Z" fill="#FF8787"/>
<path d="M239.886 157.423C233.821 149.785 234.496 120.396 240.631 117.422C245.771 114.929 254.071 120.692 259.065 131.387C274.425 132.395 265.516 161.277 252.575 164.349C250.476 163.491 239.886 157.423 239.886 157.423Z" fill="#212529"/>
<path d="M254.055 155.432C253.89 155.532 253.714 155.368 253.787 155.188C256.114 149.325 254.921 141.744 249.562 140.213C240.496 137.622 234.848 169.296 239.541 171.397C244.927 173.805 261.436 158.726 258.985 155.24C257.741 153.471 255.153 154.762 254.055 155.432Z" fill="#FFA8A8"/>
<path d="M251.011 151.989C250.856 150.549 248.447 149.751 246.902 150.902C248.432 150.728 250.424 151.386 251.011 151.989Z" fill="#212529"/>
<path d="M239.342 161.603C238.919 162.855 239.236 165.409 239.357 166.207C240.86 166.898 247.794 166.481 249.601 160.83C247.803 161.865 240.483 163.174 239.342 161.603Z" fill="white"/>
<path d="M286.193 216.577H210.797C209.19 216.577 207.887 217.88 207.887 219.489C207.887 221.097 209.19 222.401 210.797 222.401H286.193C287.8 222.401 289.103 221.097 289.103 219.489C289.103 217.88 287.8 216.577 286.193 216.577Z" fill="#BAC8FF"/>
<path fill-rule="evenodd" clip-rule="evenodd" d="M261.825 233.008H235.161C233.555 233.008 232.25 231.705 232.25 230.094C232.25 228.487 233.552 227.181 235.161 227.181H261.825C263.431 227.181 264.736 228.484 264.736 230.094C264.736 231.702 263.434 233.008 261.825 233.008Z" fill="#BAC8FF"/>
<path fill-rule="evenodd" clip-rule="evenodd" d="M195.151 259.212C194.734 258.795 194.734 258.116 195.151 257.699C195.568 257.282 196.246 257.282 196.663 257.699L199.649 260.688L206.377 253.954C206.794 253.537 207.472 253.537 207.889 253.954C208.305 254.371 208.305 255.05 207.889 255.467L200.404 262.959C199.987 263.377 199.309 263.377 198.892 262.959L195.148 259.212H195.151ZM199.649 251.497C194.926 251.497 191.094 255.33 191.094 260.061C191.094 264.792 194.923 268.625 199.649 268.625C204.376 268.625 208.205 264.792 208.205 260.061C208.205 259.2 208.077 258.371 207.843 257.586C207.816 257.495 207.746 257.428 207.652 257.403C207.557 257.379 207.466 257.403 207.396 257.473L206.517 258.353C206.45 258.42 206.426 258.508 206.444 258.6C206.544 259.072 206.599 259.562 206.599 260.061C206.599 263.903 203.488 267.018 199.649 267.018C195.811 267.018 192.7 263.903 192.7 260.061C192.7 256.219 195.811 253.105 199.649 253.105C201.258 253.105 202.74 253.653 203.917 254.572C204.023 254.654 204.175 254.645 204.269 254.551L205.03 253.79C205.085 253.735 205.112 253.665 205.109 253.586C205.106 253.506 205.072 253.439 205.009 253.391C203.543 252.209 201.678 251.5 199.646 251.5L199.649 251.497Z" fill="#BAC8FF"/>
<path fill-rule="evenodd" clip-rule="evenodd" d="M195.311 286.432C194.895 286.015 194.895 285.336 195.311 284.919C195.728 284.502 196.406 284.502 196.823 284.919L199.81 287.909L206.537 281.175C206.954 280.758 207.632 280.758 208.049 281.175C208.466 281.592 208.466 282.271 208.049 282.688L200.564 290.18C200.147 290.597 199.469 290.597 199.052 290.18L195.308 286.432H195.311ZM199.81 278.718C195.086 278.718 191.254 282.551 191.254 287.282C191.254 292.013 195.083 295.846 199.81 295.846C204.536 295.846 208.365 292.013 208.365 287.282C208.365 286.42 208.238 285.592 208.003 284.807C207.976 284.715 207.906 284.648 207.812 284.624C207.717 284.6 207.626 284.624 207.556 284.694L206.677 285.574C206.61 285.641 206.586 285.729 206.604 285.821C206.705 286.292 206.759 286.783 206.759 287.282C206.759 291.124 203.648 294.238 199.81 294.238C195.971 294.238 192.86 291.124 192.86 287.282C192.86 283.44 195.971 280.325 199.81 280.325C201.419 280.325 202.9 280.873 204.077 281.793C204.183 281.875 204.335 281.866 204.43 281.771L205.19 281.01C205.245 280.955 205.272 280.885 205.269 280.806C205.266 280.727 205.233 280.66 205.169 280.611C203.703 279.43 201.838 278.721 199.807 278.721L199.81 278.718Z" fill="#BAC8FF"/>
<path fill-rule="evenodd" clip-rule="evenodd" d="M216.849 266.214C216.35 266.214 215.945 265.809 215.945 265.31C215.945 264.81 216.35 264.406 216.849 264.406H271.151C271.65 264.406 272.054 264.81 272.054 265.31C272.054 265.809 271.65 266.214 271.151 266.214H216.849ZM216.849 260.965C216.35 260.965 215.945 260.56 215.945 260.061C215.945 259.562 216.35 259.157 216.849 259.157H297.925C298.424 259.157 298.829 259.562 298.829 260.061C298.829 260.56 298.424 260.965 297.925 260.965H216.849ZM216.849 255.717C216.35 255.717 215.945 255.312 215.945 254.812C215.945 254.313 216.35 253.908 216.849 253.908H297.925C298.424 253.908 298.829 254.313 298.829 254.812C298.829 255.312 298.424 255.717 297.925 255.717H216.849Z" fill="#BAC8FF"/>
<path fill-rule="evenodd" clip-rule="evenodd" d="M216.849 290.908C216.35 290.908 215.945 290.503 215.945 290.003C215.945 289.504 216.35 289.099 216.849 289.099H271.151C271.65 289.099 272.054 289.504 272.054 290.003C272.054 290.503 271.65 290.908 271.151 290.908H216.849ZM216.849 285.464C216.35 285.464 215.945 285.059 215.945 284.56C215.945 284.061 216.35 283.656 216.849 283.656H297.925C298.424 283.656 298.829 284.061 298.829 284.56C298.829 285.059 298.424 285.464 297.925 285.464H216.849Z" fill="#BAC8FF"/>
<path d="M189.65 173.492H78.2956C73.384 173.492 69.4023 177.477 69.4023 182.394V248.988C69.4023 253.905 73.384 257.89 78.2956 257.89H189.65C194.562 257.89 198.543 253.905 198.543 248.988V182.394C198.543 177.477 194.562 173.492 189.65 173.492Z" fill="#FFD43B"/>
<path fill-rule="evenodd" clip-rule="evenodd" d="M79.4925 186.966L126.267 218.33C130.401 221.101 137.542 221.101 141.675 218.33L188.45 186.966C188.688 186.808 188.76 186.491 188.621 186.245C188.478 185.995 188.17 185.901 187.912 186.026L140.876 208.704C137.15 210.5 130.79 210.5 127.067 208.704L80.0308 186.026C79.7723 185.901 79.4651 185.998 79.3221 186.245C79.1792 186.494 79.2552 186.808 79.4925 186.966Z" fill="#FAB005"/>
<path d="M347.014 408.208L345.603 411.566C345.603 411.566 341.254 411.608 340.189 411.566C339.919 411.553 339.806 411.219 340.013 411.042C341.671 409.626 347.014 408.208 347.014 408.208Z" fill="#212529"/>
<path d="M413.146 409.538C414.803 408.122 419.384 406.704 419.384 406.704L418.465 410.062C418.465 410.062 414.387 410.104 413.322 410.062C413.052 410.049 412.939 409.715 413.146 409.538Z" fill="#212529"/>
<path d="M363.111 206.415C363.111 206.415 359.187 223.11 368.868 240.035C368.868 240.035 376.548 221.704 363.111 206.415Z" fill="#1B4DBC"/>
<path d="M373.125 208.171C373.125 208.171 334.818 217.694 318.29 214.939C301.766 212.18 316.036 223.229 316.036 223.229C316.036 223.229 349.088 241.757 373.125 236.244C373.125 236.244 378.131 217.947 373.125 208.174V208.171Z" fill="#FFA8A8"/>
<path d="M364.974 210.031C364.974 210.031 366.601 220.848 363.429 225.442C363.429 225.442 335.338 231.367 313.969 221.454C315.091 222.492 316.037 223.226 316.037 223.226C316.037 223.226 349.089 241.754 373.125 236.241C373.125 236.241 378.132 217.944 373.125 208.171C373.125 208.171 369.923 208.965 364.974 210.031Z" fill="#FF8787"/>
<path d="M410.934 189.372C401.669 189.621 390.902 197.644 382.389 201.151C373.876 204.658 363.109 206.415 363.109 206.415C363.109 206.415 372.623 221.774 368.867 240.035C368.867 240.035 391.161 240.248 398.165 232.478C405.17 224.709 410.93 189.369 410.93 189.369L410.934 189.372Z" fill="#4C6EF4"/>
<path d="M398.556 203.854C398.556 203.854 387.527 217.097 369.245 224.465C369.926 229.147 370.018 234.457 368.871 240.037C368.871 240.037 385.243 240.196 394.337 235.349C396.482 219.719 398.559 203.854 398.559 203.854H398.556Z" fill="#2F5DDD"/>
<path d="M427.961 238.497C427.961 238.497 448.491 244.26 465.268 233.486C465.268 233.486 444.738 221.707 427.961 238.497Z" fill="#1B4DBC"/>
<path d="M377.903 244.659C377.903 244.659 364.399 279.996 362.324 316.837C360.25 353.678 351.238 394.276 345.605 411.568C345.605 411.568 394.804 359.316 387.292 312.699L402.481 252.928L377.903 244.656V244.659Z" fill="#393F44"/>
<path d="M387.893 259.963C387.893 259.963 375.852 286.758 387.294 312.703L398.608 268.177L387.893 259.966V259.963Z" fill="#212529"/>
<path d="M365.004 293.599C363.748 301.051 362.772 308.906 362.324 316.837C360.25 353.678 351.238 394.276 345.605 411.568C345.605 411.568 368.523 370.557 371.528 343.488C373.535 325.41 368.541 305.098 365.004 293.599Z" fill="#212529"/>
<path d="M390.296 245.785C390.296 245.785 379.755 281.497 398.171 328.488C416.587 375.48 418.463 410.065 418.463 410.065C418.463 410.065 442.874 344.277 416.587 305.183C416.587 305.183 428.032 278.94 418.74 253.153C409.452 227.366 390.296 245.785 390.296 245.785Z" fill="#393F44"/>
<path d="M409.842 259.964C409.842 259.964 408.291 287.361 416.585 305.183C416.585 305.183 428.03 278.94 418.738 253.153C417.832 250.638 416.831 248.544 415.764 246.812L409.727 247.247L409.842 259.964Z" fill="#212529"/>
<path d="M410.934 189.372C410.934 189.372 380.242 221.813 373.323 247.515C373.192 247.996 373.347 248.507 373.715 248.842C376.705 251.57 391.259 262.911 422.2 258.042C422.2 258.042 428.21 213.179 410.931 189.372H410.934Z" fill="#4C6EF4"/>
<path d="M422.201 258.045C422.201 258.045 425.964 229.942 418.968 206.417L412.277 211.523C412.277 211.523 412.624 238.929 409.844 259.215C413.633 259.111 417.749 258.749 422.201 258.049V258.045Z" fill="#2F5DDD"/>
<path d="M429.21 229.467C429.21 229.467 443.441 261.297 408.96 257.772C408.96 257.772 406.174 255.58 404.17 257.586C402.165 259.592 401.673 265.41 404.17 265.477C406.667 265.544 408.96 262.533 408.96 262.533C408.96 262.533 430.46 267.066 443.73 261.3C457 255.537 464.409 238.881 459.756 225.71C455.099 212.54 429.21 229.464 429.21 229.464V229.467Z" fill="#FFA8A8"/>
<path d="M429.212 229.467C429.212 229.467 430.498 232.347 431.362 236.278C447.671 235.294 450.107 240.035 450.107 240.035C447.351 262.107 408.965 262.533 408.965 262.533C408.965 262.533 430.465 267.066 443.735 261.3C457.005 255.537 464.414 238.881 459.761 225.71C455.104 212.54 429.215 229.464 429.215 229.464L429.212 229.467Z" fill="#FF8787"/>
<path d="M410.933 189.372C410.933 189.372 453.498 190.876 465.266 233.483C465.266 233.483 445.487 225.713 427.959 238.494C427.959 238.494 427.208 223.457 415.69 214.936C404.171 206.414 410.933 189.372 410.933 189.372Z" fill="#4C6EF4"/>
<path d="M409.954 183.806C409.954 183.806 404.401 190.936 404.872 195.646C407.938 195.138 411.834 191.953 412.123 191.143C412.677 189.588 413.066 187.472 413.066 187.472L409.954 183.806Z" fill="#FFA8A8"/>
<path d="M410.385 187.201C409.375 187.164 408.408 187.207 407.614 187.31C406.556 189.107 405.458 191.341 405.035 193.424C407.879 191.777 409.588 190.035 410.385 187.201Z" fill="#FF8787"/>
<path d="M405.88 184.138C403.739 180.241 406.287 167.083 409.271 166.215C411.771 165.488 415.062 168.715 416.488 173.903C423.313 175.531 417.103 187.831 411.053 188.221C410.177 187.673 405.88 184.135 405.88 184.135V184.138Z" fill="#212529"/>
<path d="M412.402 184.33C412.32 184.363 412.253 184.275 412.301 184.199C413.795 181.742 413.837 178.244 411.547 177.145C407.669 175.288 402.712 189.091 404.661 190.391C406.9 191.886 415.471 186.372 414.634 184.619C414.211 183.727 412.949 184.11 412.402 184.33Z" fill="#FFA8A8"/>
<path d="M411.295 182.549C411.335 181.891 410.313 181.346 409.531 181.745C410.231 181.785 411.076 182.232 411.295 182.549Z" fill="#212529"/>
<path d="M405.316 185.974C405.03 186.503 404.979 187.675 404.973 188.044C405.596 188.47 408.744 188.814 409.988 186.412C409.1 186.738 405.712 186.768 405.316 185.974Z" fill="white"/>
<path d="M381.417 405.702L362.992 410.679C358.515 411.888 353.904 409.236 352.696 404.755L295.727 193.475L330.369 184.117L387.339 395.396C388.546 399.878 385.897 404.493 381.42 405.702H381.417Z" fill="#E64980"/>
<path d="M295.727 193.475L308.467 171.811L330.366 184.114L295.727 193.475Z" fill="#FFA8A8"/>
<path d="M307.027 174.259L306.774 168.246C306.741 167.476 307.775 167.196 308.134 167.878L310.938 173.199L307.024 174.256L307.027 174.259Z" fill="#C11F61"/>
<path d="M360.464 406.225L359.397 406.515C358.408 406.783 357.392 406.195 357.125 405.209L301.448 198.724C301.18 197.734 301.767 196.718 302.752 196.45L303.82 196.161C304.808 195.893 305.824 196.48 306.092 197.467L361.769 403.951C362.037 404.941 361.45 405.957 360.464 406.225Z" fill="#D6336C"/>
<path d="M371.449 403.257L370.381 403.546C369.393 403.814 368.377 403.227 368.109 402.24L312.432 195.756C312.164 194.766 312.751 193.749 313.737 193.481L314.804 193.192C315.793 192.924 316.809 193.512 317.076 194.498L372.754 400.983C373.021 401.972 372.434 402.989 371.449 403.257Z" fill="#D6336C"/>
<path d="M382.433 400.292L381.366 400.581C380.377 400.849 379.361 400.261 379.094 399.275L323.416 192.79C323.149 191.801 323.736 190.784 324.721 190.516L325.789 190.227C326.777 189.959 327.793 190.547 328.061 191.533L383.738 398.018C384.006 399.007 383.419 400.024 382.433 400.292Z" fill="#D6336C"/>
<path d="M299.688 208.171C302.818 210.494 306.574 216.988 302.203 217.496C297.833 218.005 297.65 206.658 299.688 208.171Z" fill="#FFA8A8"/>
<path d="M418.464 363.378C416.374 346.286 399.664 323.523 393.867 316.064C395.087 320.101 396.51 324.247 398.171 328.488C416.587 375.48 418.464 410.065 418.464 410.065C418.464 410.065 420.997 384.105 418.464 363.378Z" fill="#212529"/>
<path d="M250.586 410.354H254.43V411.018C254.43 411.323 254.184 411.569 253.88 411.569H251.136C250.832 411.569 250.586 411.323 250.586 411.018V410.354Z" fill="#1B4DBC"/>
<path d="M320.414 410.354H324.258V411.018C324.258 411.323 324.012 411.569 323.708 411.569H320.965C320.66 411.569 320.414 411.323 320.414 411.018V410.354Z" fill="#1B4DBC"/>
<path d="M253.532 346.159H321.317C325.913 346.159 329.644 349.894 329.644 354.494V404.886C329.644 408.053 327.074 410.625 323.911 410.625H250.94C247.777 410.625 245.207 408.053 245.207 404.886V354.494C245.207 349.894 248.939 346.159 253.535 346.159H253.532Z" fill="#4C6EF4"/>
<path d="M250.139 394.149H324.537C326.654 394.149 328.521 393.086 329.641 391.467V377.645C308.402 393.643 268.175 365.771 245.203 380.482V391.698C246.335 393.187 248.126 394.149 250.139 394.149Z" fill="#2B59C1"/>
<path d="M245.227 346.159H329.449C330.16 346.159 330.735 346.737 330.735 347.446V381.572C330.735 387.171 326.194 391.716 320.601 391.716H254.072C248.478 391.716 243.938 387.171 243.938 381.572V347.446C243.938 346.734 244.515 346.159 245.224 346.159H245.227Z" fill="#4C6EF4"/>
<path d="M243.941 375.912V385.509C243.941 388.937 246.718 391.713 250.14 391.713H324.537C327.962 391.713 330.736 388.934 330.736 385.509V370.913C325.353 377.803 319.397 380.339 311.861 380.339C294.047 380.339 281.634 365.917 263.422 365.917C249.656 365.917 243.941 375.912 243.941 375.912Z" fill="#3E65E5"/>
<path d="M309.249 386.726H316.199C316.436 386.726 316.631 386.918 316.631 387.158V397.829C316.631 399.425 315.338 400.718 313.744 400.718H311.707C310.113 400.718 308.82 399.425 308.82 397.829V387.158C308.82 386.921 309.012 386.729 309.249 386.729V386.726Z" fill="#1B4DBC"/>
<path d="M312.667 399.567H312.785C314.275 399.567 315.483 398.359 315.483 396.867V393.384C315.483 392.949 315.13 392.596 314.695 392.596H310.756C310.322 392.596 309.969 392.949 309.969 393.384V396.867C309.969 398.359 311.176 399.567 312.667 399.567Z" fill="#5F85FF"/>
<path d="M258.648 386.726H265.597C265.835 386.726 266.029 386.918 266.029 387.158V397.829C266.029 399.425 264.737 400.718 263.143 400.718H261.105C259.511 400.718 258.219 399.425 258.219 397.829V387.158C258.219 386.921 258.41 386.729 258.648 386.729V386.726Z" fill="#1B4DBC"/>
<path d="M262.065 399.567H262.184C263.674 399.567 264.881 398.359 264.881 396.867V393.384C264.881 392.949 264.529 392.596 264.094 392.596H260.155C259.72 392.596 259.367 392.949 259.367 393.384V396.867C259.367 398.359 260.575 399.567 262.065 399.567Z" fill="#5F85FF"/>
<path d="M262.899 343.188H269.426V346.159H260.992V345.096C260.992 344.043 261.847 343.188 262.899 343.188Z" fill="#5F85FF"/>
<path d="M313.684 346.159H305.25V343.187H311.777C312.829 343.187 313.684 344.043 313.684 345.096V346.159Z" fill="#5F85FF"/>
<path d="M287.341 338.529C276.848 338.529 269.43 343.187 269.43 343.187V346.159C269.43 346.159 276.243 343.324 287.341 343.324C298.439 343.324 305.252 346.159 305.252 346.159V343.187C305.252 343.187 297.831 338.529 287.341 338.529Z" fill="#2F5DDD"/>
<path d="M269.426 344.673V346.159C269.426 346.159 276.239 343.324 287.337 343.324C298.435 343.324 305.248 346.159 305.248 346.159V344.673C305.248 344.673 298.435 341.434 287.337 341.434C276.239 341.434 269.426 344.673 269.426 344.673Z" fill="#1B4DBC"/>
<path d="M485.659 146.443C487.84 132.997 478.719 120.329 465.287 118.146C451.855 115.964 439.198 125.094 437.018 138.539C434.838 151.984 443.959 164.653 457.391 166.835C470.823 169.018 483.479 159.888 485.659 146.443Z" fill="#E64980"/>
<path fill-rule="evenodd" clip-rule="evenodd" d="M452.994 140.91C452.221 140.137 452.221 138.882 452.994 138.106C453.766 137.333 455.019 137.333 455.795 138.106L461.324 143.641L473.785 131.168C474.558 130.394 475.811 130.394 476.587 131.168C477.359 131.941 477.359 133.195 476.587 133.972L462.727 147.845C461.954 148.618 460.701 148.618 459.925 147.845L452.994 140.907V140.91ZM461.324 126.625C452.577 126.625 445.484 133.725 445.484 142.481C445.484 151.237 452.577 158.336 461.324 158.336C470.072 158.336 477.164 151.237 477.164 142.481C477.164 140.889 476.93 139.351 476.492 137.899C476.441 137.728 476.313 137.607 476.139 137.561C475.966 137.518 475.796 137.564 475.668 137.692L474.044 139.318C473.922 139.439 473.874 139.604 473.91 139.771C474.096 140.645 474.196 141.549 474.196 142.478C474.196 149.593 468.432 155.362 461.324 155.362C454.216 155.362 448.453 149.593 448.453 142.478C448.453 135.363 454.216 129.594 461.324 129.594C464.305 129.594 467.048 130.607 469.229 132.309C469.427 132.465 469.707 132.446 469.883 132.27L471.294 130.857C471.398 130.754 471.446 130.626 471.437 130.48C471.428 130.333 471.367 130.212 471.255 130.12C468.539 127.931 465.087 126.619 461.327 126.619L461.324 126.625Z" fill="white"/>
<path fill-rule="evenodd" clip-rule="evenodd" d="M442.49 154.017L449.802 161.335L432.62 172.149C432.35 172.32 432.006 172.28 431.778 172.055C431.553 171.83 431.513 171.486 431.683 171.215L442.487 154.017H442.49Z" fill="#E64980"/>
<path fill-rule="evenodd" clip-rule="evenodd" d="M21.8195 187.998C26.8136 187.998 31.3333 190.023 34.6059 193.299C37.8785 196.575 39.9011 201.099 39.9011 206.098C39.9011 211.097 37.8785 215.621 34.6059 218.897C31.3333 222.173 26.8136 224.197 21.8195 224.197C16.8254 224.197 12.3058 222.173 9.03318 218.897C5.76055 215.621 3.73797 211.097 3.73797 206.098C3.73797 201.099 5.76055 196.575 9.03318 193.299C12.3058 190.023 16.8254 187.998 21.8195 187.998ZM27.4706 206.098C27.4706 203.635 25.8982 201.54 23.7022 200.761V194.553C23.7022 193.515 22.8536 192.669 21.8195 192.669C20.7854 192.669 19.9369 193.518 19.9369 194.553V200.761C18.331 201.33 17.0596 202.603 16.4909 204.21H10.2924C9.25521 204.21 8.40968 205.06 8.40968 206.095C8.40968 207.13 9.25825 207.979 10.2924 207.979H16.4939C17.2695 210.177 19.3651 211.751 21.8226 211.751C24.9431 211.751 27.4736 209.215 27.4736 206.095L27.4706 206.098ZM23.7022 206.098C23.7022 205.057 22.8597 204.213 21.8195 204.213C20.7794 204.213 19.9369 205.057 19.9369 206.098C19.9369 207.139 20.7794 207.982 21.8195 207.982C22.8597 207.982 23.7022 207.139 23.7022 206.098ZM43.6391 206.098C43.6391 194.036 33.8699 184.257 21.8195 184.257C9.76922 184.257 0 194.036 0 206.098C0 218.16 9.76922 227.939 21.8195 227.939C33.8699 227.939 43.6391 218.16 43.6391 206.098Z" fill="#E7EDFF"/>
<path d="M227.418 20.3736C227.466 19.9352 227.494 19.4907 227.494 19.0371C227.494 18.5835 227.466 18.139 227.418 17.7006L225.708 17.1952C225.547 16.3032 225.267 15.4537 224.89 14.6622L225.976 13.2496C225.535 12.4702 225.006 11.7456 224.407 11.088L222.734 11.6847C222.089 11.0728 221.365 10.543 220.58 10.1138L220.629 8.33579C219.826 7.97046 218.978 7.69037 218.092 7.51074L217.089 8.97817C216.654 8.92033 216.207 8.88988 215.757 8.88988C215.306 8.88988 214.859 8.92033 214.424 8.97817L213.421 7.51074C212.536 7.69037 211.684 7.97046 210.884 8.33579L210.933 10.1138C210.145 10.543 209.421 11.0697 208.779 11.6847L207.107 11.088C206.504 11.7425 205.978 12.4671 205.537 13.2496L206.623 14.6622C206.246 15.4537 205.966 16.3062 205.805 17.1952L204.096 17.7006C204.047 18.139 204.02 18.5835 204.02 19.0371C204.02 19.4907 204.047 19.9352 204.096 20.3736L205.808 20.879C205.972 21.768 206.249 22.6143 206.629 23.4028L205.537 24.8216C205.978 25.6009 206.507 26.3255 207.107 26.9831L208.795 26.3803C209.433 26.9892 210.154 27.5129 210.936 27.9391L210.887 29.7353C211.69 30.1007 212.539 30.3807 213.424 30.5604L214.44 29.0777C214.872 29.1356 215.313 29.163 215.763 29.163C216.213 29.163 216.651 29.1325 217.086 29.0777L218.102 30.5604C218.987 30.3807 219.838 30.1007 220.638 29.7353L220.59 27.9391C221.371 27.5129 222.089 26.9892 222.731 26.3803L224.419 26.9831C225.021 26.3286 225.547 25.604 225.988 24.8216L224.896 23.4028C225.273 22.6113 225.553 21.7649 225.717 20.879L227.43 20.3736H227.418ZM215.912 23.96C213.065 24.0513 210.741 21.7223 210.832 18.8757C210.915 16.2971 213.013 14.1964 215.589 14.1142C218.436 14.0228 220.76 16.3519 220.669 19.1984C220.586 21.7771 218.488 23.8778 215.912 23.96Z" fill="#E7EDFF"/>
<path fill-rule="evenodd" clip-rule="evenodd" d="M384.504 167.29L390.359 169.099L384.504 170.907L382.698 176.765L380.891 170.907L375.039 169.099L380.891 167.29L382.698 161.433L384.504 167.29Z" fill="#E7EDFF"/>
<path d="M108.564 61.0991H42.2263C41.7173 61.0991 41.3047 61.5121 41.3047 62.0216V158.571C41.3047 159.08 41.7173 159.493 42.2263 159.493H108.564C109.073 159.493 109.485 159.08 109.485 158.571V62.0216C109.485 61.5121 109.073 61.0991 108.564 61.0991Z" fill="#DBE4FF"/>
<path d="M107.25 63.0596H43.4883V157.155H107.25V63.0596Z" fill="white"/>
<path fill-rule="evenodd" clip-rule="evenodd" d="M90.1753 124.065H60.5635C57.8474 124.065 55.6484 121.861 55.6484 119.145C55.6484 116.429 57.8474 114.225 60.5635 114.225H90.1753C92.8883 114.225 95.0903 116.426 95.0903 119.145C95.0903 121.864 92.8883 124.065 90.1753 124.065ZM60.5635 123.456H90.1753C91.3645 123.456 92.4412 122.972 93.2198 122.192C93.9984 121.413 94.482 120.332 94.482 119.142C94.482 117.952 94.0014 116.874 93.2198 116.091C92.4381 115.309 91.3645 114.828 90.1722 114.828H60.5604C59.3712 114.828 58.2945 115.309 57.5129 116.091C56.7342 116.871 56.2506 117.948 56.2506 119.142C56.2506 120.335 56.7342 121.41 57.5129 122.192C58.2915 122.972 59.3682 123.456 60.5574 123.456H60.5635Z" fill="#DBE4FF"/>
<path fill-rule="evenodd" clip-rule="evenodd" d="M61.7293 117.023L62.298 118.177L63.5724 118.363C63.618 118.369 63.6545 118.399 63.6697 118.445C63.685 118.49 63.6728 118.536 63.6393 118.57L62.7178 119.468L62.9337 120.737C62.9428 120.783 62.9246 120.829 62.885 120.856C62.8455 120.883 62.7999 120.886 62.7573 120.865L61.6198 120.265L60.4823 120.865C60.4397 120.886 60.3941 120.883 60.3545 120.856C60.315 120.829 60.2968 120.783 60.3059 120.737L60.5249 119.468L59.6033 118.57C59.5698 118.536 59.5577 118.49 59.5729 118.445C59.5881 118.399 59.6246 118.369 59.6702 118.363L60.9446 118.177L61.5133 117.023C61.5346 116.98 61.5742 116.956 61.6228 116.956C61.6715 116.956 61.711 116.98 61.7323 117.023H61.7293Z" fill="#DBE4FF"/>
<path fill-rule="evenodd" clip-rule="evenodd" d="M68.6043 117.023L69.173 118.177L70.4474 118.363C70.493 118.369 70.5295 118.399 70.5447 118.445C70.56 118.49 70.5478 118.536 70.5143 118.57L69.5928 119.468L69.8087 120.737C69.8178 120.783 69.7996 120.829 69.76 120.856C69.7205 120.883 69.6749 120.886 69.6323 120.865L68.4948 120.265L67.3573 120.865C67.3147 120.886 67.2691 120.883 67.2295 120.856C67.19 120.829 67.1718 120.783 67.1809 120.737L67.3999 119.468L66.4783 118.57C66.4448 118.536 66.4327 118.49 66.4479 118.445C66.4631 118.399 66.4996 118.369 66.5452 118.363L67.8196 118.177L68.3883 117.023C68.4096 116.98 68.4492 116.956 68.4978 116.956C68.5465 116.956 68.586 116.98 68.6073 117.023H68.6043Z" fill="#DBE4FF"/>
<path fill-rule="evenodd" clip-rule="evenodd" d="M75.4793 117.023L76.048 118.177L77.3224 118.363C77.368 118.369 77.4045 118.399 77.4197 118.445C77.435 118.49 77.4228 118.536 77.3893 118.57L76.4678 119.468L76.6837 120.737C76.6928 120.783 76.6746 120.829 76.635 120.856C76.5955 120.883 76.5499 120.886 76.5073 120.865L75.3698 120.265L74.2323 120.865C74.1897 120.886 74.1441 120.883 74.1045 120.856C74.065 120.829 74.0467 120.783 74.0559 120.737L74.2749 119.468L73.3533 118.57C73.3198 118.536 73.3077 118.49 73.3229 118.445C73.3381 118.399 73.3746 118.369 73.4202 118.363L74.6946 118.177L75.2633 117.023C75.2846 116.98 75.3242 116.956 75.3728 116.956C75.4215 116.956 75.461 116.98 75.4823 117.023H75.4793Z" fill="#DBE4FF"/>
<path fill-rule="evenodd" clip-rule="evenodd" d="M82.3543 117.023L82.923 118.177L84.1974 118.363C84.243 118.369 84.2795 118.399 84.2947 118.445C84.31 118.49 84.2978 118.536 84.2643 118.57L83.3428 119.468L83.5587 120.737C83.5678 120.783 83.5496 120.829 83.51 120.856C83.4705 120.883 83.4249 120.886 83.3823 120.865L82.2448 120.265L81.1073 120.865C81.0647 120.886 81.0191 120.883 80.9795 120.856C80.94 120.829 80.9217 120.783 80.9309 120.737L81.1499 119.468L80.2283 118.57C80.1948 118.536 80.1827 118.49 80.1979 118.445C80.2131 118.399 80.2496 118.369 80.2952 118.363L81.5696 118.177L82.1383 117.023C82.1596 116.98 82.1992 116.956 82.2478 116.956C82.2965 116.956 82.336 116.98 82.3573 117.023H82.3543Z" fill="#DBE4FF"/>
<path fill-rule="evenodd" clip-rule="evenodd" d="M89.2293 117.023L89.798 118.177L91.0724 118.363C91.118 118.369 91.1545 118.399 91.1697 118.445C91.185 118.49 91.1728 118.536 91.1393 118.57L90.2178 119.468L90.4337 120.737C90.4428 120.783 90.4246 120.829 90.3851 120.856C90.3455 120.883 90.2999 120.886 90.2573 120.865L89.1198 120.265L87.9823 120.865C87.9397 120.886 87.8941 120.883 87.8545 120.856C87.815 120.829 87.7968 120.783 87.8059 120.737L88.0249 119.468L87.1033 118.57C87.0698 118.536 87.0577 118.49 87.0729 118.445C87.0881 118.399 87.1246 118.369 87.1702 118.363L88.4446 118.177L89.0133 117.023C89.0346 116.98 89.0742 116.956 89.1228 116.956C89.1715 116.956 89.211 116.98 89.2323 117.023H89.2293Z" fill="#DBE4FF"/>
<path fill-rule="evenodd" clip-rule="evenodd" d="M75.3705 74.026C72.0279 74.026 69.0016 75.3808 66.8118 77.5728C64.6219 79.7648 63.2685 82.7941 63.2685 86.1399C63.2685 88.7825 64.114 91.2272 65.5496 93.2183C68.1135 90.801 71.5687 89.3184 75.3705 89.3184C79.1723 89.3184 82.6275 90.801 85.1914 93.2183C86.627 91.2272 87.4725 88.7825 87.4725 86.1399C87.4725 82.7941 86.1191 79.7648 83.9292 77.5728C81.7393 75.3808 78.7131 74.026 75.3705 74.026ZM71.5291 80.6782C70.7566 76.5012 79.9844 76.5012 79.2119 80.6782C78.8165 82.8245 77.8888 85.0592 76.1248 86.4322C75.6746 86.7823 75.0663 86.7823 74.6162 86.4322C72.8522 85.0592 71.9245 82.8245 71.5291 80.6782ZM75.3705 71.7944C83.2875 71.7944 89.705 78.2182 89.705 86.1399C89.705 94.0616 83.2875 100.488 75.3705 100.488C67.4535 100.488 61.0391 94.0647 61.0391 86.1399C61.0391 78.2152 67.4566 71.7944 75.3705 71.7944Z" fill="#DBE4FF"/>
<path fill-rule="evenodd" clip-rule="evenodd" d="M91.7735 107.247H58.9681C58.3903 107.247 57.9219 106.779 57.9219 106.2C57.9219 105.622 58.3903 105.153 58.9681 105.153H91.7735C92.3514 105.153 92.8198 105.622 92.8198 106.2C92.8198 106.779 92.3514 107.247 91.7735 107.247Z" fill="#DBE4FF"/>
<path fill-rule="evenodd" clip-rule="evenodd" d="M86.6431 110.73H64.0967C63.7013 110.73 63.3789 110.407 63.3789 110.011C63.3789 109.616 63.7013 109.293 64.0967 109.293H86.6431C87.0385 109.293 87.3609 109.616 87.3609 110.011C87.3609 110.407 87.0385 110.73 86.6431 110.73Z" fill="#DBE4FF"/>
<path fill-rule="evenodd" clip-rule="evenodd" d="M92.2935 128.01H58.4996C58.2411 128.01 58.0312 127.8 58.0312 127.542C58.0312 127.283 58.2411 127.073 58.4996 127.073H92.2935C92.552 127.073 92.7619 127.283 92.7619 127.542C92.7619 127.8 92.552 128.01 92.2935 128.01Z" fill="#DBE4FF"/>
<path fill-rule="evenodd" clip-rule="evenodd" d="M92.2935 131.414H58.4996C58.2411 131.414 58.0312 131.204 58.0312 130.945C58.0312 130.687 58.2411 130.477 58.4996 130.477H92.2935C92.552 130.477 92.7619 130.687 92.7619 130.945C92.7619 131.204 92.552 131.414 92.2935 131.414Z" fill="#DBE4FF"/>
<path fill-rule="evenodd" clip-rule="evenodd" d="M92.2935 134.815H58.4996C58.2411 134.815 58.0312 134.605 58.0312 134.346C58.0312 134.087 58.2411 133.877 58.4996 133.877H92.2935C92.552 133.877 92.7619 134.087 92.7619 134.346C92.7619 134.605 92.552 134.815 92.2935 134.815Z" fill="#DBE4FF"/>
<path fill-rule="evenodd" clip-rule="evenodd" d="M92.2935 138.218H58.4996C58.2411 138.218 58.0312 138.008 58.0312 137.75C58.0312 137.491 58.2411 137.281 58.4996 137.281H92.2935C92.552 137.281 92.7619 137.491 92.7619 137.75C92.7619 138.008 92.552 138.218 92.2935 138.218Z" fill="#DBE4FF"/>
<path fill-rule="evenodd" clip-rule="evenodd" d="M92.2935 141.619H58.4996C58.2411 141.619 58.0312 141.409 58.0312 141.15C58.0312 140.892 58.2411 140.682 58.4996 140.682H92.2935C92.552 140.682 92.7619 140.892 92.7619 141.15C92.7619 141.409 92.552 141.619 92.2935 141.619Z" fill="#DBE4FF"/>
<path fill-rule="evenodd" clip-rule="evenodd" d="M92.2935 145.023H58.4996C58.2411 145.023 58.0312 144.813 58.0312 144.554C58.0312 144.295 58.2411 144.085 58.4996 144.085H92.2935C92.552 144.085 92.7619 144.295 92.7619 144.554C92.7619 144.813 92.552 145.023 92.2935 145.023Z" fill="#DBE4FF"/>
<path fill-rule="evenodd" clip-rule="evenodd" d="M84.9077 148.424H65.8864C65.6278 148.424 65.418 148.213 65.418 147.955C65.418 147.696 65.6278 147.486 65.8864 147.486H84.9077C85.1663 147.486 85.3761 147.696 85.3761 147.955C85.3761 148.213 85.1663 148.424 84.9077 148.424Z" fill="#DBE4FF"/>
</g>
<defs>
<linearGradient id="paint0_linear_454_12176" x1="148.572" y1="-51.6674" x2="149.382" y2="177.626" gradientUnits="userSpaceOnUse">
<stop stop-color="#DBE4FF"/>
<stop offset="1" stop-color="white"/>
</linearGradient>
<linearGradient id="paint1_linear_454_12176" x1="489.532" y1="155.405" x2="489.94" y2="271.018" gradientUnits="userSpaceOnUse">
<stop stop-color="#DBE4FF"/>
<stop offset="1" stop-color="white"/>
</linearGradient>
<linearGradient id="paint2_linear_454_12176" x1="338.831" y1="0.325724" x2="338.136" y2="103.271" gradientUnits="userSpaceOnUse">
<stop stop-color="#DBE4FF"/>
<stop offset="0.69" stop-color="white"/>
</linearGradient>
<linearGradient id="paint3_linear_454_12176" x1="348.647" y1="0.389709" x2="347.952" y2="103.302" gradientUnits="userSpaceOnUse">
<stop stop-color="#DBE4FF"/>
<stop offset="0.69" stop-color="white"/>
</linearGradient>
<linearGradient id="paint4_linear_454_12176" x1="122.761" y1="259.54" x2="122.389" y2="394.842" gradientUnits="userSpaceOnUse">
<stop stop-color="#DBE4FF"/>
<stop offset="0.69" stop-color="white"/>
</linearGradient>
<clipPath id="clip0_454_12176">
<rect width="509" height="417" fill="white"/>
</clipPath>
</defs>
</svg>
