<svg width="50" height="49" viewBox="0 0 50 49" fill="none" xmlns="http://www.w3.org/2000/svg">
<path d="M42.9997 16.9739C42.9773 15.4319 42.6921 13.9021 42.1462 12.4599C41.1909 9.99717 39.2455 8.0498 36.7828 7.09648C35.3589 6.56075 33.8536 6.27353 32.3299 6.24094C30.3703 6.15335 29.749 6.12891 24.7747 6.12891C19.8003 6.12891 19.1627 6.12891 17.2174 6.24094C15.6958 6.27353 14.1904 6.56075 12.7665 7.09648C10.3038 8.0498 8.35644 9.99717 7.40312 12.4599C6.86739 13.8838 6.57814 15.3891 6.54962 16.9108C6.46203 18.8724 6.43555 19.4937 6.43555 24.468C6.43555 29.4424 6.43555 30.0779 6.54962 32.0253C6.58017 33.549 6.86739 35.0523 7.40312 36.4802C8.35848 38.9409 10.3038 40.8883 12.7686 41.8416C14.1863 42.3957 15.6917 42.7094 17.2194 42.7583C19.1811 42.8459 19.8024 42.8723 24.7767 42.8723C29.7511 42.8723 30.3887 42.8723 32.334 42.7583C33.8556 42.7277 35.361 42.4405 36.7869 41.9048C39.2496 40.9494 41.195 39.002 42.1503 36.5413C42.686 35.1154 42.9733 33.6121 43.0038 32.0864C43.0914 30.1268 43.1179 29.5055 43.1179 24.5291C43.1138 19.5548 43.1138 18.9233 42.9997 16.9739ZM24.7625 33.8749C19.56 33.8749 15.3454 29.6604 15.3454 24.4578C15.3454 19.2553 19.56 15.0408 24.7625 15.0408C29.9609 15.0408 34.1795 19.2553 34.1795 24.4578C34.1795 29.6604 29.9609 33.8749 24.7625 33.8749ZM34.5543 16.8883C33.3382 16.8883 32.3584 15.9065 32.3584 14.6925C32.3584 13.4784 33.3382 12.4966 34.5543 12.4966C35.7663 12.4966 36.7482 13.4784 36.7482 14.6925C36.7482 15.9065 35.7663 16.8883 34.5543 16.8883Z" fill="#33354D"/>
<path d="M24.7626 30.5751C28.141 30.5751 30.8797 27.8363 30.8797 24.4579C30.8797 21.0795 28.141 18.3408 24.7626 18.3408C21.3842 18.3408 18.6455 21.0795 18.6455 24.4579C18.6455 27.8363 21.3842 30.5751 24.7626 30.5751Z" fill="#33354D"/>
</svg>
