<svg width="19" height="18" viewBox="0 0 19 18" fill="none" xmlns="http://www.w3.org/2000/svg">
<path fill-rule="evenodd" clip-rule="evenodd" d="M7.15918 3.711C5.91654 3.711 4.90918 4.71836 4.90918 5.961V11.961C4.90918 13.2036 5.91654 14.211 7.15918 14.211H13.1592C14.4018 14.211 15.4092 13.2036 15.4092 11.961V5.961C15.4092 4.71836 14.4018 3.711 13.1592 3.711H7.15918ZM3.40918 5.961C3.40918 3.88993 5.08811 2.211 7.15918 2.211H13.1592C15.2302 2.211 16.9092 3.88993 16.9092 5.961V11.961C16.9092 14.0321 15.2302 15.711 13.1592 15.711H7.15918C5.08811 15.711 3.40918 14.0321 3.40918 11.961V5.961ZM10.1592 7.461C9.33075 7.461 8.65918 8.13257 8.65918 8.961C8.65918 9.78943 9.33075 10.461 10.1592 10.461C10.9876 10.461 11.6592 9.78943 11.6592 8.961C11.6592 8.13257 10.9876 7.461 10.1592 7.461ZM7.15918 8.961C7.15918 7.30414 8.50233 5.961 10.1592 5.961C11.816 5.961 13.1592 7.30414 13.1592 8.961C13.1592 10.6179 11.816 11.961 10.1592 11.961C8.50233 11.961 7.15918 10.6179 7.15918 8.961ZM14.2842 5.586C14.2842 5.17179 13.9484 4.836 13.5342 4.836C13.12 4.836 12.7842 5.17179 12.7842 5.586V5.58675C12.7842 6.00096 13.12 6.33675 13.5342 6.33675C13.9484 6.33675 14.2842 6.00096 14.2842 5.58675V5.586Z" fill="#121212"/>
</svg>
