<svg width="28" height="28" viewBox="0 0 28 28" fill="none" xmlns="http://www.w3.org/2000/svg">
<path fill-rule="evenodd" clip-rule="evenodd" d="M5.72622 11.9145C5.72622 8.56369 8.4426 5.84732 11.7934 5.84732C15.1442 5.84732 17.8606 8.56369 17.8606 11.9145C17.8606 15.2653 15.1442 17.9817 11.7934 17.9817C8.4426 17.9817 5.72622 15.2653 5.72622 11.9145ZM11.7934 4.23193C7.55044 4.23193 4.11084 7.67154 4.11084 11.9145C4.11084 16.1575 7.55044 19.5971 11.7934 19.5971C13.6238 19.5971 15.3047 18.9569 16.6245 17.8883L22.0253 23.2892C22.3407 23.6046 22.8521 23.6046 23.1676 23.2892C23.483 22.9738 23.483 22.4624 23.1676 22.1469L17.7668 16.7461C18.8357 15.4263 19.476 13.7452 19.476 11.9145C19.476 7.67154 16.0364 4.23193 11.7934 4.23193Z" fill="#121212"/>
</svg>
