<svg width="40" height="39" viewBox="0 0 40 39" fill="none" xmlns="http://www.w3.org/2000/svg">
<g clip-path="url(#clip0_348_11544)">
<path d="M8.25645 14.0543L8.25647 14.0546L9.12123 29.1835C9.12123 29.1836 9.12124 29.1836 9.12124 29.1837C9.20357 30.635 10.4137 31.7777 11.8668 31.7777H27.133C28.5866 31.7777 29.7963 30.6348 29.8786 29.1837C29.8786 29.1836 29.8786 29.1836 29.8786 29.1835L30.7434 14.0557C30.784 13.3478 30.2085 12.7373 29.4991 12.7373H24.6543C24.3458 9.72634 22.2735 7.22158 19.4999 7.22158C16.7263 7.22158 14.654 9.72634 14.3455 12.7373H9.50072C8.79114 12.7373 8.21704 13.3473 8.25645 14.0543ZM24.1101 14.2277H29.241L28.391 29.099L28.391 29.0991C28.3529 29.771 27.8065 30.2873 27.133 30.2873H11.8668C11.1939 30.2873 10.6469 29.7708 10.6088 29.0991L10.6088 29.099L9.75875 14.2277H14.8848C14.951 14.2366 15.0182 14.2366 15.0844 14.2277H23.9105C23.9768 14.2366 24.0439 14.2366 24.1101 14.2277ZM19.7041 21.2803C18.7996 20.9494 18.1106 20.6736 17.6452 20.3378C17.1982 20.0153 16.976 19.6518 16.976 19.1255C16.976 18.0743 17.9818 17.2245 19.5371 17.2245C20.5632 17.2245 21.4645 17.6144 21.9598 17.8818L21.9606 17.8822C22.0388 17.924 22.2589 18.0561 22.3796 18.1371L22.5902 18.2783L22.723 18.0622L23.2352 17.2288L23.3597 17.0263L23.1603 16.8968C23.1552 16.8934 23.1473 16.8881 23.1368 16.8811C22.9109 16.7285 21.4567 15.7468 19.5371 15.7468C17.2849 15.7468 15.4994 17.1623 15.4994 19.1255C15.4994 20.2294 16.0201 20.9734 16.7452 21.5088C17.4507 22.0298 18.3626 22.3629 19.1792 22.6611L19.1969 22.6676C19.1969 22.6676 19.1969 22.6676 19.1969 22.6676C20.207 23.0367 20.9769 23.3487 21.4978 23.7516C21.9978 24.1385 22.2638 24.6055 22.2638 25.318C22.2638 25.8328 21.9763 26.3215 21.469 26.6906C20.9621 27.0595 20.2504 27.2954 19.4549 27.2954C18.57 27.2954 17.7418 26.9712 17.1239 26.6358C16.5081 26.3015 16.1201 25.9661 16.121 25.967L15.9137 25.7855L15.7589 26.0135L15.1997 26.8371L15.0739 27.0224L15.2479 27.1634C15.6633 27.5 17.366 28.773 19.4549 28.773C21.8005 28.773 23.7415 27.3026 23.7404 25.3178L19.7041 21.2803ZM19.4999 8.71194C21.2852 8.71194 22.8618 10.3857 23.1585 12.7373H15.8413C16.138 10.3857 17.7146 8.71194 19.4999 8.71194Z" fill="black" stroke="black" stroke-width="0.4875"/>
</g>
<defs>
<clipPath id="clip0_348_11544">
<rect width="25.0714" height="25.0714" fill="white" transform="translate(6.96436 6.96436)"/>
</clipPath>
</defs>
</svg>
