<svg width="19" height="19" viewBox="0 0 19 19" fill="none" xmlns="http://www.w3.org/2000/svg">
<path d="M9.1399 1.90471C9.32818 1.45204 9.96944 1.45204 10.1577 1.90471L11.8521 5.97852C11.9315 6.16935 12.1109 6.29974 12.317 6.31626L16.715 6.66885C17.2037 6.70802 17.4018 7.3179 17.0295 7.63685L13.6787 10.5072C13.5217 10.6416 13.4532 10.8526 13.5011 11.0537L14.5249 15.3454C14.6386 15.8223 14.1198 16.1992 13.7014 15.9436L9.93611 13.6438C9.75972 13.5361 9.53789 13.5361 9.36151 13.6438L5.59619 15.9436C5.1778 16.1992 4.65901 15.8223 4.77276 15.3454L5.7965 11.0537C5.84445 10.8526 5.7759 10.6416 5.61894 10.5072L2.26811 7.63684C1.89577 7.3179 2.09394 6.70802 2.58263 6.66885L6.98065 6.31626C7.18667 6.29974 7.36614 6.16935 7.44551 5.97852L9.1399 1.90471Z" fill="#FD7E14"/>
</svg>
