<svg width="44" height="49" viewBox="0 0 44 49" fill="none" xmlns="http://www.w3.org/2000/svg">
<path d="M39.4236 14.5155C37.1168 14.5155 34.9885 13.758 33.2793 12.4803C31.3191 11.0155 29.9107 8.86689 29.4134 6.39042C29.2902 5.77854 29.2239 5.14709 29.2176 4.5H22.628V22.3463L22.6201 32.1215C22.6201 34.7349 20.9031 36.9508 18.5229 37.7302C17.8321 37.9563 17.0861 38.0635 16.3093 38.0213C15.3177 37.9673 14.3885 37.6707 13.5809 37.1918C11.8623 36.1731 10.6971 34.3249 10.6655 32.2107C10.6157 28.9064 13.3109 26.2124 16.6424 26.2124C17.3 26.2124 17.9316 26.3188 18.5229 26.5121V21.6342V19.8808C17.8992 19.7892 17.2645 19.7415 16.6227 19.7415C12.9762 19.7415 9.56577 21.2438 7.12794 23.9503C5.28536 25.9957 4.18013 28.6052 4.00961 31.3414C3.7862 34.936 5.11326 38.353 7.68687 40.8741C8.06502 41.2442 8.46211 41.5877 8.87737 41.9046C11.0839 43.5877 13.7814 44.5 16.6227 44.5C17.2645 44.5 17.8992 44.453 18.5229 44.3615C21.177 43.9718 23.6259 42.7676 25.5585 40.8741C27.9331 38.5478 29.2452 35.4595 29.2594 32.1724L29.2255 17.5749C30.3583 18.441 31.597 19.1578 32.9264 19.7141C34.994 20.5787 37.1863 21.0169 39.4425 21.0161V16.2736V14.5139C39.4441 14.5155 39.4252 14.5155 39.4236 14.5155Z" fill="#33354D"/>
</svg>
