<svg width="50" height="49" viewBox="0 0 50 49" fill="none" xmlns="http://www.w3.org/2000/svg">
<path d="M40.772 16.3464C40.7985 16.7028 40.7985 17.0573 40.7985 17.4117C40.7985 28.2587 32.5425 40.7578 17.4544 40.7578C12.806 40.7578 8.48753 39.4113 4.85352 37.0729C5.5135 37.1482 6.14905 37.1747 6.83552 37.1747C10.6712 37.1747 14.2013 35.8792 17.0226 33.669C13.415 33.5937 10.3921 31.2307 9.34918 27.9797C9.85639 28.055 10.3656 28.106 10.8993 28.106C11.6347 28.106 12.3741 28.0041 13.0606 27.8269C9.29825 27.0651 6.48108 23.7631 6.48108 19.7746V19.6728C7.57495 20.2818 8.844 20.6628 10.1884 20.7137C7.97828 19.243 6.52997 16.7273 6.52997 13.8816C6.52997 12.3579 6.93533 10.9605 7.64625 9.7424C11.6856 14.7188 17.7579 17.9719 24.5656 18.3284C24.4393 17.7173 24.3619 17.0838 24.3619 16.4482C24.3619 11.9261 28.0203 8.24316 32.5669 8.24316C34.9298 8.24316 37.0626 9.23315 38.5618 10.8342C40.4155 10.4778 42.1918 9.79129 43.7684 8.85223C43.1593 10.7568 41.8618 12.3579 40.1609 13.3744C41.8129 13.1951 43.414 12.7388 44.8847 12.1033C43.7684 13.7288 42.3731 15.1771 40.772 16.3464Z" fill="#33354D"/>
</svg>
