<svg width="19" height="18" viewBox="0 0 19 18" fill="none" xmlns="http://www.w3.org/2000/svg">
<path d="M17.1431 2.92955C16.3931 3.29705 15.6581 3.4463 14.8931 3.67205C14.0523 2.7233 12.8058 2.6708 11.6081 3.1193C10.4103 3.5678 9.62582 4.6643 9.64307 5.92205V6.67205C7.20932 6.7343 5.04182 5.6258 3.64307 3.67205C3.64307 3.67205 0.506566 9.2468 6.64307 11.922C5.23907 12.8573 3.83882 13.488 2.14307 13.422C4.62407 14.7743 7.32782 15.2393 9.66857 14.5598C12.3536 13.7798 14.5601 11.7675 15.4068 8.7533C15.6594 7.83655 15.7848 6.88944 15.7796 5.93855C15.7781 5.7518 16.9121 3.85955 17.1431 2.9288V2.92955Z" stroke="#121212" stroke-width="1.5" stroke-linecap="round" stroke-linejoin="round"/>
</svg>
