<svg width="28" height="28" viewBox="0 0 28 28" fill="none" xmlns="http://www.w3.org/2000/svg">
<path fill-rule="evenodd" clip-rule="evenodd" d="M9.65633 9.33325C9.65633 7.20199 11.384 5.47427 13.5153 5.47427C15.6466 5.47427 17.3743 7.20199 17.3743 9.33325C17.3743 11.4645 15.6466 13.1922 13.5153 13.1922C11.384 13.1922 9.65633 11.4645 9.65633 9.33325ZM13.5153 3.85889C10.4919 3.85889 8.04094 6.30984 8.04094 9.33325C8.04094 12.3567 10.4919 14.8076 13.5153 14.8076C16.5387 14.8076 18.9897 12.3567 18.9897 9.33325C18.9897 6.30984 16.5387 3.85889 13.5153 3.85889ZM8.45268 19.3165C9.17638 18.5928 10.1579 18.1862 11.1814 18.1862H15.8481C16.8715 18.1862 17.8531 18.5928 18.5768 19.3165C19.3005 20.0402 19.707 21.0217 19.707 22.0452V24.3785C19.707 24.8246 20.0686 25.1862 20.5147 25.1862C20.9608 25.1862 21.3224 24.8246 21.3224 24.3785V22.0452C21.3224 20.5933 20.7457 19.2009 19.719 18.1743C18.6924 17.1476 17.2999 16.5709 15.8481 16.5709H11.1814C9.7295 16.5709 8.33707 17.1476 7.31043 18.1743C6.28379 19.2009 5.70703 20.5933 5.70703 22.0452V24.3785C5.70703 24.8246 6.06865 25.1862 6.51472 25.1862C6.9608 25.1862 7.32242 24.8246 7.32242 24.3785V22.0452C7.32242 21.0217 7.72899 20.0402 8.45268 19.3165Z" fill="#121212"/>
</svg>
