<svg width="50" height="49" viewBox="0 0 50 49" fill="none" xmlns="http://www.w3.org/2000/svg">
<path d="M44.8711 14.7287C44.4026 12.981 43.0277 11.6019 41.2819 11.1314C38.092 10.2555 25.3302 10.2412 25.3302 10.2412C25.3302 10.2412 12.5704 10.227 9.37842 11.0642C7.66734 11.5306 6.25366 12.9403 5.78107 14.686C4.93979 17.8759 4.93164 24.4921 4.93164 24.4921C4.93164 24.4921 4.9235 31.1409 5.75867 34.2982C6.22718 36.0439 7.60215 37.423 9.3499 37.8935C12.5724 38.7694 25.2996 38.7837 25.2996 38.7837C25.2996 38.7837 38.0614 38.798 41.2514 37.9628C42.9951 37.4943 44.3762 36.1173 44.8508 34.3716C45.6941 31.1836 45.7002 24.5695 45.7002 24.5695C45.7002 24.5695 45.7409 17.9187 44.8711 14.7287ZM21.248 30.6214L21.2582 18.3994L31.8649 24.5206L21.248 30.6214Z" fill="#33354D"/>
</svg>
