<?xml version="1.0" encoding="UTF-8"?>
<svg width="25px" height="21px" viewBox="0 0 25 21" version="1.1" xmlns="http://www.w3.org/2000/svg" xmlns:xlink="http://www.w3.org/1999/xlink">
    <title>Group 6</title>
    <defs>
        <polygon id="path-1" points="0 0 24.8890227 0 24.8890227 21 0 21"></polygon>
    </defs>
    <g id="Mothercare-PC" stroke="none" stroke-width="1" fill="none" fill-rule="evenodd">
        <g id="Mothercare_Cart-Copy" transform="translate(-180.000000, -260.000000)">
            <g id="Group-6" transform="translate(180.000000, 260.000000)">
                <g id="Group-3">
                    <mask id="mask-2" fill="white">
                        <use xlink:href="#path-1"></use>
                    </mask>
                    <g id="Clip-2"></g>
                    <path d="M24.5300879,17.0076409 L14.7067947,1.26209957 C13.935783,0.0130605547 12.2982199,-0.374475736 11.0491809,0.396536 C10.6998934,0.612144905 10.4053175,0.905678127 10.1885013,1.25419738 L0.349403829,17.0260793 C-0.377652006,18.3011845 0.0666263576,19.9243152 1.3417316,20.651371 C1.73080443,20.8731809 2.16954029,20.9930856 2.61733073,20.9999951 L22.2726972,20.9999951 C23.7408572,20.9766227 24.9120817,19.7674787 24.8887044,18.2993736 C24.8814607,17.8452175 24.7579891,17.4005002 24.5300879,17.0076409" id="Fill-1" fill="#F9B540" mask="url(#mask-2)"></path>
                </g>
                <path d="M12.4520382,17.5643253 C11.8507588,17.5609584 11.3660366,17.0707486 11.3694211,16.4694692 C11.372512,15.9210905 11.7829317,15.4605688 12.3273592,15.3947172 C12.9243034,15.3225001 13.4667554,15.7478461 13.5390275,16.3447903 C13.6112447,16.9417345 13.1858986,17.4841865 12.5889545,17.5564585 C12.5435169,17.5619462 12.497805,17.5645802 12.4520382,17.5643253 L12.4520382,17.5643253 Z M11.6433813,12.76768 L11.4098278,9.27667053 C11.3641708,8.57425414 11.1244712,7.43897366 11.6609417,6.86826034 C12.0692212,6.4292501 13.0359218,6.35374034 13.3291806,6.96220854 C13.5785384,7.67719159 13.6336891,8.44556926 13.4889803,9.18886848 L13.176405,12.7826063 C13.1629604,13.1208637 13.0889323,13.4539078 12.9577779,13.7659892 C12.8014903,14.071705 12.4270146,14.192817 12.1212988,14.0365293 C12.0088573,13.9790738 11.9165554,13.8886377 11.8567403,13.7774035 C11.7331589,13.4540725 11.6611612,13.1133457 11.6433813,12.76768 Z" id="Fill-4" fill="#596C76"></path>
            </g>
        </g>
    </g>
</svg>